%TF.GenerationSoftware,KiCad,Pcbnew,9.0.4*%
%TF.CreationDate,2025-11-11T21:51:20-08:00*%
%TF.ProjectId,latex-launch-2-pcb,6c617465-782d-46c6-9175-6e63682d322d,rev?*%
%TF.SameCoordinates,Original*%
%TF.FileFunction,Soldermask,Top*%
%TF.FilePolarity,Negative*%
%FSLAX46Y46*%
G04 Gerber Fmt 4.6, Leading zero omitted, Abs format (unit mm)*
G04 Created by KiCad (PCBNEW 9.0.4) date 2025-11-11 21:51:20*
%MOMM*%
%LPD*%
G01*
G04 APERTURE LIST*
G04 Aperture macros list*
%AMRoundRect*
0 Rectangle with rounded corners*
0 $1 Rounding radius*
0 $2 $3 $4 $5 $6 $7 $8 $9 X,Y pos of 4 corners*
0 Add a 4 corners polygon primitive as box body*
4,1,4,$2,$3,$4,$5,$6,$7,$8,$9,$2,$3,0*
0 Add four circle primitives for the rounded corners*
1,1,$1+$1,$2,$3*
1,1,$1+$1,$4,$5*
1,1,$1+$1,$6,$7*
1,1,$1+$1,$8,$9*
0 Add four rect primitives between the rounded corners*
20,1,$1+$1,$2,$3,$4,$5,0*
20,1,$1+$1,$4,$5,$6,$7,0*
20,1,$1+$1,$6,$7,$8,$9,0*
20,1,$1+$1,$8,$9,$2,$3,0*%
G04 Aperture macros list end*
%ADD10RoundRect,0.250001X1.449999X-0.499999X1.449999X0.499999X-1.449999X0.499999X-1.449999X-0.499999X0*%
%ADD11RoundRect,0.250000X1.500000X-0.250000X1.500000X0.250000X-1.500000X0.250000X-1.500000X-0.250000X0*%
%ADD12C,5.600000*%
%ADD13O,1.704000X3.204000*%
%ADD14C,1.600000*%
%ADD15RoundRect,0.200000X0.450000X-0.200000X0.450000X0.200000X-0.450000X0.200000X-0.450000X-0.200000X0*%
%ADD16O,1.300000X0.800000*%
%ADD17RoundRect,0.250000X-1.500000X0.250000X-1.500000X-0.250000X1.500000X-0.250000X1.500000X0.250000X0*%
%ADD18RoundRect,0.250001X-1.449999X0.499999X-1.449999X-0.499999X1.449999X-0.499999X1.449999X0.499999X0*%
%ADD19RoundRect,0.250000X0.550000X-1.050000X0.550000X1.050000X-0.550000X1.050000X-0.550000X-1.050000X0*%
%ADD20O,1.600000X2.600000*%
%ADD21O,2.600000X1.600000*%
%ADD22R,1.700000X1.700000*%
%ADD23C,1.700000*%
%ADD24RoundRect,0.102000X0.754000X-0.754000X0.754000X0.754000X-0.754000X0.754000X-0.754000X-0.754000X0*%
%ADD25C,1.712000*%
%ADD26C,3.720000*%
G04 APERTURE END LIST*
D10*
%TO.C,J3*%
X186034000Y-83518000D03*
X186034000Y-90218000D03*
D11*
X180284000Y-85868000D03*
X180284000Y-87868000D03*
%TD*%
D12*
%TO.C,H1*%
X114554000Y-73914000D03*
%TD*%
%TO.C,H4*%
X190754000Y-73914000D03*
%TD*%
%TO.C,H3*%
X190754000Y-129540000D03*
%TD*%
%TO.C,H2*%
X114554000Y-129540000D03*
%TD*%
D13*
%TO.C,J6*%
X160750000Y-100203000D03*
X158210000Y-100203000D03*
X155670000Y-100203000D03*
X153130000Y-100203000D03*
X150590000Y-100203000D03*
X148050000Y-100203000D03*
X145510000Y-100203000D03*
X142970000Y-100203000D03*
%TD*%
D14*
%TO.C,R1*%
X174244000Y-96012000D03*
X174244000Y-106172000D03*
%TD*%
D15*
%TO.C,J1*%
X186637000Y-109765000D03*
D16*
X186637000Y-108515000D03*
X186637000Y-107265000D03*
X186637000Y-106015000D03*
X186637000Y-104765000D03*
X186637000Y-103515000D03*
X186637000Y-102265000D03*
X186637000Y-101015000D03*
X186637000Y-99765000D03*
X186637000Y-98515000D03*
%TD*%
D14*
%TO.C,R2*%
X169164000Y-106172000D03*
X169164000Y-96012000D03*
%TD*%
D17*
%TO.C,J4*%
X120050000Y-112300000D03*
X120050000Y-114300000D03*
X120050000Y-116300000D03*
X120050000Y-118300000D03*
D18*
X114300000Y-109950000D03*
X114300000Y-120650000D03*
%TD*%
D14*
%TO.C,C1*%
X148804000Y-105664000D03*
X143804000Y-105664000D03*
%TD*%
D19*
%TO.C,A1*%
X133604000Y-129132500D03*
D20*
X136144000Y-129132500D03*
X138684000Y-129132500D03*
X141224000Y-129132500D03*
X143764000Y-129132500D03*
X146304000Y-129132500D03*
X148844000Y-129132500D03*
X151384000Y-129132500D03*
X153924000Y-129132500D03*
X156464000Y-129132500D03*
X159004000Y-129132500D03*
X161544000Y-129132500D03*
X164084000Y-129132500D03*
X166624000Y-129132500D03*
X169164000Y-129132500D03*
X171704000Y-129132500D03*
X171704000Y-109412500D03*
X169164000Y-109412500D03*
X166624000Y-109412500D03*
X164084000Y-109412500D03*
X161544000Y-109412500D03*
X159004000Y-109412500D03*
X156464000Y-109412500D03*
X153924000Y-109412500D03*
X151384000Y-109412500D03*
X148844000Y-109412500D03*
X146304000Y-109412500D03*
X143764000Y-109412500D03*
D21*
X176484000Y-125622500D03*
X176484000Y-118002500D03*
X176484000Y-115462500D03*
X176484000Y-112922500D03*
%TD*%
D22*
%TO.C,J2*%
X183896000Y-122682000D03*
D23*
X186436000Y-122682000D03*
X183896000Y-120142000D03*
X186436000Y-120142000D03*
X183896000Y-117602000D03*
X186436000Y-117602000D03*
%TD*%
D24*
%TO.C,J5*%
X132588000Y-101346000D03*
D25*
X132588000Y-98806000D03*
X132588000Y-96266000D03*
X132588000Y-93726000D03*
X132588000Y-91186000D03*
X132588000Y-88646000D03*
X132588000Y-86106000D03*
X132588000Y-83566000D03*
X132588000Y-81026000D03*
D26*
X114808000Y-101346000D03*
X114808000Y-81026000D03*
%TD*%
M02*
