%TF.GenerationSoftware,KiCad,Pcbnew,9.0.4*%
%TF.CreationDate,2025-11-11T21:53:38-08:00*%
%TF.ProjectId,latex-launch-2-pcb,6c617465-782d-46c6-9175-6e63682d322d,rev?*%
%TF.SameCoordinates,Original*%
%TF.FileFunction,Plated,1,4,PTH,Drill*%
%TF.FilePolarity,Positive*%
%FSLAX46Y46*%
G04 Gerber Fmt 4.6, Leading zero omitted, Abs format (unit mm)*
G04 Created by KiCad (PCBNEW 9.0.4) date 2025-11-11 21:53:38*
%MOMM*%
%LPD*%
G01*
G04 APERTURE LIST*
%TA.AperFunction,ViaDrill*%
%ADD10C,0.300000*%
%TD*%
%TA.AperFunction,ComponentDrill*%
%ADD11C,0.500000*%
%TD*%
%TA.AperFunction,ComponentDrill*%
%ADD12C,0.800000*%
%TD*%
%TA.AperFunction,ComponentDrill*%
%ADD13C,1.000000*%
%TD*%
%TA.AperFunction,ComponentDrill*%
%ADD14C,2.500000*%
%TD*%
%TA.AperFunction,ComponentDrill*%
%ADD15C,3.200000*%
%TD*%
G04 APERTURE END LIST*
D10*
X122428000Y-114300000D03*
X122428000Y-116332000D03*
X122428000Y-118364000D03*
X131318000Y-116840000D03*
X131318000Y-116840000D03*
X132588000Y-113284000D03*
X132588000Y-121412000D03*
X134620000Y-121412000D03*
X136398000Y-121412000D03*
X138176000Y-121412000D03*
X156210000Y-123952000D03*
X159004000Y-126746000D03*
X165100000Y-100330000D03*
X165100000Y-102870000D03*
X169164000Y-104394000D03*
X174244000Y-104394000D03*
X177800000Y-101092000D03*
D11*
%TO.C,J1*%
X186637000Y-98515000D03*
X186637000Y-99765000D03*
X186637000Y-101015000D03*
X186637000Y-102265000D03*
X186637000Y-103515000D03*
X186637000Y-104765000D03*
X186637000Y-106015000D03*
X186637000Y-107265000D03*
X186637000Y-108515000D03*
X186637000Y-109765000D03*
D12*
%TO.C,C1*%
X143804000Y-105664000D03*
X148804000Y-105664000D03*
%TO.C,R2*%
X169164000Y-96012000D03*
X169164000Y-106172000D03*
%TO.C,R1*%
X174244000Y-96012000D03*
X174244000Y-106172000D03*
D13*
%TO.C,J5*%
X132588000Y-81026000D03*
X132588000Y-83566000D03*
X132588000Y-86106000D03*
X132588000Y-88646000D03*
X132588000Y-91186000D03*
X132588000Y-93726000D03*
X132588000Y-96266000D03*
X132588000Y-98806000D03*
X132588000Y-101346000D03*
%TO.C,A1*%
X133604000Y-129432500D03*
X136144000Y-129432500D03*
X138684000Y-129432500D03*
X141224000Y-129432500D03*
%TO.C,J6*%
X142970000Y-100203000D03*
%TO.C,A1*%
X143764000Y-109112500D03*
X143764000Y-129432500D03*
%TO.C,J6*%
X145510000Y-100203000D03*
%TO.C,A1*%
X146304000Y-109112500D03*
X146304000Y-129432500D03*
%TO.C,J6*%
X148050000Y-100203000D03*
%TO.C,A1*%
X148844000Y-109112500D03*
X148844000Y-129432500D03*
%TO.C,J6*%
X150590000Y-100203000D03*
%TO.C,A1*%
X151384000Y-109112500D03*
X151384000Y-129432500D03*
%TO.C,J6*%
X153130000Y-100203000D03*
%TO.C,A1*%
X153924000Y-109112500D03*
X153924000Y-129432500D03*
%TO.C,J6*%
X155670000Y-100203000D03*
%TO.C,A1*%
X156464000Y-109112500D03*
X156464000Y-129432500D03*
%TO.C,J6*%
X158210000Y-100203000D03*
%TO.C,A1*%
X159004000Y-109112500D03*
X159004000Y-129432500D03*
%TO.C,J6*%
X160750000Y-100203000D03*
%TO.C,A1*%
X161544000Y-109112500D03*
X161544000Y-129432500D03*
X164084000Y-109112500D03*
X164084000Y-129432500D03*
X166624000Y-109112500D03*
X166624000Y-129432500D03*
X169164000Y-109112500D03*
X169164000Y-129432500D03*
X171704000Y-109112500D03*
X171704000Y-129432500D03*
X176784000Y-112922500D03*
X176784000Y-115462500D03*
X176784000Y-118002500D03*
X176784000Y-125622500D03*
%TO.C,J2*%
X183896000Y-117602000D03*
X183896000Y-120142000D03*
X183896000Y-122682000D03*
X186436000Y-117602000D03*
X186436000Y-120142000D03*
X186436000Y-122682000D03*
D14*
%TO.C,J5*%
X114808000Y-81026000D03*
X114808000Y-101346000D03*
D15*
%TO.C,H1*%
X114554000Y-73914000D03*
%TO.C,H2*%
X114554000Y-129540000D03*
%TO.C,H4*%
X190754000Y-73914000D03*
%TO.C,H3*%
X190754000Y-129540000D03*
M02*
