%TF.GenerationSoftware,KiCad,Pcbnew,9.0.4*%
%TF.CreationDate,2025-11-11T21:51:19-08:00*%
%TF.ProjectId,latex-launch-2-pcb,6c617465-782d-46c6-9175-6e63682d322d,rev?*%
%TF.SameCoordinates,Original*%
%TF.FileFunction,Copper,L1,Top*%
%TF.FilePolarity,Positive*%
%FSLAX46Y46*%
G04 Gerber Fmt 4.6, Leading zero omitted, Abs format (unit mm)*
G04 Created by KiCad (PCBNEW 9.0.4) date 2025-11-11 21:51:19*
%MOMM*%
%LPD*%
G01*
G04 APERTURE LIST*
G04 Aperture macros list*
%AMRoundRect*
0 Rectangle with rounded corners*
0 $1 Rounding radius*
0 $2 $3 $4 $5 $6 $7 $8 $9 X,Y pos of 4 corners*
0 Add a 4 corners polygon primitive as box body*
4,1,4,$2,$3,$4,$5,$6,$7,$8,$9,$2,$3,0*
0 Add four circle primitives for the rounded corners*
1,1,$1+$1,$2,$3*
1,1,$1+$1,$4,$5*
1,1,$1+$1,$6,$7*
1,1,$1+$1,$8,$9*
0 Add four rect primitives between the rounded corners*
20,1,$1+$1,$2,$3,$4,$5,0*
20,1,$1+$1,$4,$5,$6,$7,0*
20,1,$1+$1,$6,$7,$8,$9,0*
20,1,$1+$1,$8,$9,$2,$3,0*%
G04 Aperture macros list end*
%TA.AperFunction,SMDPad,CuDef*%
%ADD10RoundRect,0.250001X1.449999X-0.499999X1.449999X0.499999X-1.449999X0.499999X-1.449999X-0.499999X0*%
%TD*%
%TA.AperFunction,SMDPad,CuDef*%
%ADD11RoundRect,0.250000X1.500000X-0.250000X1.500000X0.250000X-1.500000X0.250000X-1.500000X-0.250000X0*%
%TD*%
%TA.AperFunction,ComponentPad*%
%ADD12C,5.600000*%
%TD*%
%TA.AperFunction,ComponentPad*%
%ADD13O,1.500000X3.000000*%
%TD*%
%TA.AperFunction,ComponentPad*%
%ADD14C,1.600000*%
%TD*%
%TA.AperFunction,ComponentPad*%
%ADD15RoundRect,0.200000X0.450000X-0.200000X0.450000X0.200000X-0.450000X0.200000X-0.450000X-0.200000X0*%
%TD*%
%TA.AperFunction,ComponentPad*%
%ADD16O,1.300000X0.800000*%
%TD*%
%TA.AperFunction,SMDPad,CuDef*%
%ADD17RoundRect,0.250000X-1.500000X0.250000X-1.500000X-0.250000X1.500000X-0.250000X1.500000X0.250000X0*%
%TD*%
%TA.AperFunction,SMDPad,CuDef*%
%ADD18RoundRect,0.250001X-1.449999X0.499999X-1.449999X-0.499999X1.449999X-0.499999X1.449999X0.499999X0*%
%TD*%
%TA.AperFunction,ComponentPad*%
%ADD19RoundRect,0.250000X0.550000X-1.050000X0.550000X1.050000X-0.550000X1.050000X-0.550000X-1.050000X0*%
%TD*%
%TA.AperFunction,ComponentPad*%
%ADD20O,1.600000X2.600000*%
%TD*%
%TA.AperFunction,ComponentPad*%
%ADD21O,2.600000X1.600000*%
%TD*%
%TA.AperFunction,ComponentPad*%
%ADD22R,1.700000X1.700000*%
%TD*%
%TA.AperFunction,ComponentPad*%
%ADD23C,1.700000*%
%TD*%
%TA.AperFunction,ComponentPad*%
%ADD24R,1.508000X1.508000*%
%TD*%
%TA.AperFunction,ComponentPad*%
%ADD25C,1.508000*%
%TD*%
%TA.AperFunction,ComponentPad*%
%ADD26C,3.516000*%
%TD*%
%TA.AperFunction,ViaPad*%
%ADD27C,0.600000*%
%TD*%
%TA.AperFunction,Conductor*%
%ADD28C,0.400000*%
%TD*%
G04 APERTURE END LIST*
D10*
%TO.P,J3,MP*%
%TO.N,N/C*%
X186034000Y-83518000D03*
X186034000Y-90218000D03*
D11*
%TO.P,J3,2,Pin_2*%
%TO.N,GND*%
X180284000Y-85868000D03*
%TO.P,J3,1,Pin_1*%
%TO.N,+BATT*%
X180284000Y-87868000D03*
%TD*%
D12*
%TO.P,H1,1*%
%TO.N,N/C*%
X114554000Y-73914000D03*
%TD*%
%TO.P,H4,1*%
%TO.N,N/C*%
X190754000Y-73914000D03*
%TD*%
%TO.P,H3,1*%
%TO.N,N/C*%
X190754000Y-129540000D03*
%TD*%
%TO.P,H2,1*%
%TO.N,N/C*%
X114554000Y-129540000D03*
%TD*%
D13*
%TO.P,J6,8,Pin_8*%
%TO.N,unconnected-(J6-Pin_8-Pad8)*%
X160750000Y-100203000D03*
%TO.P,J6,7,Pin_7*%
%TO.N,unconnected-(J6-Pin_7-Pad7)*%
X158210000Y-100203000D03*
%TO.P,J6,6,Pin_6*%
%TO.N,unconnected-(J6-Pin_6-Pad6)*%
X155670000Y-100203000D03*
%TO.P,J6,5,Pin_5*%
%TO.N,unconnected-(J6-Pin_5-Pad5)*%
X153130000Y-100203000D03*
%TO.P,J6,4,Pin_4*%
%TO.N,/I2C_SDA*%
X150590000Y-100203000D03*
%TO.P,J6,3,Pin_3*%
%TO.N,/I2C_SCL*%
X148050000Y-100203000D03*
%TO.P,J6,2,Pin_2*%
%TO.N,GND*%
X145510000Y-100203000D03*
%TO.P,J6,1,Pin_1*%
%TO.N,+BATT*%
X142970000Y-100203000D03*
%TD*%
D14*
%TO.P,R1,1*%
%TO.N,+3V3*%
X174244000Y-96012000D03*
%TO.P,R1,2*%
%TO.N,/I2C_SDA*%
X174244000Y-106172000D03*
%TD*%
D15*
%TO.P,J1,1,Pin_1*%
%TO.N,/Rx_RockBLOCK*%
X186637000Y-109765000D03*
D16*
%TO.P,J1,2,Pin_2*%
%TO.N,unconnected-(J1-Pin_2-Pad2)*%
X186637000Y-108515000D03*
%TO.P,J1,3,Pin_3*%
%TO.N,unconnected-(J1-Pin_3-Pad3)*%
X186637000Y-107265000D03*
%TO.P,J1,4,Pin_4*%
%TO.N,unconnected-(J1-Pin_4-Pad4)*%
X186637000Y-106015000D03*
%TO.P,J1,5,Pin_5*%
%TO.N,unconnected-(J1-Pin_5-Pad5)*%
X186637000Y-104765000D03*
%TO.P,J1,6,Pin_6*%
%TO.N,/Tx_RockBLOCK*%
X186637000Y-103515000D03*
%TO.P,J1,7,Pin_7*%
%TO.N,unconnected-(J1-Pin_7-Pad7)*%
X186637000Y-102265000D03*
%TO.P,J1,8,Pin_8*%
%TO.N,+BATT*%
X186637000Y-101015000D03*
%TO.P,J1,9,Pin_9*%
%TO.N,unconnected-(J1-Pin_9-Pad9)*%
X186637000Y-99765000D03*
%TO.P,J1,10,Pin_10*%
%TO.N,GND*%
X186637000Y-98515000D03*
%TD*%
D14*
%TO.P,R2,1*%
%TO.N,/I2C_SCL*%
X169164000Y-106172000D03*
%TO.P,R2,2*%
%TO.N,+3V3*%
X169164000Y-96012000D03*
%TD*%
D17*
%TO.P,J4,1,Pin_1*%
%TO.N,GND*%
X120050000Y-112300000D03*
%TO.P,J4,2,Pin_2*%
%TO.N,+BATT*%
X120050000Y-114300000D03*
%TO.P,J4,3,Pin_3*%
%TO.N,/I2C_SCL*%
X120050000Y-116300000D03*
%TO.P,J4,4,Pin_4*%
%TO.N,/I2C_SDA*%
X120050000Y-118300000D03*
D18*
%TO.P,J4,MP*%
%TO.N,N/C*%
X114300000Y-109950000D03*
X114300000Y-120650000D03*
%TD*%
D14*
%TO.P,C1,1*%
%TO.N,+BATT*%
X148804000Y-105664000D03*
%TO.P,C1,2*%
%TO.N,GND*%
X143804000Y-105664000D03*
%TD*%
D19*
%TO.P,A1,1,~{RESET}*%
%TO.N,unconnected-(A1-~{RESET}-Pad1)*%
X133604000Y-129132500D03*
D20*
%TO.P,A1,2,3V3*%
%TO.N,+3V3*%
X136144000Y-129132500D03*
%TO.P,A1,3,AREF*%
%TO.N,unconnected-(A1-AREF-Pad3)*%
X138684000Y-129132500D03*
%TO.P,A1,4,GND*%
%TO.N,GND*%
X141224000Y-129132500D03*
%TO.P,A1,5,DAC0/A0*%
%TO.N,unconnected-(A1-DAC0{slash}A0-Pad5)*%
X143764000Y-129132500D03*
%TO.P,A1,6,A1*%
%TO.N,unconnected-(A1-A1-Pad6)*%
X146304000Y-129132500D03*
%TO.P,A1,7,A2*%
%TO.N,unconnected-(A1-A2-Pad7)*%
X148844000Y-129132500D03*
%TO.P,A1,8,A3*%
%TO.N,unconnected-(A1-A3-Pad8)*%
X151384000Y-129132500D03*
%TO.P,A1,9,A4*%
%TO.N,unconnected-(A1-A4-Pad9)*%
X153924000Y-129132500D03*
%TO.P,A1,10,A5*%
%TO.N,unconnected-(A1-A5-Pad10)*%
X156464000Y-129132500D03*
%TO.P,A1,11,SCK/D24*%
%TO.N,/SPI_SCK*%
X159004000Y-129132500D03*
%TO.P,A1,12,MOSI/D23*%
%TO.N,/SPI_MOSI*%
X161544000Y-129132500D03*
%TO.P,A1,13,MISO/D22*%
%TO.N,/SPI_MISO*%
X164084000Y-129132500D03*
%TO.P,A1,14,RX/D0*%
%TO.N,/Rx*%
X166624000Y-129132500D03*
%TO.P,A1,15,TX/D1*%
%TO.N,/Tx*%
X169164000Y-129132500D03*
%TO.P,A1,16,DIO1*%
%TO.N,unconnected-(A1-DIO1-Pad16)*%
X171704000Y-129132500D03*
%TO.P,A1,17,SDA/D20*%
%TO.N,/I2C_SDA*%
X171704000Y-109412500D03*
%TO.P,A1,18,SCL/D21*%
%TO.N,/I2C_SCL*%
X169164000Y-109412500D03*
%TO.P,A1,19,D5*%
%TO.N,/CS_SDCard*%
X166624000Y-109412500D03*
%TO.P,A1,20,D6*%
%TO.N,unconnected-(A1-D6-Pad20)*%
X164084000Y-109412500D03*
%TO.P,A1,21,D9*%
%TO.N,unconnected-(A1-D9-Pad21)*%
X161544000Y-109412500D03*
%TO.P,A1,22,D10*%
%TO.N,unconnected-(A1-D10-Pad22)*%
X159004000Y-109412500D03*
%TO.P,A1,23,D11*%
%TO.N,unconnected-(A1-D11-Pad23)*%
X156464000Y-109412500D03*
%TO.P,A1,24,D12*%
%TO.N,unconnected-(A1-D12-Pad24)*%
X153924000Y-109412500D03*
%TO.P,A1,25,D13*%
%TO.N,unconnected-(A1-D13-Pad25)*%
X151384000Y-109412500D03*
%TO.P,A1,26,USB*%
%TO.N,+BATT*%
X148844000Y-109412500D03*
%TO.P,A1,27,EN*%
%TO.N,unconnected-(A1-EN-Pad27)*%
X146304000Y-109412500D03*
%TO.P,A1,28,VBAT*%
%TO.N,unconnected-(A1-VBAT-Pad28)*%
X143764000Y-109412500D03*
D21*
%TO.P,A1,29,ANT*%
%TO.N,unconnected-(A1-ANT-Pad29)*%
X176484000Y-125622500D03*
%TO.P,A1,30,DIO5*%
%TO.N,unconnected-(A1-DIO5-Pad30)*%
X176484000Y-118002500D03*
%TO.P,A1,31,DIO3*%
%TO.N,unconnected-(A1-DIO3-Pad31)*%
X176484000Y-115462500D03*
%TO.P,A1,32,DIO2*%
%TO.N,unconnected-(A1-DIO2-Pad32)*%
X176484000Y-112922500D03*
%TD*%
D22*
%TO.P,J2,1,Pin_1*%
%TO.N,unconnected-(J2-Pin_1-Pad1)*%
X183896000Y-122682000D03*
D23*
%TO.P,J2,2,Pin_2*%
%TO.N,unconnected-(J2-Pin_2-Pad2)*%
X186436000Y-122682000D03*
%TO.P,J2,3,Pin_3*%
%TO.N,/Rx*%
X183896000Y-120142000D03*
%TO.P,J2,4,Pin_4*%
%TO.N,/Tx*%
X186436000Y-120142000D03*
%TO.P,J2,5,Pin_5*%
%TO.N,/Rx_RockBLOCK*%
X183896000Y-117602000D03*
%TO.P,J2,6,Pin_6*%
%TO.N,/Tx_RockBLOCK*%
X186436000Y-117602000D03*
%TD*%
D24*
%TO.P,J5,1,Pin_1*%
%TO.N,+3V3*%
X132588000Y-101346000D03*
D25*
%TO.P,J5,2,Pin_2*%
%TO.N,GND*%
X132588000Y-98806000D03*
%TO.P,J5,3,Pin_3*%
%TO.N,/SPI_SCK*%
X132588000Y-96266000D03*
%TO.P,J5,4,Pin_4*%
%TO.N,/SPI_MISO*%
X132588000Y-93726000D03*
%TO.P,J5,5,Pin_5*%
%TO.N,/SPI_MOSI*%
X132588000Y-91186000D03*
%TO.P,J5,6,Pin_6*%
%TO.N,/CS_SDCard*%
X132588000Y-88646000D03*
%TO.P,J5,7,Pin_7*%
%TO.N,unconnected-(J5-Pin_7-Pad7)*%
X132588000Y-86106000D03*
%TO.P,J5,8,Pin_8*%
%TO.N,unconnected-(J5-Pin_8-Pad8)*%
X132588000Y-83566000D03*
%TO.P,J5,9,Pin_9*%
%TO.N,unconnected-(J5-Pin_9-Pad9)*%
X132588000Y-81026000D03*
D26*
%TO.P,J5,S1*%
%TO.N,N/C*%
X114808000Y-101346000D03*
%TO.P,J5,S2*%
X114808000Y-81026000D03*
%TD*%
D27*
%TO.N,/SPI_MOSI*%
X156210000Y-123952000D03*
X159004000Y-126746000D03*
X138176000Y-121412000D03*
%TO.N,/SPI_MISO*%
X136398000Y-121412000D03*
%TO.N,/SPI_SCK*%
X134620000Y-121412000D03*
%TO.N,/CS_SDCard*%
X131318000Y-116840000D03*
X131318000Y-116840000D03*
%TO.N,/I2C_SCL*%
X165100000Y-102870000D03*
%TO.N,/I2C_SDA*%
X165100000Y-100330000D03*
%TO.N,/I2C_SCL*%
X169164000Y-104394000D03*
%TO.N,/I2C_SDA*%
X174244000Y-104394000D03*
%TO.N,+BATT*%
X177800000Y-101092000D03*
%TO.N,+3V3*%
X132588000Y-113284000D03*
X132588000Y-121412000D03*
%TO.N,/I2C_SCL*%
X122428000Y-116332000D03*
%TO.N,/I2C_SDA*%
X122428000Y-118364000D03*
%TO.N,+BATT*%
X122428000Y-114300000D03*
%TD*%
D28*
%TO.N,/SPI_MOSI*%
X156210000Y-123952000D02*
X159004000Y-126746000D01*
X138176000Y-121412000D02*
X138176000Y-96774000D01*
X138176000Y-96774000D02*
X132588000Y-91186000D01*
%TO.N,/SPI_MISO*%
X136398000Y-97536000D02*
X136398000Y-121412000D01*
X132588000Y-93726000D02*
X136398000Y-97536000D01*
%TO.N,/SPI_SCK*%
X134620000Y-98298000D02*
X134620000Y-121412000D01*
X132588000Y-96266000D02*
X134620000Y-98298000D01*
%TO.N,/CS_SDCard*%
X130048000Y-115570000D02*
X130048000Y-91186000D01*
X130048000Y-91186000D02*
X132588000Y-88646000D01*
X131318000Y-116840000D02*
X130048000Y-115570000D01*
%TO.N,+3V3*%
X132588000Y-121412000D02*
X132588000Y-113284000D01*
%TO.N,/I2C_SDA*%
X170180000Y-100330000D02*
X165100000Y-100330000D01*
X174244000Y-104394000D02*
X170180000Y-100330000D01*
%TO.N,/I2C_SCL*%
X167640000Y-102870000D02*
X165100000Y-102870000D01*
X169164000Y-104394000D02*
X167640000Y-102870000D01*
%TO.N,+BATT*%
X180284000Y-98608000D02*
X177800000Y-101092000D01*
X180284000Y-87868000D02*
X180284000Y-98608000D01*
%TO.N,/I2C_SDA*%
X122364000Y-118300000D02*
X122428000Y-118364000D01*
X120050000Y-118300000D02*
X122364000Y-118300000D01*
%TO.N,/I2C_SCL*%
X122396000Y-116300000D02*
X122428000Y-116332000D01*
X120050000Y-116300000D02*
X122396000Y-116300000D01*
%TO.N,+BATT*%
X120050000Y-114300000D02*
X122428000Y-114300000D01*
%TD*%
%TA.AperFunction,Conductor*%
%TO.N,GND*%
G36*
X133634541Y-99498988D02*
G01*
X133634543Y-99498988D01*
X133660516Y-99463240D01*
X133660518Y-99463237D01*
X133685015Y-99415160D01*
X133732989Y-99364364D01*
X133800810Y-99347568D01*
X133866945Y-99370105D01*
X133910397Y-99424820D01*
X133919500Y-99471454D01*
X133919500Y-100155718D01*
X133899815Y-100222757D01*
X133847011Y-100268512D01*
X133777853Y-100278456D01*
X133714297Y-100249431D01*
X133706010Y-100240531D01*
X133705817Y-100240725D01*
X133699544Y-100234452D01*
X133584335Y-100148206D01*
X133584328Y-100148202D01*
X133449482Y-100097908D01*
X133449483Y-100097908D01*
X133389883Y-100091501D01*
X133389881Y-100091500D01*
X133389873Y-100091500D01*
X133389865Y-100091500D01*
X133333725Y-100091500D01*
X133266686Y-100071815D01*
X133220931Y-100019011D01*
X133210987Y-99949853D01*
X133240012Y-99886297D01*
X133260838Y-99867183D01*
X133280988Y-99852542D01*
X133280988Y-99852541D01*
X132717410Y-99288962D01*
X132780993Y-99271925D01*
X132895007Y-99206099D01*
X132988099Y-99113007D01*
X133053925Y-98998993D01*
X133070962Y-98935408D01*
X133634541Y-99498988D01*
G37*
%TD.AperFunction*%
%TA.AperFunction,Conductor*%
G36*
X195523039Y-68599685D02*
G01*
X195568794Y-68652489D01*
X195580000Y-68704000D01*
X195580000Y-134496000D01*
X195560315Y-134563039D01*
X195507511Y-134608794D01*
X195456000Y-134620000D01*
X109344000Y-134620000D01*
X109276961Y-134600315D01*
X109231206Y-134547511D01*
X109220000Y-134496000D01*
X109220000Y-129377857D01*
X111253500Y-129377857D01*
X111253500Y-129702143D01*
X111256722Y-129734852D01*
X111285284Y-130024857D01*
X111285287Y-130024874D01*
X111348545Y-130342902D01*
X111348548Y-130342913D01*
X111442686Y-130653247D01*
X111493205Y-130775210D01*
X111554214Y-130922499D01*
X111566786Y-130952849D01*
X111566788Y-130952854D01*
X111719646Y-131238830D01*
X111719657Y-131238848D01*
X111899811Y-131508467D01*
X111899821Y-131508481D01*
X112105546Y-131759158D01*
X112334841Y-131988453D01*
X112334846Y-131988457D01*
X112334847Y-131988458D01*
X112585524Y-132194183D01*
X112855158Y-132374347D01*
X112855167Y-132374352D01*
X112855169Y-132374353D01*
X113141145Y-132527211D01*
X113141147Y-132527211D01*
X113141153Y-132527215D01*
X113440754Y-132651314D01*
X113751077Y-132745449D01*
X113751083Y-132745450D01*
X113751086Y-132745451D01*
X113751097Y-132745454D01*
X113950528Y-132785122D01*
X114069132Y-132808714D01*
X114391857Y-132840500D01*
X114391860Y-132840500D01*
X114716140Y-132840500D01*
X114716143Y-132840500D01*
X115038868Y-132808714D01*
X115196295Y-132777399D01*
X115356902Y-132745454D01*
X115356913Y-132745451D01*
X115356913Y-132745450D01*
X115356923Y-132745449D01*
X115667246Y-132651314D01*
X115966847Y-132527215D01*
X116252842Y-132374347D01*
X116522476Y-132194183D01*
X116773153Y-131988458D01*
X117002458Y-131759153D01*
X117208183Y-131508476D01*
X117388347Y-131238842D01*
X117541215Y-130952847D01*
X117665314Y-130653246D01*
X117759449Y-130342923D01*
X117759451Y-130342913D01*
X117759454Y-130342902D01*
X117801460Y-130131719D01*
X117822714Y-130024868D01*
X117854500Y-129702143D01*
X117854500Y-129377857D01*
X117822714Y-129055132D01*
X117798321Y-128932500D01*
X117759454Y-128737097D01*
X117759451Y-128737086D01*
X117759450Y-128737083D01*
X117759449Y-128737077D01*
X117665314Y-128426754D01*
X117541215Y-128127153D01*
X117532966Y-128111720D01*
X117520174Y-128087787D01*
X117490613Y-128032483D01*
X132303500Y-128032483D01*
X132303500Y-130232501D01*
X132303501Y-130232518D01*
X132314000Y-130335296D01*
X132314001Y-130335299D01*
X132330818Y-130386048D01*
X132369186Y-130501834D01*
X132461288Y-130651156D01*
X132585344Y-130775212D01*
X132734666Y-130867314D01*
X132901203Y-130922499D01*
X133003991Y-130933000D01*
X134204008Y-130932999D01*
X134306797Y-130922499D01*
X134473334Y-130867314D01*
X134622656Y-130775212D01*
X134746712Y-130651156D01*
X134838814Y-130501834D01*
X134865955Y-130419927D01*
X134905726Y-130362484D01*
X134970242Y-130335661D01*
X135039018Y-130347976D01*
X135083977Y-130386047D01*
X135151798Y-130479394D01*
X135152034Y-130479719D01*
X135296786Y-130624471D01*
X135451749Y-130737056D01*
X135462390Y-130744787D01*
X135578607Y-130804003D01*
X135644776Y-130837718D01*
X135644778Y-130837718D01*
X135644781Y-130837720D01*
X135735856Y-130867312D01*
X135839465Y-130900977D01*
X135940557Y-130916988D01*
X136041648Y-130933000D01*
X136041649Y-130933000D01*
X136246351Y-130933000D01*
X136246352Y-130933000D01*
X136448534Y-130900977D01*
X136643219Y-130837720D01*
X136825610Y-130744787D01*
X136951605Y-130653247D01*
X136991213Y-130624471D01*
X136991215Y-130624468D01*
X136991219Y-130624466D01*
X137135966Y-130479719D01*
X137135968Y-130479715D01*
X137135971Y-130479713D01*
X137256284Y-130314114D01*
X137256286Y-130314111D01*
X137256287Y-130314110D01*
X137303516Y-130221417D01*
X137351489Y-130170623D01*
X137419310Y-130153828D01*
X137485445Y-130176365D01*
X137524483Y-130221417D01*
X137530140Y-130232518D01*
X137571715Y-130314114D01*
X137692028Y-130479713D01*
X137836786Y-130624471D01*
X137991749Y-130737056D01*
X138002390Y-130744787D01*
X138118607Y-130804003D01*
X138184776Y-130837718D01*
X138184778Y-130837718D01*
X138184781Y-130837720D01*
X138275856Y-130867312D01*
X138379465Y-130900977D01*
X138480557Y-130916988D01*
X138581648Y-130933000D01*
X138581649Y-130933000D01*
X138786351Y-130933000D01*
X138786352Y-130933000D01*
X138988534Y-130900977D01*
X139183219Y-130837720D01*
X139365610Y-130744787D01*
X139491605Y-130653247D01*
X139531213Y-130624471D01*
X139531215Y-130624468D01*
X139531219Y-130624466D01*
X139675966Y-130479719D01*
X139675968Y-130479715D01*
X139675971Y-130479713D01*
X139796284Y-130314114D01*
X139796286Y-130314111D01*
X139796287Y-130314110D01*
X139843795Y-130220869D01*
X139891770Y-130170074D01*
X139959591Y-130153279D01*
X140025725Y-130175816D01*
X140064765Y-130220870D01*
X140112140Y-130313849D01*
X140232417Y-130479394D01*
X140232417Y-130479395D01*
X140377104Y-130624082D01*
X140542650Y-130744359D01*
X140724968Y-130837254D01*
X140919578Y-130900488D01*
X140974000Y-130909107D01*
X140974000Y-129865512D01*
X141031007Y-129898425D01*
X141158174Y-129932500D01*
X141289826Y-129932500D01*
X141416993Y-129898425D01*
X141474000Y-129865512D01*
X141474000Y-130909106D01*
X141528421Y-130900488D01*
X141723031Y-130837254D01*
X141905349Y-130744359D01*
X142070894Y-130624082D01*
X142070895Y-130624082D01*
X142215582Y-130479395D01*
X142215582Y-130479394D01*
X142335861Y-130313847D01*
X142383234Y-130220871D01*
X142431208Y-130170075D01*
X142499028Y-130153279D01*
X142565164Y-130175816D01*
X142604203Y-130220869D01*
X142651713Y-130314111D01*
X142772028Y-130479713D01*
X142916786Y-130624471D01*
X143071749Y-130737056D01*
X143082390Y-130744787D01*
X143198607Y-130804003D01*
X143264776Y-130837718D01*
X143264778Y-130837718D01*
X143264781Y-130837720D01*
X143355856Y-130867312D01*
X143459465Y-130900977D01*
X143560557Y-130916988D01*
X143661648Y-130933000D01*
X143661649Y-130933000D01*
X143866351Y-130933000D01*
X143866352Y-130933000D01*
X144068534Y-130900977D01*
X144263219Y-130837720D01*
X144445610Y-130744787D01*
X144571605Y-130653247D01*
X144611213Y-130624471D01*
X144611215Y-130624468D01*
X144611219Y-130624466D01*
X144755966Y-130479719D01*
X144755968Y-130479715D01*
X144755971Y-130479713D01*
X144876284Y-130314114D01*
X144876286Y-130314111D01*
X144876287Y-130314110D01*
X144923516Y-130221417D01*
X144971489Y-130170623D01*
X145039310Y-130153828D01*
X145105445Y-130176365D01*
X145144483Y-130221417D01*
X145150140Y-130232518D01*
X145191715Y-130314114D01*
X145312028Y-130479713D01*
X145456786Y-130624471D01*
X145611749Y-130737056D01*
X145622390Y-130744787D01*
X145738607Y-130804003D01*
X145804776Y-130837718D01*
X145804778Y-130837718D01*
X145804781Y-130837720D01*
X145895856Y-130867312D01*
X145999465Y-130900977D01*
X146100557Y-130916988D01*
X146201648Y-130933000D01*
X146201649Y-130933000D01*
X146406351Y-130933000D01*
X146406352Y-130933000D01*
X146608534Y-130900977D01*
X146803219Y-130837720D01*
X146985610Y-130744787D01*
X147111605Y-130653247D01*
X147151213Y-130624471D01*
X147151215Y-130624468D01*
X147151219Y-130624466D01*
X147295966Y-130479719D01*
X147295968Y-130479715D01*
X147295971Y-130479713D01*
X147416284Y-130314114D01*
X147416286Y-130314111D01*
X147416287Y-130314110D01*
X147463516Y-130221417D01*
X147511489Y-130170623D01*
X147579310Y-130153828D01*
X147645445Y-130176365D01*
X147684483Y-130221417D01*
X147690140Y-130232518D01*
X147731715Y-130314114D01*
X147852028Y-130479713D01*
X147996786Y-130624471D01*
X148151749Y-130737056D01*
X148162390Y-130744787D01*
X148278607Y-130804003D01*
X148344776Y-130837718D01*
X148344778Y-130837718D01*
X148344781Y-130837720D01*
X148435856Y-130867312D01*
X148539465Y-130900977D01*
X148640557Y-130916988D01*
X148741648Y-130933000D01*
X148741649Y-130933000D01*
X148946351Y-130933000D01*
X148946352Y-130933000D01*
X149148534Y-130900977D01*
X149343219Y-130837720D01*
X149525610Y-130744787D01*
X149651605Y-130653247D01*
X149691213Y-130624471D01*
X149691215Y-130624468D01*
X149691219Y-130624466D01*
X149835966Y-130479719D01*
X149835968Y-130479715D01*
X149835971Y-130479713D01*
X149956284Y-130314114D01*
X149956286Y-130314111D01*
X149956287Y-130314110D01*
X150003516Y-130221417D01*
X150051489Y-130170623D01*
X150119310Y-130153828D01*
X150185445Y-130176365D01*
X150224483Y-130221417D01*
X150230140Y-130232518D01*
X150271715Y-130314114D01*
X150392028Y-130479713D01*
X150536786Y-130624471D01*
X150691749Y-130737056D01*
X150702390Y-130744787D01*
X150818607Y-130804003D01*
X150884776Y-130837718D01*
X150884778Y-130837718D01*
X150884781Y-130837720D01*
X150975856Y-130867312D01*
X151079465Y-130900977D01*
X151180557Y-130916988D01*
X151281648Y-130933000D01*
X151281649Y-130933000D01*
X151486351Y-130933000D01*
X151486352Y-130933000D01*
X151688534Y-130900977D01*
X151883219Y-130837720D01*
X152065610Y-130744787D01*
X152191605Y-130653247D01*
X152231213Y-130624471D01*
X152231215Y-130624468D01*
X152231219Y-130624466D01*
X152375966Y-130479719D01*
X152375968Y-130479715D01*
X152375971Y-130479713D01*
X152496284Y-130314114D01*
X152496286Y-130314111D01*
X152496287Y-130314110D01*
X152543516Y-130221417D01*
X152591489Y-130170623D01*
X152659310Y-130153828D01*
X152725445Y-130176365D01*
X152764483Y-130221417D01*
X152770140Y-130232518D01*
X152811715Y-130314114D01*
X152932028Y-130479713D01*
X153076786Y-130624471D01*
X153231749Y-130737056D01*
X153242390Y-130744787D01*
X153358607Y-130804003D01*
X153424776Y-130837718D01*
X153424778Y-130837718D01*
X153424781Y-130837720D01*
X153515856Y-130867312D01*
X153619465Y-130900977D01*
X153720557Y-130916988D01*
X153821648Y-130933000D01*
X153821649Y-130933000D01*
X154026351Y-130933000D01*
X154026352Y-130933000D01*
X154228534Y-130900977D01*
X154423219Y-130837720D01*
X154605610Y-130744787D01*
X154731605Y-130653247D01*
X154771213Y-130624471D01*
X154771215Y-130624468D01*
X154771219Y-130624466D01*
X154915966Y-130479719D01*
X154915968Y-130479715D01*
X154915971Y-130479713D01*
X155036284Y-130314114D01*
X155036286Y-130314111D01*
X155036287Y-130314110D01*
X155083516Y-130221417D01*
X155131489Y-130170623D01*
X155199310Y-130153828D01*
X155265445Y-130176365D01*
X155304483Y-130221417D01*
X155310140Y-130232518D01*
X155351715Y-130314114D01*
X155472028Y-130479713D01*
X155616786Y-130624471D01*
X155771749Y-130737056D01*
X155782390Y-130744787D01*
X155898607Y-130804003D01*
X155964776Y-130837718D01*
X155964778Y-130837718D01*
X155964781Y-130837720D01*
X156055856Y-130867312D01*
X156159465Y-130900977D01*
X156260557Y-130916988D01*
X156361648Y-130933000D01*
X156361649Y-130933000D01*
X156566351Y-130933000D01*
X156566352Y-130933000D01*
X156768534Y-130900977D01*
X156963219Y-130837720D01*
X157145610Y-130744787D01*
X157271605Y-130653247D01*
X157311213Y-130624471D01*
X157311215Y-130624468D01*
X157311219Y-130624466D01*
X157455966Y-130479719D01*
X157455968Y-130479715D01*
X157455971Y-130479713D01*
X157576284Y-130314114D01*
X157576286Y-130314111D01*
X157576287Y-130314110D01*
X157623516Y-130221417D01*
X157671489Y-130170623D01*
X157739310Y-130153828D01*
X157805445Y-130176365D01*
X157844483Y-130221417D01*
X157850140Y-130232518D01*
X157891715Y-130314114D01*
X158012028Y-130479713D01*
X158156786Y-130624471D01*
X158311749Y-130737056D01*
X158322390Y-130744787D01*
X158438607Y-130804003D01*
X158504776Y-130837718D01*
X158504778Y-130837718D01*
X158504781Y-130837720D01*
X158595856Y-130867312D01*
X158699465Y-130900977D01*
X158800557Y-130916988D01*
X158901648Y-130933000D01*
X158901649Y-130933000D01*
X159106351Y-130933000D01*
X159106352Y-130933000D01*
X159308534Y-130900977D01*
X159503219Y-130837720D01*
X159685610Y-130744787D01*
X159811605Y-130653247D01*
X159851213Y-130624471D01*
X159851215Y-130624468D01*
X159851219Y-130624466D01*
X159995966Y-130479719D01*
X159995968Y-130479715D01*
X159995971Y-130479713D01*
X160116284Y-130314114D01*
X160116286Y-130314111D01*
X160116287Y-130314110D01*
X160163516Y-130221417D01*
X160211489Y-130170623D01*
X160279310Y-130153828D01*
X160345445Y-130176365D01*
X160384483Y-130221417D01*
X160390140Y-130232518D01*
X160431715Y-130314114D01*
X160552028Y-130479713D01*
X160696786Y-130624471D01*
X160851749Y-130737056D01*
X160862390Y-130744787D01*
X160978607Y-130804003D01*
X161044776Y-130837718D01*
X161044778Y-130837718D01*
X161044781Y-130837720D01*
X161135856Y-130867312D01*
X161239465Y-130900977D01*
X161340557Y-130916988D01*
X161441648Y-130933000D01*
X161441649Y-130933000D01*
X161646351Y-130933000D01*
X161646352Y-130933000D01*
X161848534Y-130900977D01*
X162043219Y-130837720D01*
X162225610Y-130744787D01*
X162351605Y-130653247D01*
X162391213Y-130624471D01*
X162391215Y-130624468D01*
X162391219Y-130624466D01*
X162535966Y-130479719D01*
X162535968Y-130479715D01*
X162535971Y-130479713D01*
X162656284Y-130314114D01*
X162656286Y-130314111D01*
X162656287Y-130314110D01*
X162703516Y-130221417D01*
X162751489Y-130170623D01*
X162819310Y-130153828D01*
X162885445Y-130176365D01*
X162924483Y-130221417D01*
X162930140Y-130232518D01*
X162971715Y-130314114D01*
X163092028Y-130479713D01*
X163236786Y-130624471D01*
X163391749Y-130737056D01*
X163402390Y-130744787D01*
X163518607Y-130804003D01*
X163584776Y-130837718D01*
X163584778Y-130837718D01*
X163584781Y-130837720D01*
X163675856Y-130867312D01*
X163779465Y-130900977D01*
X163880557Y-130916988D01*
X163981648Y-130933000D01*
X163981649Y-130933000D01*
X164186351Y-130933000D01*
X164186352Y-130933000D01*
X164388534Y-130900977D01*
X164583219Y-130837720D01*
X164765610Y-130744787D01*
X164891605Y-130653247D01*
X164931213Y-130624471D01*
X164931215Y-130624468D01*
X164931219Y-130624466D01*
X165075966Y-130479719D01*
X165075968Y-130479715D01*
X165075971Y-130479713D01*
X165196284Y-130314114D01*
X165196286Y-130314111D01*
X165196287Y-130314110D01*
X165243516Y-130221417D01*
X165291489Y-130170623D01*
X165359310Y-130153828D01*
X165425445Y-130176365D01*
X165464483Y-130221417D01*
X165470140Y-130232518D01*
X165511715Y-130314114D01*
X165632028Y-130479713D01*
X165776786Y-130624471D01*
X165931749Y-130737056D01*
X165942390Y-130744787D01*
X166058607Y-130804003D01*
X166124776Y-130837718D01*
X166124778Y-130837718D01*
X166124781Y-130837720D01*
X166215856Y-130867312D01*
X166319465Y-130900977D01*
X166420557Y-130916988D01*
X166521648Y-130933000D01*
X166521649Y-130933000D01*
X166726351Y-130933000D01*
X166726352Y-130933000D01*
X166928534Y-130900977D01*
X167123219Y-130837720D01*
X167305610Y-130744787D01*
X167431605Y-130653247D01*
X167471213Y-130624471D01*
X167471215Y-130624468D01*
X167471219Y-130624466D01*
X167615966Y-130479719D01*
X167615968Y-130479715D01*
X167615971Y-130479713D01*
X167736284Y-130314114D01*
X167736286Y-130314111D01*
X167736287Y-130314110D01*
X167783516Y-130221417D01*
X167831489Y-130170623D01*
X167899310Y-130153828D01*
X167965445Y-130176365D01*
X168004483Y-130221417D01*
X168010140Y-130232518D01*
X168051715Y-130314114D01*
X168172028Y-130479713D01*
X168316786Y-130624471D01*
X168471749Y-130737056D01*
X168482390Y-130744787D01*
X168598607Y-130804003D01*
X168664776Y-130837718D01*
X168664778Y-130837718D01*
X168664781Y-130837720D01*
X168755856Y-130867312D01*
X168859465Y-130900977D01*
X168960557Y-130916988D01*
X169061648Y-130933000D01*
X169061649Y-130933000D01*
X169266351Y-130933000D01*
X169266352Y-130933000D01*
X169468534Y-130900977D01*
X169663219Y-130837720D01*
X169845610Y-130744787D01*
X169971605Y-130653247D01*
X170011213Y-130624471D01*
X170011215Y-130624468D01*
X170011219Y-130624466D01*
X170155966Y-130479719D01*
X170155968Y-130479715D01*
X170155971Y-130479713D01*
X170276284Y-130314114D01*
X170276286Y-130314111D01*
X170276287Y-130314110D01*
X170323516Y-130221417D01*
X170371489Y-130170623D01*
X170439310Y-130153828D01*
X170505445Y-130176365D01*
X170544483Y-130221417D01*
X170550140Y-130232518D01*
X170591715Y-130314114D01*
X170712028Y-130479713D01*
X170856786Y-130624471D01*
X171011749Y-130737056D01*
X171022390Y-130744787D01*
X171138607Y-130804003D01*
X171204776Y-130837718D01*
X171204778Y-130837718D01*
X171204781Y-130837720D01*
X171295856Y-130867312D01*
X171399465Y-130900977D01*
X171500557Y-130916988D01*
X171601648Y-130933000D01*
X171601649Y-130933000D01*
X171806351Y-130933000D01*
X171806352Y-130933000D01*
X172008534Y-130900977D01*
X172203219Y-130837720D01*
X172385610Y-130744787D01*
X172511605Y-130653247D01*
X172551213Y-130624471D01*
X172551215Y-130624468D01*
X172551219Y-130624466D01*
X172695966Y-130479719D01*
X172695968Y-130479715D01*
X172695971Y-130479713D01*
X172764021Y-130386048D01*
X172816287Y-130314110D01*
X172909220Y-130131719D01*
X172972477Y-129937034D01*
X173004500Y-129734852D01*
X173004500Y-129377857D01*
X187453500Y-129377857D01*
X187453500Y-129702143D01*
X187456722Y-129734852D01*
X187485284Y-130024857D01*
X187485287Y-130024874D01*
X187548545Y-130342902D01*
X187548548Y-130342913D01*
X187642686Y-130653247D01*
X187693205Y-130775210D01*
X187754214Y-130922499D01*
X187766786Y-130952849D01*
X187766788Y-130952854D01*
X187919646Y-131238830D01*
X187919657Y-131238848D01*
X188099811Y-131508467D01*
X188099821Y-131508481D01*
X188305546Y-131759158D01*
X188534841Y-131988453D01*
X188534846Y-131988457D01*
X188534847Y-131988458D01*
X188785524Y-132194183D01*
X189055158Y-132374347D01*
X189055167Y-132374352D01*
X189055169Y-132374353D01*
X189341145Y-132527211D01*
X189341147Y-132527211D01*
X189341153Y-132527215D01*
X189640754Y-132651314D01*
X189951077Y-132745449D01*
X189951083Y-132745450D01*
X189951086Y-132745451D01*
X189951097Y-132745454D01*
X190150528Y-132785122D01*
X190269132Y-132808714D01*
X190591857Y-132840500D01*
X190591860Y-132840500D01*
X190916140Y-132840500D01*
X190916143Y-132840500D01*
X191238868Y-132808714D01*
X191396295Y-132777399D01*
X191556902Y-132745454D01*
X191556913Y-132745451D01*
X191556913Y-132745450D01*
X191556923Y-132745449D01*
X191867246Y-132651314D01*
X192166847Y-132527215D01*
X192452842Y-132374347D01*
X192722476Y-132194183D01*
X192973153Y-131988458D01*
X193202458Y-131759153D01*
X193408183Y-131508476D01*
X193588347Y-131238842D01*
X193741215Y-130952847D01*
X193865314Y-130653246D01*
X193959449Y-130342923D01*
X193959451Y-130342913D01*
X193959454Y-130342902D01*
X194001460Y-130131719D01*
X194022714Y-130024868D01*
X194054500Y-129702143D01*
X194054500Y-129377857D01*
X194022714Y-129055132D01*
X193998321Y-128932500D01*
X193959454Y-128737097D01*
X193959451Y-128737086D01*
X193959450Y-128737083D01*
X193959449Y-128737077D01*
X193865314Y-128426754D01*
X193741215Y-128127153D01*
X193732672Y-128111171D01*
X193588353Y-127841169D01*
X193588352Y-127841167D01*
X193588347Y-127841158D01*
X193408183Y-127571524D01*
X193202458Y-127320847D01*
X193202457Y-127320846D01*
X193202453Y-127320841D01*
X192973158Y-127091546D01*
X192722481Y-126885821D01*
X192722480Y-126885820D01*
X192722476Y-126885817D01*
X192452842Y-126705653D01*
X192452837Y-126705650D01*
X192452830Y-126705646D01*
X192166854Y-126552788D01*
X192166849Y-126552786D01*
X191867247Y-126428686D01*
X191556913Y-126334548D01*
X191556902Y-126334545D01*
X191238874Y-126271287D01*
X191238857Y-126271284D01*
X190994812Y-126247248D01*
X190916143Y-126239500D01*
X190591857Y-126239500D01*
X190519099Y-126246666D01*
X190269142Y-126271284D01*
X190269125Y-126271287D01*
X189951097Y-126334545D01*
X189951086Y-126334548D01*
X189640752Y-126428686D01*
X189341150Y-126552786D01*
X189341145Y-126552788D01*
X189055169Y-126705646D01*
X189055151Y-126705657D01*
X188785532Y-126885811D01*
X188785518Y-126885821D01*
X188534841Y-127091546D01*
X188305546Y-127320841D01*
X188099821Y-127571518D01*
X188099811Y-127571532D01*
X187919657Y-127841151D01*
X187919646Y-127841169D01*
X187766788Y-128127145D01*
X187766786Y-128127150D01*
X187642686Y-128426752D01*
X187548548Y-128737086D01*
X187548545Y-128737097D01*
X187485287Y-129055125D01*
X187485284Y-129055142D01*
X187467126Y-129239507D01*
X187453500Y-129377857D01*
X173004500Y-129377857D01*
X173004500Y-128530148D01*
X172972477Y-128327966D01*
X172909220Y-128133281D01*
X172909218Y-128133278D01*
X172909218Y-128133276D01*
X172857865Y-128032491D01*
X172816287Y-127950890D01*
X172764021Y-127878951D01*
X172695971Y-127785286D01*
X172551213Y-127640528D01*
X172385613Y-127520215D01*
X172385612Y-127520214D01*
X172385610Y-127520213D01*
X172323209Y-127488418D01*
X172203223Y-127427281D01*
X172008534Y-127364022D01*
X171833995Y-127336378D01*
X171806352Y-127332000D01*
X171601648Y-127332000D01*
X171577329Y-127335851D01*
X171399465Y-127364022D01*
X171204776Y-127427281D01*
X171022386Y-127520215D01*
X170856786Y-127640528D01*
X170712028Y-127785286D01*
X170591715Y-127950886D01*
X170544485Y-128043580D01*
X170496510Y-128094376D01*
X170428689Y-128111171D01*
X170362554Y-128088634D01*
X170323515Y-128043580D01*
X170276419Y-127951150D01*
X170276287Y-127950890D01*
X170224021Y-127878951D01*
X170155971Y-127785286D01*
X170011213Y-127640528D01*
X169845613Y-127520215D01*
X169845612Y-127520214D01*
X169845610Y-127520213D01*
X169783209Y-127488418D01*
X169663223Y-127427281D01*
X169468534Y-127364022D01*
X169293995Y-127336378D01*
X169266352Y-127332000D01*
X169061648Y-127332000D01*
X169037329Y-127335851D01*
X168859465Y-127364022D01*
X168664776Y-127427281D01*
X168482386Y-127520215D01*
X168316786Y-127640528D01*
X168172028Y-127785286D01*
X168051715Y-127950886D01*
X168004485Y-128043580D01*
X167956510Y-128094376D01*
X167888689Y-128111171D01*
X167822554Y-128088634D01*
X167783515Y-128043580D01*
X167736419Y-127951150D01*
X167736287Y-127950890D01*
X167684021Y-127878951D01*
X167615971Y-127785286D01*
X167471213Y-127640528D01*
X167305613Y-127520215D01*
X167305612Y-127520214D01*
X167305610Y-127520213D01*
X167243209Y-127488418D01*
X167123223Y-127427281D01*
X166928534Y-127364022D01*
X166753995Y-127336378D01*
X166726352Y-127332000D01*
X166521648Y-127332000D01*
X166497329Y-127335851D01*
X166319465Y-127364022D01*
X166124776Y-127427281D01*
X165942386Y-127520215D01*
X165776786Y-127640528D01*
X165632028Y-127785286D01*
X165511715Y-127950886D01*
X165464485Y-128043580D01*
X165416510Y-128094376D01*
X165348689Y-128111171D01*
X165282554Y-128088634D01*
X165243515Y-128043580D01*
X165196419Y-127951150D01*
X165196287Y-127950890D01*
X165144021Y-127878951D01*
X165075971Y-127785286D01*
X164931213Y-127640528D01*
X164765613Y-127520215D01*
X164765612Y-127520214D01*
X164765610Y-127520213D01*
X164703209Y-127488418D01*
X164583223Y-127427281D01*
X164388534Y-127364022D01*
X164213995Y-127336378D01*
X164186352Y-127332000D01*
X163981648Y-127332000D01*
X163957329Y-127335851D01*
X163779465Y-127364022D01*
X163584776Y-127427281D01*
X163402386Y-127520215D01*
X163236786Y-127640528D01*
X163092028Y-127785286D01*
X162971715Y-127950886D01*
X162924485Y-128043580D01*
X162876510Y-128094376D01*
X162808689Y-128111171D01*
X162742554Y-128088634D01*
X162703515Y-128043580D01*
X162656419Y-127951150D01*
X162656287Y-127950890D01*
X162604021Y-127878951D01*
X162535971Y-127785286D01*
X162391213Y-127640528D01*
X162225613Y-127520215D01*
X162225612Y-127520214D01*
X162225610Y-127520213D01*
X162163209Y-127488418D01*
X162043223Y-127427281D01*
X161848534Y-127364022D01*
X161673995Y-127336378D01*
X161646352Y-127332000D01*
X161441648Y-127332000D01*
X161417329Y-127335851D01*
X161239465Y-127364022D01*
X161044776Y-127427281D01*
X160862386Y-127520215D01*
X160696786Y-127640528D01*
X160552028Y-127785286D01*
X160431715Y-127950886D01*
X160384485Y-128043580D01*
X160336510Y-128094376D01*
X160268689Y-128111171D01*
X160202554Y-128088634D01*
X160163515Y-128043580D01*
X160116419Y-127951150D01*
X160116287Y-127950890D01*
X160064021Y-127878951D01*
X159995971Y-127785286D01*
X159851213Y-127640528D01*
X159685613Y-127520215D01*
X159685612Y-127520214D01*
X159685610Y-127520213D01*
X159623211Y-127488419D01*
X159572415Y-127440444D01*
X159555620Y-127372623D01*
X159578158Y-127306488D01*
X159591826Y-127290252D01*
X159625786Y-127256292D01*
X159625789Y-127256289D01*
X159713394Y-127125179D01*
X159773737Y-126979497D01*
X159804500Y-126824842D01*
X159804500Y-126667158D01*
X159804500Y-126667155D01*
X159804499Y-126667153D01*
X159781750Y-126552786D01*
X159773737Y-126512503D01*
X159773735Y-126512498D01*
X159713397Y-126366827D01*
X159713390Y-126366814D01*
X159625789Y-126235711D01*
X159625786Y-126235707D01*
X159514292Y-126124213D01*
X159514288Y-126124210D01*
X159383185Y-126036609D01*
X159383172Y-126036602D01*
X159238814Y-125976808D01*
X159198585Y-125949928D01*
X158768805Y-125520148D01*
X174683500Y-125520148D01*
X174683500Y-125724851D01*
X174715522Y-125927034D01*
X174778781Y-126121723D01*
X174842691Y-126247153D01*
X174854988Y-126271286D01*
X174871715Y-126304113D01*
X174992028Y-126469713D01*
X175136786Y-126614471D01*
X175291749Y-126727056D01*
X175302390Y-126734787D01*
X175418607Y-126794003D01*
X175484776Y-126827718D01*
X175484778Y-126827718D01*
X175484781Y-126827720D01*
X175589137Y-126861627D01*
X175679465Y-126890977D01*
X175780557Y-126906988D01*
X175881648Y-126923000D01*
X175881649Y-126923000D01*
X177086351Y-126923000D01*
X177086352Y-126923000D01*
X177288534Y-126890977D01*
X177483219Y-126827720D01*
X177665610Y-126734787D01*
X177758701Y-126667153D01*
X177831213Y-126614471D01*
X177831215Y-126614468D01*
X177831219Y-126614466D01*
X177975966Y-126469719D01*
X177975968Y-126469715D01*
X177975971Y-126469713D01*
X178074170Y-126334551D01*
X178096287Y-126304110D01*
X178189220Y-126121719D01*
X178252477Y-125927034D01*
X178284500Y-125724852D01*
X178284500Y-125520148D01*
X178252477Y-125317966D01*
X178189220Y-125123281D01*
X178189218Y-125123278D01*
X178189218Y-125123276D01*
X178155503Y-125057107D01*
X178096287Y-124940890D01*
X178088556Y-124930249D01*
X177975971Y-124775286D01*
X177831213Y-124630528D01*
X177665613Y-124510215D01*
X177665612Y-124510214D01*
X177665610Y-124510213D01*
X177571560Y-124462292D01*
X177483223Y-124417281D01*
X177288534Y-124354022D01*
X177113995Y-124326378D01*
X177086352Y-124322000D01*
X175881648Y-124322000D01*
X175857329Y-124325851D01*
X175679465Y-124354022D01*
X175484776Y-124417281D01*
X175302386Y-124510215D01*
X175136786Y-124630528D01*
X174992028Y-124775286D01*
X174871715Y-124940886D01*
X174778781Y-125123276D01*
X174715522Y-125317965D01*
X174683500Y-125520148D01*
X158768805Y-125520148D01*
X157006071Y-123757414D01*
X156979191Y-123717185D01*
X156977088Y-123712109D01*
X156971971Y-123699754D01*
X156919397Y-123572827D01*
X156919390Y-123572814D01*
X156831789Y-123441711D01*
X156831786Y-123441707D01*
X156720292Y-123330213D01*
X156720288Y-123330210D01*
X156589185Y-123242609D01*
X156589172Y-123242602D01*
X156443501Y-123182264D01*
X156443489Y-123182261D01*
X156288845Y-123151500D01*
X156288842Y-123151500D01*
X156131158Y-123151500D01*
X156131155Y-123151500D01*
X155976510Y-123182261D01*
X155976498Y-123182264D01*
X155830827Y-123242602D01*
X155830814Y-123242609D01*
X155699711Y-123330210D01*
X155699707Y-123330213D01*
X155588213Y-123441707D01*
X155588210Y-123441711D01*
X155500609Y-123572814D01*
X155500602Y-123572827D01*
X155440264Y-123718498D01*
X155440261Y-123718510D01*
X155409500Y-123873153D01*
X155409500Y-124030846D01*
X155440261Y-124185489D01*
X155440264Y-124185501D01*
X155500602Y-124331172D01*
X155500609Y-124331185D01*
X155588210Y-124462288D01*
X155588213Y-124462292D01*
X155699707Y-124573786D01*
X155699711Y-124573789D01*
X155830814Y-124661390D01*
X155830827Y-124661397D01*
X155975185Y-124721191D01*
X156015414Y-124748071D01*
X158207928Y-126940585D01*
X158234808Y-126980814D01*
X158294602Y-127125172D01*
X158294609Y-127125185D01*
X158382210Y-127256288D01*
X158382213Y-127256292D01*
X158416174Y-127290253D01*
X158449659Y-127351576D01*
X158444675Y-127421268D01*
X158402803Y-127477201D01*
X158384789Y-127488418D01*
X158322388Y-127520213D01*
X158156786Y-127640528D01*
X158012028Y-127785286D01*
X157891715Y-127950886D01*
X157844485Y-128043580D01*
X157796510Y-128094376D01*
X157728689Y-128111171D01*
X157662554Y-128088634D01*
X157623515Y-128043580D01*
X157576419Y-127951150D01*
X157576287Y-127950890D01*
X157524021Y-127878951D01*
X157455971Y-127785286D01*
X157311213Y-127640528D01*
X157145613Y-127520215D01*
X157145612Y-127520214D01*
X157145610Y-127520213D01*
X157083209Y-127488418D01*
X156963223Y-127427281D01*
X156768534Y-127364022D01*
X156593995Y-127336378D01*
X156566352Y-127332000D01*
X156361648Y-127332000D01*
X156337329Y-127335851D01*
X156159465Y-127364022D01*
X155964776Y-127427281D01*
X155782386Y-127520215D01*
X155616786Y-127640528D01*
X155472028Y-127785286D01*
X155351715Y-127950886D01*
X155304485Y-128043580D01*
X155256510Y-128094376D01*
X155188689Y-128111171D01*
X155122554Y-128088634D01*
X155083515Y-128043580D01*
X155036419Y-127951150D01*
X155036287Y-127950890D01*
X154984021Y-127878951D01*
X154915971Y-127785286D01*
X154771213Y-127640528D01*
X154605613Y-127520215D01*
X154605612Y-127520214D01*
X154605610Y-127520213D01*
X154543209Y-127488418D01*
X154423223Y-127427281D01*
X154228534Y-127364022D01*
X154053995Y-127336378D01*
X154026352Y-127332000D01*
X153821648Y-127332000D01*
X153797329Y-127335851D01*
X153619465Y-127364022D01*
X153424776Y-127427281D01*
X153242386Y-127520215D01*
X153076786Y-127640528D01*
X152932028Y-127785286D01*
X152811715Y-127950886D01*
X152764485Y-128043580D01*
X152716510Y-128094376D01*
X152648689Y-128111171D01*
X152582554Y-128088634D01*
X152543515Y-128043580D01*
X152496419Y-127951150D01*
X152496287Y-127950890D01*
X152444021Y-127878951D01*
X152375971Y-127785286D01*
X152231213Y-127640528D01*
X152065613Y-127520215D01*
X152065612Y-127520214D01*
X152065610Y-127520213D01*
X152003209Y-127488418D01*
X151883223Y-127427281D01*
X151688534Y-127364022D01*
X151513995Y-127336378D01*
X151486352Y-127332000D01*
X151281648Y-127332000D01*
X151257329Y-127335851D01*
X151079465Y-127364022D01*
X150884776Y-127427281D01*
X150702386Y-127520215D01*
X150536786Y-127640528D01*
X150392028Y-127785286D01*
X150271715Y-127950886D01*
X150224485Y-128043580D01*
X150176510Y-128094376D01*
X150108689Y-128111171D01*
X150042554Y-128088634D01*
X150003515Y-128043580D01*
X149956419Y-127951150D01*
X149956287Y-127950890D01*
X149904021Y-127878951D01*
X149835971Y-127785286D01*
X149691213Y-127640528D01*
X149525613Y-127520215D01*
X149525612Y-127520214D01*
X149525610Y-127520213D01*
X149463209Y-127488418D01*
X149343223Y-127427281D01*
X149148534Y-127364022D01*
X148973995Y-127336378D01*
X148946352Y-127332000D01*
X148741648Y-127332000D01*
X148717329Y-127335851D01*
X148539465Y-127364022D01*
X148344776Y-127427281D01*
X148162386Y-127520215D01*
X147996786Y-127640528D01*
X147852028Y-127785286D01*
X147731715Y-127950886D01*
X147684485Y-128043580D01*
X147636510Y-128094376D01*
X147568689Y-128111171D01*
X147502554Y-128088634D01*
X147463515Y-128043580D01*
X147416419Y-127951150D01*
X147416287Y-127950890D01*
X147364021Y-127878951D01*
X147295971Y-127785286D01*
X147151213Y-127640528D01*
X146985613Y-127520215D01*
X146985612Y-127520214D01*
X146985610Y-127520213D01*
X146923209Y-127488418D01*
X146803223Y-127427281D01*
X146608534Y-127364022D01*
X146433995Y-127336378D01*
X146406352Y-127332000D01*
X146201648Y-127332000D01*
X146177329Y-127335851D01*
X145999465Y-127364022D01*
X145804776Y-127427281D01*
X145622386Y-127520215D01*
X145456786Y-127640528D01*
X145312028Y-127785286D01*
X145191715Y-127950886D01*
X145144485Y-128043580D01*
X145096510Y-128094376D01*
X145028689Y-128111171D01*
X144962554Y-128088634D01*
X144923515Y-128043580D01*
X144876419Y-127951150D01*
X144876287Y-127950890D01*
X144824021Y-127878951D01*
X144755971Y-127785286D01*
X144611213Y-127640528D01*
X144445613Y-127520215D01*
X144445612Y-127520214D01*
X144445610Y-127520213D01*
X144383209Y-127488418D01*
X144263223Y-127427281D01*
X144068534Y-127364022D01*
X143893995Y-127336378D01*
X143866352Y-127332000D01*
X143661648Y-127332000D01*
X143637329Y-127335851D01*
X143459465Y-127364022D01*
X143264776Y-127427281D01*
X143082386Y-127520215D01*
X142916786Y-127640528D01*
X142772028Y-127785286D01*
X142651713Y-127950888D01*
X142604203Y-128044130D01*
X142556228Y-128094926D01*
X142488407Y-128111720D01*
X142422272Y-128089182D01*
X142383234Y-128044128D01*
X142335861Y-127951152D01*
X142215582Y-127785605D01*
X142215582Y-127785604D01*
X142070895Y-127640917D01*
X141905349Y-127520640D01*
X141723029Y-127427744D01*
X141528413Y-127364509D01*
X141474000Y-127355890D01*
X141474000Y-128999488D01*
X141416993Y-128966575D01*
X141289826Y-128932500D01*
X141158174Y-128932500D01*
X141031007Y-128966575D01*
X140974000Y-128999488D01*
X140974000Y-127355890D01*
X140919586Y-127364509D01*
X140724970Y-127427744D01*
X140542650Y-127520640D01*
X140377105Y-127640917D01*
X140377104Y-127640917D01*
X140232417Y-127785604D01*
X140232417Y-127785605D01*
X140112140Y-127951150D01*
X140064765Y-128044129D01*
X140016790Y-128094925D01*
X139948969Y-128111720D01*
X139882834Y-128089182D01*
X139843795Y-128044129D01*
X139796419Y-127951150D01*
X139796287Y-127950890D01*
X139744021Y-127878951D01*
X139675971Y-127785286D01*
X139531213Y-127640528D01*
X139365613Y-127520215D01*
X139365612Y-127520214D01*
X139365610Y-127520213D01*
X139303209Y-127488418D01*
X139183223Y-127427281D01*
X138988534Y-127364022D01*
X138813995Y-127336378D01*
X138786352Y-127332000D01*
X138581648Y-127332000D01*
X138557329Y-127335851D01*
X138379465Y-127364022D01*
X138184776Y-127427281D01*
X138002386Y-127520215D01*
X137836786Y-127640528D01*
X137692028Y-127785286D01*
X137571715Y-127950886D01*
X137524485Y-128043580D01*
X137476510Y-128094376D01*
X137408689Y-128111171D01*
X137342554Y-128088634D01*
X137303515Y-128043580D01*
X137256419Y-127951150D01*
X137256287Y-127950890D01*
X137204021Y-127878951D01*
X137135971Y-127785286D01*
X136991213Y-127640528D01*
X136825613Y-127520215D01*
X136825612Y-127520214D01*
X136825610Y-127520213D01*
X136763209Y-127488418D01*
X136643223Y-127427281D01*
X136448534Y-127364022D01*
X136273995Y-127336378D01*
X136246352Y-127332000D01*
X136041648Y-127332000D01*
X136017329Y-127335851D01*
X135839465Y-127364022D01*
X135644776Y-127427281D01*
X135462386Y-127520215D01*
X135296786Y-127640528D01*
X135152032Y-127785282D01*
X135152028Y-127785287D01*
X135083978Y-127878951D01*
X135028648Y-127921617D01*
X134959035Y-127927596D01*
X134897240Y-127894990D01*
X134865954Y-127845070D01*
X134838814Y-127763166D01*
X134746712Y-127613844D01*
X134622656Y-127489788D01*
X134511567Y-127421268D01*
X134473336Y-127397687D01*
X134473331Y-127397685D01*
X134471862Y-127397198D01*
X134306797Y-127342501D01*
X134306795Y-127342500D01*
X134204010Y-127332000D01*
X133003998Y-127332000D01*
X133003981Y-127332001D01*
X132901203Y-127342500D01*
X132901200Y-127342501D01*
X132734668Y-127397685D01*
X132734663Y-127397687D01*
X132585342Y-127489789D01*
X132461289Y-127613842D01*
X132369187Y-127763163D01*
X132369186Y-127763166D01*
X132314001Y-127929703D01*
X132314001Y-127929704D01*
X132314000Y-127929704D01*
X132303500Y-128032483D01*
X117490613Y-128032483D01*
X117388353Y-127841169D01*
X117388352Y-127841167D01*
X117388347Y-127841158D01*
X117208183Y-127571524D01*
X117002458Y-127320847D01*
X117002457Y-127320846D01*
X117002453Y-127320841D01*
X116773158Y-127091546D01*
X116522481Y-126885821D01*
X116522480Y-126885820D01*
X116522476Y-126885817D01*
X116252842Y-126705653D01*
X116252837Y-126705650D01*
X116252830Y-126705646D01*
X115966854Y-126552788D01*
X115966849Y-126552786D01*
X115667247Y-126428686D01*
X115356913Y-126334548D01*
X115356902Y-126334545D01*
X115038874Y-126271287D01*
X115038857Y-126271284D01*
X114794812Y-126247248D01*
X114716143Y-126239500D01*
X114391857Y-126239500D01*
X114319099Y-126246666D01*
X114069142Y-126271284D01*
X114069125Y-126271287D01*
X113751097Y-126334545D01*
X113751086Y-126334548D01*
X113440752Y-126428686D01*
X113141150Y-126552786D01*
X113141145Y-126552788D01*
X112855169Y-126705646D01*
X112855151Y-126705657D01*
X112585532Y-126885811D01*
X112585518Y-126885821D01*
X112334841Y-127091546D01*
X112105546Y-127320841D01*
X111899821Y-127571518D01*
X111899811Y-127571532D01*
X111719657Y-127841151D01*
X111719646Y-127841169D01*
X111566788Y-128127145D01*
X111566786Y-128127150D01*
X111442686Y-128426752D01*
X111348548Y-128737086D01*
X111348545Y-128737097D01*
X111285287Y-129055125D01*
X111285284Y-129055142D01*
X111267126Y-129239507D01*
X111253500Y-129377857D01*
X109220000Y-129377857D01*
X109220000Y-120099984D01*
X112099500Y-120099984D01*
X112099500Y-121200015D01*
X112110000Y-121302795D01*
X112110001Y-121302796D01*
X112165186Y-121469335D01*
X112165187Y-121469337D01*
X112257286Y-121618651D01*
X112257289Y-121618655D01*
X112381344Y-121742710D01*
X112381348Y-121742713D01*
X112530662Y-121834812D01*
X112530664Y-121834813D01*
X112530666Y-121834814D01*
X112697203Y-121889999D01*
X112799992Y-121900500D01*
X112799997Y-121900500D01*
X115800003Y-121900500D01*
X115800008Y-121900500D01*
X115902797Y-121889999D01*
X116069334Y-121834814D01*
X116218655Y-121742711D01*
X116342711Y-121618655D01*
X116434814Y-121469334D01*
X116489999Y-121302797D01*
X116500500Y-121200008D01*
X116500500Y-120099992D01*
X116489999Y-119997203D01*
X116434814Y-119830666D01*
X116431786Y-119825757D01*
X116342713Y-119681348D01*
X116342710Y-119681344D01*
X116218655Y-119557289D01*
X116218651Y-119557286D01*
X116069337Y-119465187D01*
X116069335Y-119465186D01*
X115975761Y-119434179D01*
X115902797Y-119410001D01*
X115902795Y-119410000D01*
X115800015Y-119399500D01*
X115800008Y-119399500D01*
X112799992Y-119399500D01*
X112799984Y-119399500D01*
X112697204Y-119410000D01*
X112697203Y-119410001D01*
X112530664Y-119465186D01*
X112530662Y-119465187D01*
X112381348Y-119557286D01*
X112381344Y-119557289D01*
X112257289Y-119681344D01*
X112257286Y-119681348D01*
X112165187Y-119830662D01*
X112165186Y-119830664D01*
X112110001Y-119997203D01*
X112110000Y-119997204D01*
X112099500Y-120099984D01*
X109220000Y-120099984D01*
X109220000Y-113999983D01*
X117799500Y-113999983D01*
X117799500Y-114600001D01*
X117799501Y-114600019D01*
X117810000Y-114702796D01*
X117810001Y-114702799D01*
X117845620Y-114810288D01*
X117865186Y-114869334D01*
X117957288Y-115018656D01*
X118081344Y-115142712D01*
X118165243Y-115194461D01*
X118211967Y-115246409D01*
X118223190Y-115315372D01*
X118195346Y-115379454D01*
X118165243Y-115405539D01*
X118081342Y-115457289D01*
X117957289Y-115581342D01*
X117865187Y-115730663D01*
X117865186Y-115730666D01*
X117810001Y-115897203D01*
X117810001Y-115897204D01*
X117810000Y-115897204D01*
X117799500Y-115999983D01*
X117799500Y-116600001D01*
X117799501Y-116600019D01*
X117810000Y-116702796D01*
X117810001Y-116702799D01*
X117865185Y-116869331D01*
X117865187Y-116869336D01*
X117885918Y-116902946D01*
X117957288Y-117018656D01*
X118081344Y-117142712D01*
X118165243Y-117194461D01*
X118211967Y-117246409D01*
X118223190Y-117315372D01*
X118195346Y-117379454D01*
X118165243Y-117405539D01*
X118081342Y-117457289D01*
X117957289Y-117581342D01*
X117865187Y-117730663D01*
X117865185Y-117730668D01*
X117837349Y-117814670D01*
X117810001Y-117897203D01*
X117810001Y-117897204D01*
X117810000Y-117897204D01*
X117799500Y-117999983D01*
X117799500Y-118600001D01*
X117799501Y-118600019D01*
X117810000Y-118702796D01*
X117810001Y-118702799D01*
X117865185Y-118869331D01*
X117865187Y-118869336D01*
X117868242Y-118874289D01*
X117957288Y-119018656D01*
X118081344Y-119142712D01*
X118230666Y-119234814D01*
X118397203Y-119289999D01*
X118499991Y-119300500D01*
X121600008Y-119300499D01*
X121702797Y-119289999D01*
X121869334Y-119234814D01*
X122018656Y-119142712D01*
X122018661Y-119142707D01*
X122024324Y-119138231D01*
X122025275Y-119139434D01*
X122079229Y-119109966D01*
X122148921Y-119114942D01*
X122153042Y-119116563D01*
X122194503Y-119133737D01*
X122349153Y-119164499D01*
X122349156Y-119164500D01*
X122349158Y-119164500D01*
X122506844Y-119164500D01*
X122506845Y-119164499D01*
X122661497Y-119133737D01*
X122807179Y-119073394D01*
X122938289Y-118985789D01*
X123049789Y-118874289D01*
X123137394Y-118743179D01*
X123197737Y-118597497D01*
X123228500Y-118442842D01*
X123228500Y-118285158D01*
X123228500Y-118285155D01*
X123228499Y-118285153D01*
X123197738Y-118130510D01*
X123197737Y-118130503D01*
X123143678Y-117999991D01*
X123137397Y-117984827D01*
X123137390Y-117984814D01*
X123049789Y-117853711D01*
X123049786Y-117853707D01*
X122938292Y-117742213D01*
X122938288Y-117742210D01*
X122807185Y-117654609D01*
X122807172Y-117654602D01*
X122661501Y-117594264D01*
X122661489Y-117594261D01*
X122506845Y-117563500D01*
X122506842Y-117563500D01*
X122349158Y-117563500D01*
X122349155Y-117563500D01*
X122227086Y-117587781D01*
X122157495Y-117581554D01*
X122115214Y-117553846D01*
X122090526Y-117529158D01*
X122018656Y-117457288D01*
X121934756Y-117405538D01*
X121912572Y-117380874D01*
X121889662Y-117356867D01*
X121889301Y-117355002D01*
X121888032Y-117353591D01*
X121882702Y-117320842D01*
X121876409Y-117288266D01*
X121877113Y-117286502D01*
X121876809Y-117284629D01*
X121890031Y-117254197D01*
X121902350Y-117223390D01*
X121904093Y-117221833D01*
X121904653Y-117220546D01*
X121927883Y-117199023D01*
X121931240Y-117196630D01*
X122018656Y-117142712D01*
X122047850Y-117113516D01*
X122056259Y-117107524D01*
X122079904Y-117099329D01*
X122101869Y-117087335D01*
X122112349Y-117088084D01*
X122122276Y-117084644D01*
X122146597Y-117090533D01*
X122171560Y-117092318D01*
X122175634Y-117093921D01*
X122194503Y-117101737D01*
X122194507Y-117101737D01*
X122194511Y-117101739D01*
X122349153Y-117132499D01*
X122349156Y-117132500D01*
X122349158Y-117132500D01*
X122506844Y-117132500D01*
X122506845Y-117132499D01*
X122661497Y-117101737D01*
X122807179Y-117041394D01*
X122938289Y-116953789D01*
X123049789Y-116842289D01*
X123137394Y-116711179D01*
X123197737Y-116565497D01*
X123228500Y-116410842D01*
X123228500Y-116253158D01*
X123228500Y-116253155D01*
X123228499Y-116253153D01*
X123228170Y-116251500D01*
X123197737Y-116098503D01*
X123184746Y-116067140D01*
X123137397Y-115952827D01*
X123137390Y-115952814D01*
X123049789Y-115821711D01*
X123049786Y-115821707D01*
X122938292Y-115710213D01*
X122938288Y-115710210D01*
X122831710Y-115638996D01*
X129347499Y-115638996D01*
X129374418Y-115774322D01*
X129374421Y-115774332D01*
X129427222Y-115901807D01*
X129503887Y-116016545D01*
X129503888Y-116016546D01*
X130521928Y-117034585D01*
X130548808Y-117074814D01*
X130608602Y-117219172D01*
X130608609Y-117219185D01*
X130696210Y-117350288D01*
X130696213Y-117350292D01*
X130807707Y-117461786D01*
X130807711Y-117461789D01*
X130938814Y-117549390D01*
X130938827Y-117549397D01*
X131084498Y-117609735D01*
X131084503Y-117609737D01*
X131239153Y-117640499D01*
X131239156Y-117640500D01*
X131239158Y-117640500D01*
X131396844Y-117640500D01*
X131396845Y-117640499D01*
X131551497Y-117609737D01*
X131697179Y-117549394D01*
X131697184Y-117549390D01*
X131702554Y-117546521D01*
X131703519Y-117548327D01*
X131761256Y-117530233D01*
X131828641Y-117548701D01*
X131875344Y-117600669D01*
X131887500Y-117654213D01*
X131887500Y-120986684D01*
X131878061Y-121034136D01*
X131818264Y-121178498D01*
X131818261Y-121178510D01*
X131787500Y-121333153D01*
X131787500Y-121490846D01*
X131818261Y-121645489D01*
X131818264Y-121645501D01*
X131878602Y-121791172D01*
X131878609Y-121791185D01*
X131966210Y-121922288D01*
X131966213Y-121922292D01*
X132077707Y-122033786D01*
X132077711Y-122033789D01*
X132208814Y-122121390D01*
X132208827Y-122121397D01*
X132310687Y-122163588D01*
X132354503Y-122181737D01*
X132509153Y-122212499D01*
X132509156Y-122212500D01*
X132509158Y-122212500D01*
X132666844Y-122212500D01*
X132666845Y-122212499D01*
X132821497Y-122181737D01*
X132967179Y-122121394D01*
X133098289Y-122033789D01*
X133209789Y-121922289D01*
X133297394Y-121791179D01*
X133357737Y-121645497D01*
X133388500Y-121490842D01*
X133388500Y-121333158D01*
X133388500Y-121333155D01*
X133388499Y-121333153D01*
X133382206Y-121301516D01*
X133357737Y-121178503D01*
X133355089Y-121172109D01*
X133297939Y-121034136D01*
X133288500Y-120986684D01*
X133288500Y-113709316D01*
X133297939Y-113661864D01*
X133350011Y-113536149D01*
X133357737Y-113517497D01*
X133388500Y-113362842D01*
X133388500Y-113205158D01*
X133388500Y-113205155D01*
X133388499Y-113205153D01*
X133357738Y-113050510D01*
X133357737Y-113050503D01*
X133344417Y-113018345D01*
X133297397Y-112904827D01*
X133297390Y-112904814D01*
X133209789Y-112773711D01*
X133209786Y-112773707D01*
X133098292Y-112662213D01*
X133098288Y-112662210D01*
X132967185Y-112574609D01*
X132967172Y-112574602D01*
X132821501Y-112514264D01*
X132821489Y-112514261D01*
X132666845Y-112483500D01*
X132666842Y-112483500D01*
X132509158Y-112483500D01*
X132509155Y-112483500D01*
X132354510Y-112514261D01*
X132354498Y-112514264D01*
X132208827Y-112574602D01*
X132208814Y-112574609D01*
X132077711Y-112662210D01*
X132077707Y-112662213D01*
X131966213Y-112773707D01*
X131966210Y-112773711D01*
X131878609Y-112904814D01*
X131878602Y-112904827D01*
X131818264Y-113050498D01*
X131818261Y-113050510D01*
X131787500Y-113205153D01*
X131787500Y-113362846D01*
X131818261Y-113517489D01*
X131818264Y-113517501D01*
X131878061Y-113661864D01*
X131887500Y-113709316D01*
X131887500Y-116025786D01*
X131867815Y-116092825D01*
X131815011Y-116138580D01*
X131745853Y-116148524D01*
X131714901Y-116139866D01*
X131704241Y-116135324D01*
X131697179Y-116130606D01*
X131552210Y-116070558D01*
X131551667Y-116070327D01*
X131549818Y-116068806D01*
X131512585Y-116043928D01*
X130784819Y-115316162D01*
X130751334Y-115254839D01*
X130748500Y-115228481D01*
X130748500Y-91527518D01*
X130768185Y-91460479D01*
X130784819Y-91439837D01*
X131121819Y-91102837D01*
X131183142Y-91069352D01*
X131252834Y-91074336D01*
X131308767Y-91116208D01*
X131333184Y-91181672D01*
X131333500Y-91190518D01*
X131333500Y-91284736D01*
X131364389Y-91479763D01*
X131379906Y-91527518D01*
X131425409Y-91667561D01*
X131515056Y-91843501D01*
X131515058Y-91843504D01*
X131631115Y-92003246D01*
X131770753Y-92142884D01*
X131920234Y-92251486D01*
X131930499Y-92258944D01*
X132100404Y-92345516D01*
X132151199Y-92393490D01*
X132167994Y-92461311D01*
X132145456Y-92527446D01*
X132100404Y-92566483D01*
X131943321Y-92646522D01*
X131930495Y-92653058D01*
X131770753Y-92769115D01*
X131631115Y-92908753D01*
X131515058Y-93068495D01*
X131425408Y-93244441D01*
X131364389Y-93432236D01*
X131333500Y-93627263D01*
X131333500Y-93824736D01*
X131364389Y-94019763D01*
X131425408Y-94207558D01*
X131425409Y-94207561D01*
X131515056Y-94383501D01*
X131515058Y-94383504D01*
X131631115Y-94543246D01*
X131770753Y-94682884D01*
X131920234Y-94791486D01*
X131930499Y-94798944D01*
X132100404Y-94885516D01*
X132151199Y-94933490D01*
X132167994Y-95001311D01*
X132145456Y-95067446D01*
X132100404Y-95106483D01*
X131943321Y-95186522D01*
X131930495Y-95193058D01*
X131770753Y-95309115D01*
X131631115Y-95448753D01*
X131515058Y-95608495D01*
X131425408Y-95784441D01*
X131364389Y-95972236D01*
X131333500Y-96167263D01*
X131333500Y-96364736D01*
X131364389Y-96559763D01*
X131407879Y-96693610D01*
X131425409Y-96747561D01*
X131515056Y-96923501D01*
X131515058Y-96923504D01*
X131631115Y-97083246D01*
X131770753Y-97222884D01*
X131930494Y-97338941D01*
X131930496Y-97338942D01*
X131930499Y-97338944D01*
X132100956Y-97425797D01*
X132151749Y-97473768D01*
X132168544Y-97541589D01*
X132146007Y-97607724D01*
X132100954Y-97646763D01*
X131930767Y-97733479D01*
X131930760Y-97733483D01*
X131895010Y-97759456D01*
X131895010Y-97759457D01*
X132458591Y-98323037D01*
X132395007Y-98340075D01*
X132280993Y-98405901D01*
X132187901Y-98498993D01*
X132122075Y-98613007D01*
X132105037Y-98676590D01*
X131541457Y-98113010D01*
X131541456Y-98113010D01*
X131515483Y-98148760D01*
X131515482Y-98148762D01*
X131425873Y-98324626D01*
X131364876Y-98512353D01*
X131334000Y-98707302D01*
X131334000Y-98904697D01*
X131364876Y-99099646D01*
X131425873Y-99287373D01*
X131515483Y-99463239D01*
X131541457Y-99498988D01*
X131541457Y-99498989D01*
X132105037Y-98935409D01*
X132122075Y-98998993D01*
X132187901Y-99113007D01*
X132280993Y-99206099D01*
X132395007Y-99271925D01*
X132458590Y-99288962D01*
X131895010Y-99852540D01*
X131915161Y-99867181D01*
X131957827Y-99922511D01*
X131963806Y-99992124D01*
X131931201Y-100053920D01*
X131870362Y-100088277D01*
X131842278Y-100091500D01*
X131786130Y-100091500D01*
X131786123Y-100091501D01*
X131726516Y-100097908D01*
X131591671Y-100148202D01*
X131591664Y-100148206D01*
X131476455Y-100234452D01*
X131476452Y-100234455D01*
X131390206Y-100349664D01*
X131390202Y-100349671D01*
X131339908Y-100484517D01*
X131333501Y-100544116D01*
X131333500Y-100544135D01*
X131333500Y-102147870D01*
X131333501Y-102147876D01*
X131339908Y-102207483D01*
X131390202Y-102342328D01*
X131390206Y-102342335D01*
X131476452Y-102457544D01*
X131476455Y-102457547D01*
X131591664Y-102543793D01*
X131591671Y-102543797D01*
X131726517Y-102594091D01*
X131726516Y-102594091D01*
X131733444Y-102594835D01*
X131786127Y-102600500D01*
X133389872Y-102600499D01*
X133449483Y-102594091D01*
X133584331Y-102543796D01*
X133699546Y-102457546D01*
X133699548Y-102457542D01*
X133705817Y-102451275D01*
X133707832Y-102453290D01*
X133752153Y-102420104D01*
X133821844Y-102415112D01*
X133883171Y-102448590D01*
X133916663Y-102509909D01*
X133919500Y-102536281D01*
X133919500Y-120986684D01*
X133910061Y-121034136D01*
X133850264Y-121178498D01*
X133850261Y-121178510D01*
X133819500Y-121333153D01*
X133819500Y-121490846D01*
X133850261Y-121645489D01*
X133850264Y-121645501D01*
X133910602Y-121791172D01*
X133910609Y-121791185D01*
X133998210Y-121922288D01*
X133998213Y-121922292D01*
X134109707Y-122033786D01*
X134109711Y-122033789D01*
X134240814Y-122121390D01*
X134240827Y-122121397D01*
X134342687Y-122163588D01*
X134386503Y-122181737D01*
X134541153Y-122212499D01*
X134541156Y-122212500D01*
X134541158Y-122212500D01*
X134698844Y-122212500D01*
X134698845Y-122212499D01*
X134853497Y-122181737D01*
X134999179Y-122121394D01*
X135130289Y-122033789D01*
X135241789Y-121922289D01*
X135329394Y-121791179D01*
X135389737Y-121645497D01*
X135389739Y-121645489D01*
X135390340Y-121643510D01*
X135390938Y-121642596D01*
X135392068Y-121639870D01*
X135392585Y-121640084D01*
X135428637Y-121585072D01*
X135492450Y-121556615D01*
X135561517Y-121567176D01*
X135613910Y-121613401D01*
X135627660Y-121643510D01*
X135628262Y-121645497D01*
X135688602Y-121791172D01*
X135688609Y-121791185D01*
X135776210Y-121922288D01*
X135776213Y-121922292D01*
X135887707Y-122033786D01*
X135887711Y-122033789D01*
X136018814Y-122121390D01*
X136018827Y-122121397D01*
X136120687Y-122163588D01*
X136164503Y-122181737D01*
X136319153Y-122212499D01*
X136319156Y-122212500D01*
X136319158Y-122212500D01*
X136476844Y-122212500D01*
X136476845Y-122212499D01*
X136631497Y-122181737D01*
X136777179Y-122121394D01*
X136908289Y-122033789D01*
X137019789Y-121922289D01*
X137107394Y-121791179D01*
X137167737Y-121645497D01*
X137167739Y-121645489D01*
X137168340Y-121643510D01*
X137168938Y-121642596D01*
X137170068Y-121639870D01*
X137170585Y-121640084D01*
X137206637Y-121585072D01*
X137270450Y-121556615D01*
X137339517Y-121567176D01*
X137391910Y-121613401D01*
X137405660Y-121643510D01*
X137406262Y-121645497D01*
X137466602Y-121791172D01*
X137466609Y-121791185D01*
X137554210Y-121922288D01*
X137554213Y-121922292D01*
X137665707Y-122033786D01*
X137665711Y-122033789D01*
X137796814Y-122121390D01*
X137796827Y-122121397D01*
X137898687Y-122163588D01*
X137942503Y-122181737D01*
X138097153Y-122212499D01*
X138097156Y-122212500D01*
X138097158Y-122212500D01*
X138254844Y-122212500D01*
X138254845Y-122212499D01*
X138409497Y-122181737D01*
X138555179Y-122121394D01*
X138686289Y-122033789D01*
X138797789Y-121922289D01*
X138885394Y-121791179D01*
X138945737Y-121645497D01*
X138976500Y-121490842D01*
X138976500Y-121333158D01*
X138976500Y-121333155D01*
X138976499Y-121333153D01*
X138970206Y-121301516D01*
X138945737Y-121178503D01*
X138943089Y-121172109D01*
X138885939Y-121034136D01*
X138876500Y-120986684D01*
X138876500Y-112820148D01*
X174683500Y-112820148D01*
X174683500Y-113024851D01*
X174715522Y-113227034D01*
X174778781Y-113421723D01*
X174834387Y-113530854D01*
X174864832Y-113590606D01*
X174871715Y-113604113D01*
X174992028Y-113769713D01*
X175136786Y-113914471D01*
X175254486Y-113999983D01*
X175302390Y-114034787D01*
X175364650Y-114066510D01*
X175395080Y-114082015D01*
X175445876Y-114129990D01*
X175462671Y-114197811D01*
X175440134Y-114263946D01*
X175395080Y-114302985D01*
X175302386Y-114350215D01*
X175136786Y-114470528D01*
X174992028Y-114615286D01*
X174871715Y-114780886D01*
X174778781Y-114963276D01*
X174715522Y-115157965D01*
X174683500Y-115360148D01*
X174683500Y-115564851D01*
X174715522Y-115767034D01*
X174778781Y-115961723D01*
X174842691Y-116087153D01*
X174868895Y-116138580D01*
X174871715Y-116144113D01*
X174992028Y-116309713D01*
X175136786Y-116454471D01*
X175289592Y-116565489D01*
X175302390Y-116574787D01*
X175351911Y-116600019D01*
X175395080Y-116622015D01*
X175445876Y-116669990D01*
X175462671Y-116737811D01*
X175440134Y-116803946D01*
X175395080Y-116842985D01*
X175302386Y-116890215D01*
X175136786Y-117010528D01*
X174992028Y-117155286D01*
X174871715Y-117320886D01*
X174778781Y-117503276D01*
X174715522Y-117697965D01*
X174683500Y-117900148D01*
X174683500Y-118104851D01*
X174715522Y-118307034D01*
X174778781Y-118501723D01*
X174871715Y-118684113D01*
X174992028Y-118849713D01*
X175136786Y-118994471D01*
X175245421Y-119073397D01*
X175302390Y-119114787D01*
X175399955Y-119164499D01*
X175484776Y-119207718D01*
X175484778Y-119207718D01*
X175484781Y-119207720D01*
X175568162Y-119234812D01*
X175679465Y-119270977D01*
X175780557Y-119286988D01*
X175881648Y-119303000D01*
X175881649Y-119303000D01*
X177086351Y-119303000D01*
X177086352Y-119303000D01*
X177288534Y-119270977D01*
X177483219Y-119207720D01*
X177665610Y-119114787D01*
X177797923Y-119018657D01*
X177831213Y-118994471D01*
X177831215Y-118994468D01*
X177831219Y-118994466D01*
X177975966Y-118849719D01*
X177975968Y-118849715D01*
X177975971Y-118849713D01*
X178053376Y-118743172D01*
X178096287Y-118684110D01*
X178189220Y-118501719D01*
X178252477Y-118307034D01*
X178284500Y-118104852D01*
X178284500Y-117900148D01*
X178252477Y-117697966D01*
X178238389Y-117654609D01*
X178223810Y-117609738D01*
X178189220Y-117503281D01*
X178185364Y-117495713D01*
X182545500Y-117495713D01*
X182545500Y-117708286D01*
X182575421Y-117897204D01*
X182578754Y-117918243D01*
X182639387Y-118104852D01*
X182644444Y-118120414D01*
X182740951Y-118309820D01*
X182865890Y-118481786D01*
X183016213Y-118632109D01*
X183188182Y-118757050D01*
X183196946Y-118761516D01*
X183247742Y-118809491D01*
X183264536Y-118877312D01*
X183241998Y-118943447D01*
X183196946Y-118982484D01*
X183188182Y-118986949D01*
X183016213Y-119111890D01*
X182865890Y-119262213D01*
X182740951Y-119434179D01*
X182644444Y-119623585D01*
X182578753Y-119825760D01*
X182545500Y-120035713D01*
X182545500Y-120248286D01*
X182578753Y-120458239D01*
X182644444Y-120660414D01*
X182740951Y-120849820D01*
X182865890Y-121021786D01*
X182979430Y-121135326D01*
X183012915Y-121196649D01*
X183007931Y-121266341D01*
X182966059Y-121322274D01*
X182935083Y-121339189D01*
X182803669Y-121388203D01*
X182803664Y-121388206D01*
X182688455Y-121474452D01*
X182688452Y-121474455D01*
X182602206Y-121589664D01*
X182602202Y-121589671D01*
X182551908Y-121724517D01*
X182545501Y-121784116D01*
X182545500Y-121784135D01*
X182545500Y-123579870D01*
X182545501Y-123579876D01*
X182551908Y-123639483D01*
X182602202Y-123774328D01*
X182602206Y-123774335D01*
X182688452Y-123889544D01*
X182688455Y-123889547D01*
X182803664Y-123975793D01*
X182803671Y-123975797D01*
X182938517Y-124026091D01*
X182938516Y-124026091D01*
X182945444Y-124026835D01*
X182998127Y-124032500D01*
X184793872Y-124032499D01*
X184853483Y-124026091D01*
X184988331Y-123975796D01*
X185103546Y-123889546D01*
X185189796Y-123774331D01*
X185238810Y-123642916D01*
X185280681Y-123586984D01*
X185346145Y-123562566D01*
X185414418Y-123577417D01*
X185442673Y-123598569D01*
X185556213Y-123712109D01*
X185728179Y-123837048D01*
X185728181Y-123837049D01*
X185728184Y-123837051D01*
X185917588Y-123933557D01*
X186119757Y-123999246D01*
X186329713Y-124032500D01*
X186329714Y-124032500D01*
X186542286Y-124032500D01*
X186542287Y-124032500D01*
X186752243Y-123999246D01*
X186954412Y-123933557D01*
X187143816Y-123837051D01*
X187230138Y-123774335D01*
X187315786Y-123712109D01*
X187315788Y-123712106D01*
X187315792Y-123712104D01*
X187466104Y-123561792D01*
X187466106Y-123561788D01*
X187466109Y-123561786D01*
X187591048Y-123389820D01*
X187591047Y-123389820D01*
X187591051Y-123389816D01*
X187687557Y-123200412D01*
X187753246Y-122998243D01*
X187786500Y-122788287D01*
X187786500Y-122575713D01*
X187753246Y-122365757D01*
X187687557Y-122163588D01*
X187591051Y-121974184D01*
X187591049Y-121974181D01*
X187591048Y-121974179D01*
X187466109Y-121802213D01*
X187315786Y-121651890D01*
X187143820Y-121526951D01*
X187143115Y-121526591D01*
X187135054Y-121522485D01*
X187084259Y-121474512D01*
X187067463Y-121406692D01*
X187089999Y-121340556D01*
X187135054Y-121301515D01*
X187143816Y-121297051D01*
X187165789Y-121281086D01*
X187315786Y-121172109D01*
X187315788Y-121172106D01*
X187315792Y-121172104D01*
X187466104Y-121021792D01*
X187466106Y-121021788D01*
X187466109Y-121021786D01*
X187591048Y-120849820D01*
X187591047Y-120849820D01*
X187591051Y-120849816D01*
X187687557Y-120660412D01*
X187753246Y-120458243D01*
X187786500Y-120248287D01*
X187786500Y-120035713D01*
X187753246Y-119825757D01*
X187687557Y-119623588D01*
X187591051Y-119434184D01*
X187591049Y-119434181D01*
X187591048Y-119434179D01*
X187466109Y-119262213D01*
X187315786Y-119111890D01*
X187143820Y-118986951D01*
X187141533Y-118985786D01*
X187135054Y-118982485D01*
X187084259Y-118934512D01*
X187067463Y-118866692D01*
X187089999Y-118800556D01*
X187135054Y-118761515D01*
X187143816Y-118757051D01*
X187218492Y-118702796D01*
X187315786Y-118632109D01*
X187315788Y-118632106D01*
X187315792Y-118632104D01*
X187466104Y-118481792D01*
X187466106Y-118481788D01*
X187466109Y-118481786D01*
X187591048Y-118309820D01*
X187591047Y-118309820D01*
X187591051Y-118309816D01*
X187687557Y-118120412D01*
X187753246Y-117918243D01*
X187786500Y-117708287D01*
X187786500Y-117495713D01*
X187753246Y-117285757D01*
X187687557Y-117083588D01*
X187591051Y-116894184D01*
X187591049Y-116894181D01*
X187591048Y-116894179D01*
X187466109Y-116722213D01*
X187315786Y-116571890D01*
X187143820Y-116446951D01*
X186954414Y-116350444D01*
X186954413Y-116350443D01*
X186954412Y-116350443D01*
X186752243Y-116284754D01*
X186752241Y-116284753D01*
X186752240Y-116284753D01*
X186590957Y-116259208D01*
X186542287Y-116251500D01*
X186329713Y-116251500D01*
X186281042Y-116259208D01*
X186119760Y-116284753D01*
X185917585Y-116350444D01*
X185728179Y-116446951D01*
X185556213Y-116571890D01*
X185405890Y-116722213D01*
X185280949Y-116894182D01*
X185276484Y-116902946D01*
X185228509Y-116953742D01*
X185160688Y-116970536D01*
X185094553Y-116947998D01*
X185055516Y-116902946D01*
X185051050Y-116894182D01*
X184926109Y-116722213D01*
X184775786Y-116571890D01*
X184603820Y-116446951D01*
X184414414Y-116350444D01*
X184414413Y-116350443D01*
X184414412Y-116350443D01*
X184212243Y-116284754D01*
X184212241Y-116284753D01*
X184212240Y-116284753D01*
X184050957Y-116259208D01*
X184002287Y-116251500D01*
X183789713Y-116251500D01*
X183741042Y-116259208D01*
X183579760Y-116284753D01*
X183377585Y-116350444D01*
X183188179Y-116446951D01*
X183016213Y-116571890D01*
X182865890Y-116722213D01*
X182740951Y-116894179D01*
X182644444Y-117083585D01*
X182578753Y-117285760D01*
X182545500Y-117495713D01*
X178185364Y-117495713D01*
X178096287Y-117320890D01*
X178073844Y-117289999D01*
X177975971Y-117155286D01*
X177831213Y-117010528D01*
X177665614Y-116890215D01*
X177659006Y-116886848D01*
X177572917Y-116842983D01*
X177522123Y-116795011D01*
X177505328Y-116727190D01*
X177527865Y-116661055D01*
X177572917Y-116622016D01*
X177665610Y-116574787D01*
X177686770Y-116559413D01*
X177831213Y-116454471D01*
X177831215Y-116454468D01*
X177831219Y-116454466D01*
X177975966Y-116309719D01*
X177975968Y-116309715D01*
X177975971Y-116309713D01*
X178042450Y-116218211D01*
X178096287Y-116144110D01*
X178189220Y-115961719D01*
X178252477Y-115767034D01*
X178284500Y-115564852D01*
X178284500Y-115360148D01*
X178270290Y-115270433D01*
X178252477Y-115157965D01*
X178189218Y-114963276D01*
X178155503Y-114897107D01*
X178096287Y-114780890D01*
X178088556Y-114770249D01*
X177975971Y-114615286D01*
X177831213Y-114470528D01*
X177665614Y-114350215D01*
X177659006Y-114346848D01*
X177572917Y-114302983D01*
X177522123Y-114255011D01*
X177505328Y-114187190D01*
X177527865Y-114121055D01*
X177572917Y-114082016D01*
X177665610Y-114034787D01*
X177713514Y-113999983D01*
X177831213Y-113914471D01*
X177831215Y-113914468D01*
X177831219Y-113914466D01*
X177975966Y-113769719D01*
X177975968Y-113769715D01*
X177975971Y-113769713D01*
X178042450Y-113678211D01*
X178096287Y-113604110D01*
X178189220Y-113421719D01*
X178252477Y-113227034D01*
X178284500Y-113024852D01*
X178284500Y-112820148D01*
X178252477Y-112617966D01*
X178238389Y-112574609D01*
X178189218Y-112423276D01*
X178155503Y-112357107D01*
X178096287Y-112240890D01*
X178088556Y-112230249D01*
X177975971Y-112075286D01*
X177831213Y-111930528D01*
X177665613Y-111810215D01*
X177665612Y-111810214D01*
X177665610Y-111810213D01*
X177608653Y-111781191D01*
X177483223Y-111717281D01*
X177288534Y-111654022D01*
X177113995Y-111626378D01*
X177086352Y-111622000D01*
X175881648Y-111622000D01*
X175857329Y-111625851D01*
X175679465Y-111654022D01*
X175484776Y-111717281D01*
X175302386Y-111810215D01*
X175136786Y-111930528D01*
X174992028Y-112075286D01*
X174871715Y-112240886D01*
X174778781Y-112423276D01*
X174715522Y-112617965D01*
X174683500Y-112820148D01*
X138876500Y-112820148D01*
X138876500Y-108810148D01*
X142463500Y-108810148D01*
X142463500Y-110014851D01*
X142495522Y-110217034D01*
X142558781Y-110411723D01*
X142651715Y-110594113D01*
X142772028Y-110759713D01*
X142916786Y-110904471D01*
X143071749Y-111017056D01*
X143082390Y-111024787D01*
X143198607Y-111084003D01*
X143264776Y-111117718D01*
X143264778Y-111117718D01*
X143264781Y-111117720D01*
X143317385Y-111134812D01*
X143459465Y-111180977D01*
X143560557Y-111196988D01*
X143661648Y-111213000D01*
X143661649Y-111213000D01*
X143866351Y-111213000D01*
X143866352Y-111213000D01*
X144068534Y-111180977D01*
X144263219Y-111117720D01*
X144445610Y-111024787D01*
X144538590Y-110957232D01*
X144611213Y-110904471D01*
X144611215Y-110904468D01*
X144611219Y-110904466D01*
X144755966Y-110759719D01*
X144755968Y-110759715D01*
X144755971Y-110759713D01*
X144876284Y-110594114D01*
X144876285Y-110594113D01*
X144876287Y-110594110D01*
X144923516Y-110501417D01*
X144971489Y-110450623D01*
X145039310Y-110433828D01*
X145105445Y-110456365D01*
X145144485Y-110501419D01*
X145191715Y-110594114D01*
X145312028Y-110759713D01*
X145456786Y-110904471D01*
X145611749Y-111017056D01*
X145622390Y-111024787D01*
X145738607Y-111084003D01*
X145804776Y-111117718D01*
X145804778Y-111117718D01*
X145804781Y-111117720D01*
X145857385Y-111134812D01*
X145999465Y-111180977D01*
X146100557Y-111196988D01*
X146201648Y-111213000D01*
X146201649Y-111213000D01*
X146406351Y-111213000D01*
X146406352Y-111213000D01*
X146608534Y-111180977D01*
X146803219Y-111117720D01*
X146985610Y-111024787D01*
X147078590Y-110957232D01*
X147151213Y-110904471D01*
X147151215Y-110904468D01*
X147151219Y-110904466D01*
X147295966Y-110759719D01*
X147295968Y-110759715D01*
X147295971Y-110759713D01*
X147416284Y-110594114D01*
X147416285Y-110594113D01*
X147416287Y-110594110D01*
X147463516Y-110501417D01*
X147511489Y-110450623D01*
X147579310Y-110433828D01*
X147645445Y-110456365D01*
X147684485Y-110501419D01*
X147731715Y-110594114D01*
X147852028Y-110759713D01*
X147996786Y-110904471D01*
X148151749Y-111017056D01*
X148162390Y-111024787D01*
X148278607Y-111084003D01*
X148344776Y-111117718D01*
X148344778Y-111117718D01*
X148344781Y-111117720D01*
X148397385Y-111134812D01*
X148539465Y-111180977D01*
X148640557Y-111196988D01*
X148741648Y-111213000D01*
X148741649Y-111213000D01*
X148946351Y-111213000D01*
X148946352Y-111213000D01*
X149148534Y-111180977D01*
X149343219Y-111117720D01*
X149525610Y-111024787D01*
X149618590Y-110957232D01*
X149691213Y-110904471D01*
X149691215Y-110904468D01*
X149691219Y-110904466D01*
X149835966Y-110759719D01*
X149835968Y-110759715D01*
X149835971Y-110759713D01*
X149956284Y-110594114D01*
X149956285Y-110594113D01*
X149956287Y-110594110D01*
X150003516Y-110501417D01*
X150051489Y-110450623D01*
X150119310Y-110433828D01*
X150185445Y-110456365D01*
X150224485Y-110501419D01*
X150271715Y-110594114D01*
X150392028Y-110759713D01*
X150536786Y-110904471D01*
X150691749Y-111017056D01*
X150702390Y-111024787D01*
X150818607Y-111084003D01*
X150884776Y-111117718D01*
X150884778Y-111117718D01*
X150884781Y-111117720D01*
X150937385Y-111134812D01*
X151079465Y-111180977D01*
X151180557Y-111196988D01*
X151281648Y-111213000D01*
X151281649Y-111213000D01*
X151486351Y-111213000D01*
X151486352Y-111213000D01*
X151688534Y-111180977D01*
X151883219Y-111117720D01*
X152065610Y-111024787D01*
X152158590Y-110957232D01*
X152231213Y-110904471D01*
X152231215Y-110904468D01*
X152231219Y-110904466D01*
X152375966Y-110759719D01*
X152375968Y-110759715D01*
X152375971Y-110759713D01*
X152496284Y-110594114D01*
X152496285Y-110594113D01*
X152496287Y-110594110D01*
X152543516Y-110501417D01*
X152591489Y-110450623D01*
X152659310Y-110433828D01*
X152725445Y-110456365D01*
X152764485Y-110501419D01*
X152811715Y-110594114D01*
X152932028Y-110759713D01*
X153076786Y-110904471D01*
X153231749Y-111017056D01*
X153242390Y-111024787D01*
X153358607Y-111084003D01*
X153424776Y-111117718D01*
X153424778Y-111117718D01*
X153424781Y-111117720D01*
X153477385Y-111134812D01*
X153619465Y-111180977D01*
X153720557Y-111196988D01*
X153821648Y-111213000D01*
X153821649Y-111213000D01*
X154026351Y-111213000D01*
X154026352Y-111213000D01*
X154228534Y-111180977D01*
X154423219Y-111117720D01*
X154605610Y-111024787D01*
X154698590Y-110957232D01*
X154771213Y-110904471D01*
X154771215Y-110904468D01*
X154771219Y-110904466D01*
X154915966Y-110759719D01*
X154915968Y-110759715D01*
X154915971Y-110759713D01*
X155036284Y-110594114D01*
X155036285Y-110594113D01*
X155036287Y-110594110D01*
X155083516Y-110501417D01*
X155131489Y-110450623D01*
X155199310Y-110433828D01*
X155265445Y-110456365D01*
X155304485Y-110501419D01*
X155351715Y-110594114D01*
X155472028Y-110759713D01*
X155616786Y-110904471D01*
X155771749Y-111017056D01*
X155782390Y-111024787D01*
X155898607Y-111084003D01*
X155964776Y-111117718D01*
X155964778Y-111117718D01*
X155964781Y-111117720D01*
X156017385Y-111134812D01*
X156159465Y-111180977D01*
X156260557Y-111196988D01*
X156361648Y-111213000D01*
X156361649Y-111213000D01*
X156566351Y-111213000D01*
X156566352Y-111213000D01*
X156768534Y-111180977D01*
X156963219Y-111117720D01*
X157145610Y-111024787D01*
X157238590Y-110957232D01*
X157311213Y-110904471D01*
X157311215Y-110904468D01*
X157311219Y-110904466D01*
X157455966Y-110759719D01*
X157455968Y-110759715D01*
X157455971Y-110759713D01*
X157576284Y-110594114D01*
X157576285Y-110594113D01*
X157576287Y-110594110D01*
X157623516Y-110501417D01*
X157671489Y-110450623D01*
X157739310Y-110433828D01*
X157805445Y-110456365D01*
X157844485Y-110501419D01*
X157891715Y-110594114D01*
X158012028Y-110759713D01*
X158156786Y-110904471D01*
X158311749Y-111017056D01*
X158322390Y-111024787D01*
X158438607Y-111084003D01*
X158504776Y-111117718D01*
X158504778Y-111117718D01*
X158504781Y-111117720D01*
X158557385Y-111134812D01*
X158699465Y-111180977D01*
X158800557Y-111196988D01*
X158901648Y-111213000D01*
X158901649Y-111213000D01*
X159106351Y-111213000D01*
X159106352Y-111213000D01*
X159308534Y-111180977D01*
X159503219Y-111117720D01*
X159685610Y-111024787D01*
X159778590Y-110957232D01*
X159851213Y-110904471D01*
X159851215Y-110904468D01*
X159851219Y-110904466D01*
X159995966Y-110759719D01*
X159995968Y-110759715D01*
X159995971Y-110759713D01*
X160116284Y-110594114D01*
X160116285Y-110594113D01*
X160116287Y-110594110D01*
X160163516Y-110501417D01*
X160211489Y-110450623D01*
X160279310Y-110433828D01*
X160345445Y-110456365D01*
X160384485Y-110501419D01*
X160431715Y-110594114D01*
X160552028Y-110759713D01*
X160696786Y-110904471D01*
X160851749Y-111017056D01*
X160862390Y-111024787D01*
X160978607Y-111084003D01*
X161044776Y-111117718D01*
X161044778Y-111117718D01*
X161044781Y-111117720D01*
X161097385Y-111134812D01*
X161239465Y-111180977D01*
X161340557Y-111196988D01*
X161441648Y-111213000D01*
X161441649Y-111213000D01*
X161646351Y-111213000D01*
X161646352Y-111213000D01*
X161848534Y-111180977D01*
X162043219Y-111117720D01*
X162225610Y-111024787D01*
X162318590Y-110957232D01*
X162391213Y-110904471D01*
X162391215Y-110904468D01*
X162391219Y-110904466D01*
X162535966Y-110759719D01*
X162535968Y-110759715D01*
X162535971Y-110759713D01*
X162656284Y-110594114D01*
X162656285Y-110594113D01*
X162656287Y-110594110D01*
X162703516Y-110501417D01*
X162751489Y-110450623D01*
X162819310Y-110433828D01*
X162885445Y-110456365D01*
X162924485Y-110501419D01*
X162971715Y-110594114D01*
X163092028Y-110759713D01*
X163236786Y-110904471D01*
X163391749Y-111017056D01*
X163402390Y-111024787D01*
X163518607Y-111084003D01*
X163584776Y-111117718D01*
X163584778Y-111117718D01*
X163584781Y-111117720D01*
X163637385Y-111134812D01*
X163779465Y-111180977D01*
X163880557Y-111196988D01*
X163981648Y-111213000D01*
X163981649Y-111213000D01*
X164186351Y-111213000D01*
X164186352Y-111213000D01*
X164388534Y-111180977D01*
X164583219Y-111117720D01*
X164765610Y-111024787D01*
X164858590Y-110957232D01*
X164931213Y-110904471D01*
X164931215Y-110904468D01*
X164931219Y-110904466D01*
X165075966Y-110759719D01*
X165075968Y-110759715D01*
X165075971Y-110759713D01*
X165196284Y-110594114D01*
X165196285Y-110594113D01*
X165196287Y-110594110D01*
X165243516Y-110501417D01*
X165291489Y-110450623D01*
X165359310Y-110433828D01*
X165425445Y-110456365D01*
X165464485Y-110501419D01*
X165511715Y-110594114D01*
X165632028Y-110759713D01*
X165776786Y-110904471D01*
X165931749Y-111017056D01*
X165942390Y-111024787D01*
X166058607Y-111084003D01*
X166124776Y-111117718D01*
X166124778Y-111117718D01*
X166124781Y-111117720D01*
X166177385Y-111134812D01*
X166319465Y-111180977D01*
X166420557Y-111196988D01*
X166521648Y-111213000D01*
X166521649Y-111213000D01*
X166726351Y-111213000D01*
X166726352Y-111213000D01*
X166928534Y-111180977D01*
X167123219Y-111117720D01*
X167305610Y-111024787D01*
X167398590Y-110957232D01*
X167471213Y-110904471D01*
X167471215Y-110904468D01*
X167471219Y-110904466D01*
X167615966Y-110759719D01*
X167615968Y-110759715D01*
X167615971Y-110759713D01*
X167736284Y-110594114D01*
X167736285Y-110594113D01*
X167736287Y-110594110D01*
X167783516Y-110501417D01*
X167831489Y-110450623D01*
X167899310Y-110433828D01*
X167965445Y-110456365D01*
X168004485Y-110501419D01*
X168051715Y-110594114D01*
X168172028Y-110759713D01*
X168316786Y-110904471D01*
X168471749Y-111017056D01*
X168482390Y-111024787D01*
X168598607Y-111084003D01*
X168664776Y-111117718D01*
X168664778Y-111117718D01*
X168664781Y-111117720D01*
X168717385Y-111134812D01*
X168859465Y-111180977D01*
X168960557Y-111196988D01*
X169061648Y-111213000D01*
X169061649Y-111213000D01*
X169266351Y-111213000D01*
X169266352Y-111213000D01*
X169468534Y-111180977D01*
X169663219Y-111117720D01*
X169845610Y-111024787D01*
X169938590Y-110957232D01*
X170011213Y-110904471D01*
X170011215Y-110904468D01*
X170011219Y-110904466D01*
X170155966Y-110759719D01*
X170155968Y-110759715D01*
X170155971Y-110759713D01*
X170276284Y-110594114D01*
X170276285Y-110594113D01*
X170276287Y-110594110D01*
X170323516Y-110501417D01*
X170371489Y-110450623D01*
X170439310Y-110433828D01*
X170505445Y-110456365D01*
X170544485Y-110501419D01*
X170591715Y-110594114D01*
X170712028Y-110759713D01*
X170856786Y-110904471D01*
X171011749Y-111017056D01*
X171022390Y-111024787D01*
X171138607Y-111084003D01*
X171204776Y-111117718D01*
X171204778Y-111117718D01*
X171204781Y-111117720D01*
X171257385Y-111134812D01*
X171399465Y-111180977D01*
X171500557Y-111196988D01*
X171601648Y-111213000D01*
X171601649Y-111213000D01*
X171806351Y-111213000D01*
X171806352Y-111213000D01*
X172008534Y-111180977D01*
X172203219Y-111117720D01*
X172385610Y-111024787D01*
X172478590Y-110957232D01*
X172551213Y-110904471D01*
X172551215Y-110904468D01*
X172551219Y-110904466D01*
X172695966Y-110759719D01*
X172695968Y-110759715D01*
X172695971Y-110759713D01*
X172748732Y-110687090D01*
X172816287Y-110594110D01*
X172909220Y-110411719D01*
X172972477Y-110217034D01*
X173004500Y-110014852D01*
X173004500Y-108810148D01*
X172972477Y-108607966D01*
X172971089Y-108603695D01*
X172909218Y-108413276D01*
X172863515Y-108323580D01*
X172816287Y-108230890D01*
X172808556Y-108220249D01*
X172695971Y-108065286D01*
X172551213Y-107920528D01*
X172385613Y-107800215D01*
X172385612Y-107800214D01*
X172385610Y-107800213D01*
X172328653Y-107771191D01*
X172203223Y-107707281D01*
X172008534Y-107644022D01*
X171833995Y-107616378D01*
X171806352Y-107612000D01*
X171601648Y-107612000D01*
X171577329Y-107615851D01*
X171399465Y-107644022D01*
X171204776Y-107707281D01*
X171022386Y-107800215D01*
X170856786Y-107920528D01*
X170712028Y-108065286D01*
X170591715Y-108230886D01*
X170544485Y-108323580D01*
X170496510Y-108374376D01*
X170428689Y-108391171D01*
X170362554Y-108368634D01*
X170323515Y-108323580D01*
X170322883Y-108322340D01*
X170276287Y-108230890D01*
X170268556Y-108220249D01*
X170155971Y-108065286D01*
X170011213Y-107920528D01*
X169845613Y-107800215D01*
X169845612Y-107800214D01*
X169845610Y-107800213D01*
X169788653Y-107771191D01*
X169663223Y-107707281D01*
X169518263Y-107660181D01*
X169460588Y-107620743D01*
X169433390Y-107556384D01*
X169445305Y-107487538D01*
X169492549Y-107436062D01*
X169518263Y-107424319D01*
X169663219Y-107377220D01*
X169845610Y-107284287D01*
X169938590Y-107216732D01*
X170011213Y-107163971D01*
X170011215Y-107163968D01*
X170011219Y-107163966D01*
X170155966Y-107019219D01*
X170155968Y-107019215D01*
X170155971Y-107019213D01*
X170219341Y-106931990D01*
X170276287Y-106853610D01*
X170369220Y-106671219D01*
X170432477Y-106476534D01*
X170464500Y-106274352D01*
X170464500Y-106069648D01*
X170441797Y-105926309D01*
X170432477Y-105867465D01*
X170369218Y-105672776D01*
X170326253Y-105588453D01*
X170276287Y-105490390D01*
X170240378Y-105440965D01*
X170155971Y-105324786D01*
X170011213Y-105180028D01*
X169845610Y-105059712D01*
X169841458Y-105057168D01*
X169842366Y-105055685D01*
X169797035Y-105012859D01*
X169780250Y-104945035D01*
X169801034Y-104881473D01*
X169873394Y-104773179D01*
X169933737Y-104627497D01*
X169964500Y-104472842D01*
X169964500Y-104315158D01*
X169964500Y-104315155D01*
X169964499Y-104315153D01*
X169933738Y-104160510D01*
X169933737Y-104160503D01*
X169926162Y-104142214D01*
X169873397Y-104014827D01*
X169873390Y-104014814D01*
X169785789Y-103883711D01*
X169785786Y-103883707D01*
X169674292Y-103772213D01*
X169674288Y-103772210D01*
X169543185Y-103684609D01*
X169543176Y-103684604D01*
X169398812Y-103624807D01*
X169358584Y-103597927D01*
X168086546Y-102325888D01*
X168086545Y-102325887D01*
X167971807Y-102249222D01*
X167844332Y-102196421D01*
X167844322Y-102196418D01*
X167708996Y-102169500D01*
X167708994Y-102169500D01*
X167708993Y-102169500D01*
X165525316Y-102169500D01*
X165477864Y-102160061D01*
X165333501Y-102100264D01*
X165333489Y-102100261D01*
X165178845Y-102069500D01*
X165178842Y-102069500D01*
X165021158Y-102069500D01*
X165021155Y-102069500D01*
X164866510Y-102100261D01*
X164866498Y-102100264D01*
X164720827Y-102160602D01*
X164720814Y-102160609D01*
X164589711Y-102248210D01*
X164589707Y-102248213D01*
X164478213Y-102359707D01*
X164478210Y-102359711D01*
X164390609Y-102490814D01*
X164390602Y-102490827D01*
X164330264Y-102636498D01*
X164330261Y-102636510D01*
X164299500Y-102791153D01*
X164299500Y-102948846D01*
X164330261Y-103103489D01*
X164330264Y-103103501D01*
X164390602Y-103249172D01*
X164390609Y-103249185D01*
X164478210Y-103380288D01*
X164478213Y-103380292D01*
X164589707Y-103491786D01*
X164589711Y-103491789D01*
X164720814Y-103579390D01*
X164720827Y-103579397D01*
X164866498Y-103639735D01*
X164866503Y-103639737D01*
X165021153Y-103670499D01*
X165021156Y-103670500D01*
X165021158Y-103670500D01*
X165178844Y-103670500D01*
X165178845Y-103670499D01*
X165333497Y-103639737D01*
X165420516Y-103603693D01*
X165477864Y-103579939D01*
X165525316Y-103570500D01*
X167298481Y-103570500D01*
X167365520Y-103590185D01*
X167386162Y-103606819D01*
X168367927Y-104588584D01*
X168394807Y-104628812D01*
X168454604Y-104773176D01*
X168454606Y-104773179D01*
X168508402Y-104853691D01*
X168526966Y-104881473D01*
X168547844Y-104948150D01*
X168529360Y-105015530D01*
X168485686Y-105055771D01*
X168486542Y-105057168D01*
X168482389Y-105059712D01*
X168316786Y-105180028D01*
X168172028Y-105324786D01*
X168051715Y-105490386D01*
X167958781Y-105672776D01*
X167895522Y-105867465D01*
X167863500Y-106069648D01*
X167863500Y-106274351D01*
X167895522Y-106476534D01*
X167958781Y-106671223D01*
X168012097Y-106775859D01*
X168043993Y-106838459D01*
X168051715Y-106853613D01*
X168172028Y-107019213D01*
X168316786Y-107163971D01*
X168471749Y-107276556D01*
X168482390Y-107284287D01*
X168598607Y-107343503D01*
X168664776Y-107377218D01*
X168664778Y-107377218D01*
X168664781Y-107377220D01*
X168750584Y-107405099D01*
X168809736Y-107424319D01*
X168867411Y-107463757D01*
X168894609Y-107528116D01*
X168882694Y-107596962D01*
X168835450Y-107648438D01*
X168809736Y-107660181D01*
X168664776Y-107707281D01*
X168482386Y-107800215D01*
X168316786Y-107920528D01*
X168172028Y-108065286D01*
X168051715Y-108230886D01*
X168004485Y-108323580D01*
X167956510Y-108374376D01*
X167888689Y-108391171D01*
X167822554Y-108368634D01*
X167783515Y-108323580D01*
X167782883Y-108322340D01*
X167736287Y-108230890D01*
X167728556Y-108220249D01*
X167615971Y-108065286D01*
X167471213Y-107920528D01*
X167305613Y-107800215D01*
X167305612Y-107800214D01*
X167305610Y-107800213D01*
X167248653Y-107771191D01*
X167123223Y-107707281D01*
X166928534Y-107644022D01*
X166753995Y-107616378D01*
X166726352Y-107612000D01*
X166521648Y-107612000D01*
X166497329Y-107615851D01*
X166319465Y-107644022D01*
X166124776Y-107707281D01*
X165942386Y-107800215D01*
X165776786Y-107920528D01*
X165632028Y-108065286D01*
X165511715Y-108230886D01*
X165464485Y-108323580D01*
X165416510Y-108374376D01*
X165348689Y-108391171D01*
X165282554Y-108368634D01*
X165243515Y-108323580D01*
X165242883Y-108322340D01*
X165196287Y-108230890D01*
X165188556Y-108220249D01*
X165075971Y-108065286D01*
X164931213Y-107920528D01*
X164765613Y-107800215D01*
X164765612Y-107800214D01*
X164765610Y-107800213D01*
X164708653Y-107771191D01*
X164583223Y-107707281D01*
X164388534Y-107644022D01*
X164213995Y-107616378D01*
X164186352Y-107612000D01*
X163981648Y-107612000D01*
X163957329Y-107615851D01*
X163779465Y-107644022D01*
X163584776Y-107707281D01*
X163402386Y-107800215D01*
X163236786Y-107920528D01*
X163092028Y-108065286D01*
X162971715Y-108230886D01*
X162924485Y-108323580D01*
X162876510Y-108374376D01*
X162808689Y-108391171D01*
X162742554Y-108368634D01*
X162703515Y-108323580D01*
X162702883Y-108322340D01*
X162656287Y-108230890D01*
X162648556Y-108220249D01*
X162535971Y-108065286D01*
X162391213Y-107920528D01*
X162225613Y-107800215D01*
X162225612Y-107800214D01*
X162225610Y-107800213D01*
X162168653Y-107771191D01*
X162043223Y-107707281D01*
X161848534Y-107644022D01*
X161673995Y-107616378D01*
X161646352Y-107612000D01*
X161441648Y-107612000D01*
X161417329Y-107615851D01*
X161239465Y-107644022D01*
X161044776Y-107707281D01*
X160862386Y-107800215D01*
X160696786Y-107920528D01*
X160552028Y-108065286D01*
X160431715Y-108230886D01*
X160384485Y-108323580D01*
X160336510Y-108374376D01*
X160268689Y-108391171D01*
X160202554Y-108368634D01*
X160163515Y-108323580D01*
X160162883Y-108322340D01*
X160116287Y-108230890D01*
X160108556Y-108220249D01*
X159995971Y-108065286D01*
X159851213Y-107920528D01*
X159685613Y-107800215D01*
X159685612Y-107800214D01*
X159685610Y-107800213D01*
X159628653Y-107771191D01*
X159503223Y-107707281D01*
X159308534Y-107644022D01*
X159133995Y-107616378D01*
X159106352Y-107612000D01*
X158901648Y-107612000D01*
X158877329Y-107615851D01*
X158699465Y-107644022D01*
X158504776Y-107707281D01*
X158322386Y-107800215D01*
X158156786Y-107920528D01*
X158012028Y-108065286D01*
X157891715Y-108230886D01*
X157844485Y-108323580D01*
X157796510Y-108374376D01*
X157728689Y-108391171D01*
X157662554Y-108368634D01*
X157623515Y-108323580D01*
X157622883Y-108322340D01*
X157576287Y-108230890D01*
X157568556Y-108220249D01*
X157455971Y-108065286D01*
X157311213Y-107920528D01*
X157145613Y-107800215D01*
X157145612Y-107800214D01*
X157145610Y-107800213D01*
X157088653Y-107771191D01*
X156963223Y-107707281D01*
X156768534Y-107644022D01*
X156593995Y-107616378D01*
X156566352Y-107612000D01*
X156361648Y-107612000D01*
X156337329Y-107615851D01*
X156159465Y-107644022D01*
X155964776Y-107707281D01*
X155782386Y-107800215D01*
X155616786Y-107920528D01*
X155472028Y-108065286D01*
X155351715Y-108230886D01*
X155304485Y-108323580D01*
X155256510Y-108374376D01*
X155188689Y-108391171D01*
X155122554Y-108368634D01*
X155083515Y-108323580D01*
X155082883Y-108322340D01*
X155036287Y-108230890D01*
X155028556Y-108220249D01*
X154915971Y-108065286D01*
X154771213Y-107920528D01*
X154605613Y-107800215D01*
X154605612Y-107800214D01*
X154605610Y-107800213D01*
X154548653Y-107771191D01*
X154423223Y-107707281D01*
X154228534Y-107644022D01*
X154053995Y-107616378D01*
X154026352Y-107612000D01*
X153821648Y-107612000D01*
X153797329Y-107615851D01*
X153619465Y-107644022D01*
X153424776Y-107707281D01*
X153242386Y-107800215D01*
X153076786Y-107920528D01*
X152932028Y-108065286D01*
X152811715Y-108230886D01*
X152764485Y-108323580D01*
X152716510Y-108374376D01*
X152648689Y-108391171D01*
X152582554Y-108368634D01*
X152543515Y-108323580D01*
X152542883Y-108322340D01*
X152496287Y-108230890D01*
X152488556Y-108220249D01*
X152375971Y-108065286D01*
X152231213Y-107920528D01*
X152065613Y-107800215D01*
X152065612Y-107800214D01*
X152065610Y-107800213D01*
X152008653Y-107771191D01*
X151883223Y-107707281D01*
X151688534Y-107644022D01*
X151513995Y-107616378D01*
X151486352Y-107612000D01*
X151281648Y-107612000D01*
X151257329Y-107615851D01*
X151079465Y-107644022D01*
X150884776Y-107707281D01*
X150702386Y-107800215D01*
X150536786Y-107920528D01*
X150392028Y-108065286D01*
X150271715Y-108230886D01*
X150224485Y-108323580D01*
X150176510Y-108374376D01*
X150108689Y-108391171D01*
X150042554Y-108368634D01*
X150003515Y-108323580D01*
X150002883Y-108322340D01*
X149956287Y-108230890D01*
X149948556Y-108220249D01*
X149835971Y-108065286D01*
X149691213Y-107920528D01*
X149525613Y-107800215D01*
X149525612Y-107800214D01*
X149525610Y-107800213D01*
X149468653Y-107771191D01*
X149343223Y-107707281D01*
X149148534Y-107644022D01*
X148973995Y-107616378D01*
X148946352Y-107612000D01*
X148741648Y-107612000D01*
X148717329Y-107615851D01*
X148539465Y-107644022D01*
X148344776Y-107707281D01*
X148162386Y-107800215D01*
X147996786Y-107920528D01*
X147852028Y-108065286D01*
X147731715Y-108230886D01*
X147684485Y-108323580D01*
X147636510Y-108374376D01*
X147568689Y-108391171D01*
X147502554Y-108368634D01*
X147463515Y-108323580D01*
X147462883Y-108322340D01*
X147416287Y-108230890D01*
X147408556Y-108220249D01*
X147295971Y-108065286D01*
X147151213Y-107920528D01*
X146985613Y-107800215D01*
X146985612Y-107800214D01*
X146985610Y-107800213D01*
X146928653Y-107771191D01*
X146803223Y-107707281D01*
X146608534Y-107644022D01*
X146433995Y-107616378D01*
X146406352Y-107612000D01*
X146201648Y-107612000D01*
X146177329Y-107615851D01*
X145999465Y-107644022D01*
X145804776Y-107707281D01*
X145622386Y-107800215D01*
X145456786Y-107920528D01*
X145312028Y-108065286D01*
X145191715Y-108230886D01*
X145144485Y-108323580D01*
X145096510Y-108374376D01*
X145028689Y-108391171D01*
X144962554Y-108368634D01*
X144923515Y-108323580D01*
X144922883Y-108322340D01*
X144876287Y-108230890D01*
X144868556Y-108220249D01*
X144755971Y-108065286D01*
X144611213Y-107920528D01*
X144445613Y-107800215D01*
X144445612Y-107800214D01*
X144445610Y-107800213D01*
X144388653Y-107771191D01*
X144263223Y-107707281D01*
X144068534Y-107644022D01*
X143893995Y-107616378D01*
X143866352Y-107612000D01*
X143661648Y-107612000D01*
X143637329Y-107615851D01*
X143459465Y-107644022D01*
X143264776Y-107707281D01*
X143082386Y-107800215D01*
X142916786Y-107920528D01*
X142772028Y-108065286D01*
X142651715Y-108230886D01*
X142558781Y-108413276D01*
X142495522Y-108607965D01*
X142463500Y-108810148D01*
X138876500Y-108810148D01*
X138876500Y-105561682D01*
X142504000Y-105561682D01*
X142504000Y-105766317D01*
X142536009Y-105968417D01*
X142599244Y-106163031D01*
X142692141Y-106345350D01*
X142692147Y-106345359D01*
X142724523Y-106389921D01*
X142724524Y-106389922D01*
X143404000Y-105710446D01*
X143404000Y-105716661D01*
X143431259Y-105818394D01*
X143483920Y-105909606D01*
X143558394Y-105984080D01*
X143649606Y-106036741D01*
X143751339Y-106064000D01*
X143757553Y-106064000D01*
X143078076Y-106743474D01*
X143122650Y-106775859D01*
X143304968Y-106868755D01*
X143499582Y-106931990D01*
X143701683Y-106964000D01*
X143906317Y-106964000D01*
X144108417Y-106931990D01*
X144303031Y-106868755D01*
X144485349Y-106775859D01*
X144529921Y-106743474D01*
X143850447Y-106064000D01*
X143856661Y-106064000D01*
X143958394Y-106036741D01*
X144049606Y-105984080D01*
X144124080Y-105909606D01*
X144176741Y-105818394D01*
X144204000Y-105716661D01*
X144204000Y-105710447D01*
X144883474Y-106389921D01*
X144915859Y-106345349D01*
X145008755Y-106163031D01*
X145071990Y-105968417D01*
X145104000Y-105766317D01*
X145104000Y-105561682D01*
X145103995Y-105561648D01*
X147503500Y-105561648D01*
X147503500Y-105766351D01*
X147535522Y-105968534D01*
X147598781Y-106163223D01*
X147655405Y-106274351D01*
X147691585Y-106345359D01*
X147691715Y-106345613D01*
X147812028Y-106511213D01*
X147956786Y-106655971D01*
X148077226Y-106743474D01*
X148122390Y-106776287D01*
X148238607Y-106835503D01*
X148304776Y-106869218D01*
X148304778Y-106869218D01*
X148304781Y-106869220D01*
X148409137Y-106903127D01*
X148499465Y-106932477D01*
X148600557Y-106948488D01*
X148701648Y-106964500D01*
X148701649Y-106964500D01*
X148906351Y-106964500D01*
X148906352Y-106964500D01*
X149108534Y-106932477D01*
X149303219Y-106869220D01*
X149485610Y-106776287D01*
X149603047Y-106690965D01*
X149651213Y-106655971D01*
X149651215Y-106655968D01*
X149651219Y-106655966D01*
X149795966Y-106511219D01*
X149795968Y-106511215D01*
X149795971Y-106511213D01*
X149848732Y-106438590D01*
X149916287Y-106345610D01*
X150009220Y-106163219D01*
X150072477Y-105968534D01*
X150104500Y-105766352D01*
X150104500Y-105561648D01*
X150085385Y-105440965D01*
X150072477Y-105359465D01*
X150041458Y-105264000D01*
X150009220Y-105164781D01*
X150009218Y-105164778D01*
X150009218Y-105164776D01*
X149955685Y-105059713D01*
X149916287Y-104982390D01*
X149908556Y-104971749D01*
X149795971Y-104816786D01*
X149651213Y-104672028D01*
X149485613Y-104551715D01*
X149485612Y-104551714D01*
X149485610Y-104551713D01*
X149428653Y-104522691D01*
X149303223Y-104458781D01*
X149108534Y-104395522D01*
X148933995Y-104367878D01*
X148906352Y-104363500D01*
X148701648Y-104363500D01*
X148677329Y-104367351D01*
X148499465Y-104395522D01*
X148304776Y-104458781D01*
X148122386Y-104551715D01*
X147956786Y-104672028D01*
X147812028Y-104816786D01*
X147691715Y-104982386D01*
X147598781Y-105164776D01*
X147535522Y-105359465D01*
X147503500Y-105561648D01*
X145103995Y-105561648D01*
X145071990Y-105359582D01*
X145008755Y-105164968D01*
X144915859Y-104982650D01*
X144883474Y-104938077D01*
X144883474Y-104938076D01*
X144204000Y-105617551D01*
X144204000Y-105611339D01*
X144176741Y-105509606D01*
X144124080Y-105418394D01*
X144049606Y-105343920D01*
X143958394Y-105291259D01*
X143856661Y-105264000D01*
X143850446Y-105264000D01*
X144529922Y-104584524D01*
X144529921Y-104584523D01*
X144485359Y-104552147D01*
X144485350Y-104552141D01*
X144303031Y-104459244D01*
X144108417Y-104396009D01*
X143906317Y-104364000D01*
X143701683Y-104364000D01*
X143499582Y-104396009D01*
X143304968Y-104459244D01*
X143122644Y-104552143D01*
X143078077Y-104584523D01*
X143078077Y-104584524D01*
X143757554Y-105264000D01*
X143751339Y-105264000D01*
X143649606Y-105291259D01*
X143558394Y-105343920D01*
X143483920Y-105418394D01*
X143431259Y-105509606D01*
X143404000Y-105611339D01*
X143404000Y-105617553D01*
X142724524Y-104938077D01*
X142724523Y-104938077D01*
X142692143Y-104982644D01*
X142599244Y-105164968D01*
X142536009Y-105359582D01*
X142504000Y-105561682D01*
X138876500Y-105561682D01*
X138876500Y-99354577D01*
X141719500Y-99354577D01*
X141719500Y-101051422D01*
X141750290Y-101245826D01*
X141811117Y-101433029D01*
X141897359Y-101602288D01*
X141900476Y-101608405D01*
X142016172Y-101767646D01*
X142155354Y-101906828D01*
X142314595Y-102022524D01*
X142397455Y-102064743D01*
X142489970Y-102111882D01*
X142489972Y-102111882D01*
X142489975Y-102111884D01*
X142590317Y-102144487D01*
X142677173Y-102172709D01*
X142871578Y-102203500D01*
X142871583Y-102203500D01*
X143068422Y-102203500D01*
X143262826Y-102172709D01*
X143272702Y-102169500D01*
X143450025Y-102111884D01*
X143625405Y-102022524D01*
X143784646Y-101906828D01*
X143923828Y-101767646D01*
X144039524Y-101608405D01*
X144128884Y-101433025D01*
X144128884Y-101433022D01*
X144129795Y-101431236D01*
X144177769Y-101380440D01*
X144245590Y-101363644D01*
X144311725Y-101386181D01*
X144350765Y-101431235D01*
X144440904Y-101608143D01*
X144556555Y-101767321D01*
X144695678Y-101906444D01*
X144854856Y-102022095D01*
X145030162Y-102111418D01*
X145217283Y-102172218D01*
X145260000Y-102178984D01*
X145260000Y-100636012D01*
X145317007Y-100668925D01*
X145444174Y-100703000D01*
X145575826Y-100703000D01*
X145702993Y-100668925D01*
X145760000Y-100636012D01*
X145760000Y-102178983D01*
X145802716Y-102172218D01*
X145989837Y-102111418D01*
X146165143Y-102022095D01*
X146324321Y-101906444D01*
X146463444Y-101767321D01*
X146579097Y-101608141D01*
X146669234Y-101431236D01*
X146717208Y-101380439D01*
X146785029Y-101363644D01*
X146851164Y-101386181D01*
X146890204Y-101431235D01*
X146891115Y-101433024D01*
X146891116Y-101433025D01*
X146980476Y-101608405D01*
X147096172Y-101767646D01*
X147235354Y-101906828D01*
X147394595Y-102022524D01*
X147477455Y-102064743D01*
X147569970Y-102111882D01*
X147569972Y-102111882D01*
X147569975Y-102111884D01*
X147670317Y-102144487D01*
X147757173Y-102172709D01*
X147951578Y-102203500D01*
X147951583Y-102203500D01*
X148148422Y-102203500D01*
X148342826Y-102172709D01*
X148352702Y-102169500D01*
X148530025Y-102111884D01*
X148705405Y-102022524D01*
X148864646Y-101906828D01*
X149003828Y-101767646D01*
X149119524Y-101608405D01*
X149204539Y-101441553D01*
X149209515Y-101431787D01*
X149257489Y-101380990D01*
X149325310Y-101364195D01*
X149391445Y-101386732D01*
X149430485Y-101431787D01*
X149520474Y-101608403D01*
X149541823Y-101637787D01*
X149636172Y-101767646D01*
X149775354Y-101906828D01*
X149934595Y-102022524D01*
X150017455Y-102064743D01*
X150109970Y-102111882D01*
X150109972Y-102111882D01*
X150109975Y-102111884D01*
X150210317Y-102144487D01*
X150297173Y-102172709D01*
X150491578Y-102203500D01*
X150491583Y-102203500D01*
X150688422Y-102203500D01*
X150882826Y-102172709D01*
X150892702Y-102169500D01*
X151070025Y-102111884D01*
X151245405Y-102022524D01*
X151404646Y-101906828D01*
X151543828Y-101767646D01*
X151659524Y-101608405D01*
X151744539Y-101441553D01*
X151749515Y-101431787D01*
X151797489Y-101380990D01*
X151865310Y-101364195D01*
X151931445Y-101386732D01*
X151970485Y-101431787D01*
X152060474Y-101608403D01*
X152081823Y-101637787D01*
X152176172Y-101767646D01*
X152315354Y-101906828D01*
X152474595Y-102022524D01*
X152557455Y-102064743D01*
X152649970Y-102111882D01*
X152649972Y-102111882D01*
X152649975Y-102111884D01*
X152750317Y-102144487D01*
X152837173Y-102172709D01*
X153031578Y-102203500D01*
X153031583Y-102203500D01*
X153228422Y-102203500D01*
X153422826Y-102172709D01*
X153432702Y-102169500D01*
X153610025Y-102111884D01*
X153785405Y-102022524D01*
X153944646Y-101906828D01*
X154083828Y-101767646D01*
X154199524Y-101608405D01*
X154284539Y-101441553D01*
X154289515Y-101431787D01*
X154337489Y-101380990D01*
X154405310Y-101364195D01*
X154471445Y-101386732D01*
X154510485Y-101431787D01*
X154600474Y-101608403D01*
X154621823Y-101637787D01*
X154716172Y-101767646D01*
X154855354Y-101906828D01*
X155014595Y-102022524D01*
X155097455Y-102064743D01*
X155189970Y-102111882D01*
X155189972Y-102111882D01*
X155189975Y-102111884D01*
X155290317Y-102144487D01*
X155377173Y-102172709D01*
X155571578Y-102203500D01*
X155571583Y-102203500D01*
X155768422Y-102203500D01*
X155962826Y-102172709D01*
X155972702Y-102169500D01*
X156150025Y-102111884D01*
X156325405Y-102022524D01*
X156484646Y-101906828D01*
X156623828Y-101767646D01*
X156739524Y-101608405D01*
X156824539Y-101441553D01*
X156829515Y-101431787D01*
X156877489Y-101380990D01*
X156945310Y-101364195D01*
X157011445Y-101386732D01*
X157050485Y-101431787D01*
X157140474Y-101608403D01*
X157161823Y-101637787D01*
X157256172Y-101767646D01*
X157395354Y-101906828D01*
X157554595Y-102022524D01*
X157637455Y-102064743D01*
X157729970Y-102111882D01*
X157729972Y-102111882D01*
X157729975Y-102111884D01*
X157830317Y-102144487D01*
X157917173Y-102172709D01*
X158111578Y-102203500D01*
X158111583Y-102203500D01*
X158308422Y-102203500D01*
X158502826Y-102172709D01*
X158512702Y-102169500D01*
X158690025Y-102111884D01*
X158865405Y-102022524D01*
X159024646Y-101906828D01*
X159163828Y-101767646D01*
X159279524Y-101608405D01*
X159364539Y-101441553D01*
X159369515Y-101431787D01*
X159417489Y-101380990D01*
X159485310Y-101364195D01*
X159551445Y-101386732D01*
X159590485Y-101431787D01*
X159680474Y-101608403D01*
X159701823Y-101637787D01*
X159796172Y-101767646D01*
X159935354Y-101906828D01*
X160094595Y-102022524D01*
X160177455Y-102064743D01*
X160269970Y-102111882D01*
X160269972Y-102111882D01*
X160269975Y-102111884D01*
X160370317Y-102144487D01*
X160457173Y-102172709D01*
X160651578Y-102203500D01*
X160651583Y-102203500D01*
X160848422Y-102203500D01*
X161042826Y-102172709D01*
X161052702Y-102169500D01*
X161230025Y-102111884D01*
X161405405Y-102022524D01*
X161564646Y-101906828D01*
X161703828Y-101767646D01*
X161819524Y-101608405D01*
X161908884Y-101433025D01*
X161969709Y-101245826D01*
X161987975Y-101130499D01*
X162000500Y-101051422D01*
X162000500Y-100251153D01*
X164299500Y-100251153D01*
X164299500Y-100408846D01*
X164330261Y-100563489D01*
X164330264Y-100563501D01*
X164390602Y-100709172D01*
X164390609Y-100709185D01*
X164478210Y-100840288D01*
X164478213Y-100840292D01*
X164589707Y-100951786D01*
X164589711Y-100951789D01*
X164720814Y-101039390D01*
X164720827Y-101039397D01*
X164787031Y-101066819D01*
X164866503Y-101099737D01*
X165021153Y-101130499D01*
X165021156Y-101130500D01*
X165021158Y-101130500D01*
X165178844Y-101130500D01*
X165178845Y-101130499D01*
X165333497Y-101099737D01*
X165450153Y-101051417D01*
X165477864Y-101039939D01*
X165525316Y-101030500D01*
X169838481Y-101030500D01*
X169905520Y-101050185D01*
X169926162Y-101066819D01*
X173447928Y-104588585D01*
X173474808Y-104628814D01*
X173534602Y-104773172D01*
X173534605Y-104773178D01*
X173534606Y-104773179D01*
X173588402Y-104853691D01*
X173606966Y-104881473D01*
X173627844Y-104948150D01*
X173609360Y-105015530D01*
X173565686Y-105055771D01*
X173566542Y-105057168D01*
X173562389Y-105059712D01*
X173396786Y-105180028D01*
X173252028Y-105324786D01*
X173131715Y-105490386D01*
X173038781Y-105672776D01*
X172975522Y-105867465D01*
X172943500Y-106069648D01*
X172943500Y-106274351D01*
X172975522Y-106476534D01*
X173038781Y-106671223D01*
X173092097Y-106775859D01*
X173123993Y-106838459D01*
X173131715Y-106853613D01*
X173252028Y-107019213D01*
X173396786Y-107163971D01*
X173551749Y-107276556D01*
X173562390Y-107284287D01*
X173678607Y-107343503D01*
X173744776Y-107377218D01*
X173744778Y-107377218D01*
X173744781Y-107377220D01*
X173849137Y-107411127D01*
X173939465Y-107440477D01*
X174040557Y-107456488D01*
X174141648Y-107472500D01*
X174141649Y-107472500D01*
X174346351Y-107472500D01*
X174346352Y-107472500D01*
X174548534Y-107440477D01*
X174743219Y-107377220D01*
X174925610Y-107284287D01*
X175018590Y-107216732D01*
X175091213Y-107163971D01*
X175091215Y-107163968D01*
X175091219Y-107163966D01*
X175235966Y-107019219D01*
X175235968Y-107019215D01*
X175235971Y-107019213D01*
X175299341Y-106931990D01*
X175356287Y-106853610D01*
X175449220Y-106671219D01*
X175512477Y-106476534D01*
X175544500Y-106274352D01*
X175544500Y-106069648D01*
X175521797Y-105926309D01*
X175512477Y-105867465D01*
X175449218Y-105672776D01*
X175406253Y-105588453D01*
X175356287Y-105490390D01*
X175320378Y-105440965D01*
X175235971Y-105324786D01*
X175091213Y-105180028D01*
X174925610Y-105059712D01*
X174921458Y-105057168D01*
X174922366Y-105055685D01*
X174877035Y-105012859D01*
X174860250Y-104945035D01*
X174881034Y-104881473D01*
X174953394Y-104773179D01*
X175013737Y-104627497D01*
X175044500Y-104472842D01*
X175044500Y-104315158D01*
X175044500Y-104315155D01*
X175044499Y-104315153D01*
X175013738Y-104160510D01*
X175013737Y-104160503D01*
X175006162Y-104142214D01*
X174953397Y-104014827D01*
X174953390Y-104014814D01*
X174865789Y-103883711D01*
X174865786Y-103883707D01*
X174754292Y-103772213D01*
X174754288Y-103772210D01*
X174623185Y-103684609D01*
X174623172Y-103684602D01*
X174478814Y-103624808D01*
X174438585Y-103597928D01*
X171935405Y-101094747D01*
X171853811Y-101013153D01*
X176999500Y-101013153D01*
X176999500Y-101170846D01*
X177030261Y-101325489D01*
X177030264Y-101325501D01*
X177090602Y-101471172D01*
X177090609Y-101471185D01*
X177178210Y-101602288D01*
X177178213Y-101602292D01*
X177289707Y-101713786D01*
X177289711Y-101713789D01*
X177420814Y-101801390D01*
X177420827Y-101801397D01*
X177566498Y-101861735D01*
X177566503Y-101861737D01*
X177721153Y-101892499D01*
X177721156Y-101892500D01*
X177721158Y-101892500D01*
X177878844Y-101892500D01*
X177878845Y-101892499D01*
X178033497Y-101861737D01*
X178179179Y-101801394D01*
X178310289Y-101713789D01*
X178421789Y-101602289D01*
X178509394Y-101471179D01*
X178569193Y-101326809D01*
X178596070Y-101286584D01*
X180206351Y-99676304D01*
X185486500Y-99676304D01*
X185486500Y-99853695D01*
X185521103Y-100027658D01*
X185521106Y-100027667D01*
X185588983Y-100191540D01*
X185588990Y-100191553D01*
X185675557Y-100321109D01*
X185696435Y-100387787D01*
X185677950Y-100455167D01*
X185675557Y-100458891D01*
X185588990Y-100588446D01*
X185588983Y-100588459D01*
X185521106Y-100752332D01*
X185521103Y-100752341D01*
X185486500Y-100926304D01*
X185486500Y-101103695D01*
X185521103Y-101277658D01*
X185521106Y-101277667D01*
X185588983Y-101441540D01*
X185588990Y-101441553D01*
X185675557Y-101571109D01*
X185696435Y-101637787D01*
X185677950Y-101705167D01*
X185675557Y-101708891D01*
X185588990Y-101838446D01*
X185588983Y-101838459D01*
X185521106Y-102002332D01*
X185521103Y-102002341D01*
X185486500Y-102176304D01*
X185486500Y-102353695D01*
X185521103Y-102527658D01*
X185521106Y-102527667D01*
X185588983Y-102691540D01*
X185588990Y-102691553D01*
X185675557Y-102821109D01*
X185696435Y-102887787D01*
X185677950Y-102955167D01*
X185675557Y-102958891D01*
X185588990Y-103088446D01*
X185588983Y-103088459D01*
X185521106Y-103252332D01*
X185521103Y-103252341D01*
X185486500Y-103426304D01*
X185486500Y-103603695D01*
X185521103Y-103777658D01*
X185521106Y-103777667D01*
X185588983Y-103941540D01*
X185588990Y-103941553D01*
X185675557Y-104071109D01*
X185696435Y-104137787D01*
X185677950Y-104205167D01*
X185675557Y-104208891D01*
X185588990Y-104338446D01*
X185588983Y-104338459D01*
X185521106Y-104502332D01*
X185521103Y-104502341D01*
X185486500Y-104676304D01*
X185486500Y-104853695D01*
X185521103Y-105027658D01*
X185521106Y-105027667D01*
X185588983Y-105191540D01*
X185588990Y-105191553D01*
X185675557Y-105321109D01*
X185696435Y-105387787D01*
X185677950Y-105455167D01*
X185675557Y-105458891D01*
X185588990Y-105588446D01*
X185588983Y-105588459D01*
X185521106Y-105752332D01*
X185521103Y-105752341D01*
X185486500Y-105926304D01*
X185486500Y-106103695D01*
X185521103Y-106277658D01*
X185521106Y-106277667D01*
X185588983Y-106441540D01*
X185588990Y-106441553D01*
X185675557Y-106571109D01*
X185696435Y-106637787D01*
X185677950Y-106705167D01*
X185675557Y-106708891D01*
X185588990Y-106838446D01*
X185588983Y-106838459D01*
X185521106Y-107002332D01*
X185521103Y-107002341D01*
X185486500Y-107176304D01*
X185486500Y-107353695D01*
X185521103Y-107527658D01*
X185521106Y-107527667D01*
X185588983Y-107691540D01*
X185588990Y-107691553D01*
X185675557Y-107821109D01*
X185696435Y-107887787D01*
X185677950Y-107955167D01*
X185675557Y-107958891D01*
X185588990Y-108088446D01*
X185588983Y-108088459D01*
X185521106Y-108252332D01*
X185521103Y-108252341D01*
X185486500Y-108426304D01*
X185486500Y-108603695D01*
X185521103Y-108777658D01*
X185521106Y-108777667D01*
X185588983Y-108941540D01*
X185588991Y-108941555D01*
X185627265Y-108998834D01*
X185648144Y-109065511D01*
X185630281Y-109131875D01*
X185543523Y-109275391D01*
X185492913Y-109437807D01*
X185486500Y-109508386D01*
X185486500Y-110021613D01*
X185492913Y-110092192D01*
X185543522Y-110254606D01*
X185631530Y-110400188D01*
X185751811Y-110520469D01*
X185751813Y-110520470D01*
X185751815Y-110520472D01*
X185897394Y-110608478D01*
X186059804Y-110659086D01*
X186130384Y-110665500D01*
X186130387Y-110665500D01*
X187143613Y-110665500D01*
X187143616Y-110665500D01*
X187214196Y-110659086D01*
X187376606Y-110608478D01*
X187522185Y-110520472D01*
X187642472Y-110400185D01*
X187730478Y-110254606D01*
X187781086Y-110092196D01*
X187787500Y-110021616D01*
X187787500Y-109508384D01*
X187781086Y-109437804D01*
X187730478Y-109275394D01*
X187643716Y-109131873D01*
X187625881Y-109064322D01*
X187646731Y-108998839D01*
X187685013Y-108941547D01*
X187752894Y-108777666D01*
X187755377Y-108765187D01*
X187784737Y-108617581D01*
X187787500Y-108603691D01*
X187787500Y-108426309D01*
X187787500Y-108426306D01*
X187787499Y-108426304D01*
X187752896Y-108252341D01*
X187752893Y-108252332D01*
X187685016Y-108088459D01*
X187685014Y-108088455D01*
X187685013Y-108088453D01*
X187598442Y-107958891D01*
X187577564Y-107892214D01*
X187596048Y-107824834D01*
X187598442Y-107821109D01*
X187614352Y-107797296D01*
X187685013Y-107691547D01*
X187752894Y-107527666D01*
X187765607Y-107463757D01*
X187787499Y-107353695D01*
X187787500Y-107353693D01*
X187787500Y-107176306D01*
X187787499Y-107176304D01*
X187752896Y-107002341D01*
X187752893Y-107002332D01*
X187685016Y-106838459D01*
X187685014Y-106838455D01*
X187685013Y-106838453D01*
X187598442Y-106708891D01*
X187577564Y-106642214D01*
X187596048Y-106574834D01*
X187598442Y-106571109D01*
X187661635Y-106476534D01*
X187685013Y-106441547D01*
X187752894Y-106277666D01*
X187753554Y-106274352D01*
X187787499Y-106103695D01*
X187787500Y-106103693D01*
X187787500Y-105926306D01*
X187787499Y-105926304D01*
X187752896Y-105752341D01*
X187752893Y-105752332D01*
X187685016Y-105588459D01*
X187685014Y-105588455D01*
X187685013Y-105588453D01*
X187598442Y-105458891D01*
X187577564Y-105392214D01*
X187596048Y-105324834D01*
X187598442Y-105321109D01*
X187636601Y-105264000D01*
X187685013Y-105191547D01*
X187752894Y-105027666D01*
X187755840Y-105012859D01*
X187787499Y-104853695D01*
X187787500Y-104853693D01*
X187787500Y-104676306D01*
X187787499Y-104676304D01*
X187752896Y-104502341D01*
X187752893Y-104502332D01*
X187685016Y-104338459D01*
X187685014Y-104338455D01*
X187685013Y-104338453D01*
X187598442Y-104208891D01*
X187577564Y-104142214D01*
X187596048Y-104074834D01*
X187598442Y-104071109D01*
X187614352Y-104047296D01*
X187685013Y-103941547D01*
X187752894Y-103777666D01*
X187753980Y-103772210D01*
X187780330Y-103639735D01*
X187787500Y-103603691D01*
X187787500Y-103426309D01*
X187787500Y-103426306D01*
X187787499Y-103426304D01*
X187752896Y-103252341D01*
X187752893Y-103252332D01*
X187751589Y-103249185D01*
X187691246Y-103103501D01*
X187685016Y-103088459D01*
X187685014Y-103088455D01*
X187685013Y-103088453D01*
X187598442Y-102958891D01*
X187577564Y-102892214D01*
X187596048Y-102824834D01*
X187598442Y-102821109D01*
X187618458Y-102791153D01*
X187685013Y-102691547D01*
X187752894Y-102527666D01*
X187760225Y-102490814D01*
X187775964Y-102411682D01*
X187787500Y-102353691D01*
X187787500Y-102176309D01*
X187787500Y-102176306D01*
X187787499Y-102176304D01*
X187752896Y-102002341D01*
X187752893Y-102002332D01*
X187685016Y-101838459D01*
X187685014Y-101838455D01*
X187685013Y-101838453D01*
X187660248Y-101801390D01*
X187598442Y-101708891D01*
X187577564Y-101642214D01*
X187596048Y-101574834D01*
X187598442Y-101571109D01*
X187649940Y-101494037D01*
X187685013Y-101441547D01*
X187752894Y-101277666D01*
X187759228Y-101245826D01*
X187782167Y-101130500D01*
X187787500Y-101103691D01*
X187787500Y-100926309D01*
X187787500Y-100926306D01*
X187787499Y-100926304D01*
X187752896Y-100752341D01*
X187752893Y-100752332D01*
X187685016Y-100588459D01*
X187685014Y-100588455D01*
X187685013Y-100588453D01*
X187680505Y-100581707D01*
X187598442Y-100458891D01*
X187577564Y-100392214D01*
X187596048Y-100324834D01*
X187598442Y-100321109D01*
X187652153Y-100240725D01*
X187685013Y-100191547D01*
X187752894Y-100027666D01*
X187787500Y-99853691D01*
X187787500Y-99676309D01*
X187787500Y-99676306D01*
X187787499Y-99676304D01*
X187752896Y-99502341D01*
X187752893Y-99502332D01*
X187685016Y-99338459D01*
X187685014Y-99338455D01*
X187685013Y-99338453D01*
X187598140Y-99208440D01*
X187577263Y-99141764D01*
X187595747Y-99074384D01*
X187598141Y-99070659D01*
X187684566Y-98941315D01*
X187684571Y-98941306D01*
X187752412Y-98777523D01*
X187752415Y-98777516D01*
X187754904Y-98765000D01*
X186686728Y-98765000D01*
X186778614Y-98726940D01*
X186848940Y-98656614D01*
X186887000Y-98564728D01*
X186887000Y-98465272D01*
X186848940Y-98373386D01*
X186778614Y-98303060D01*
X186686728Y-98265000D01*
X186887000Y-98265000D01*
X187754904Y-98265000D01*
X187752415Y-98252483D01*
X187752412Y-98252476D01*
X187684571Y-98088693D01*
X187684566Y-98088683D01*
X187586076Y-97941283D01*
X187586073Y-97941279D01*
X187460720Y-97815926D01*
X187460716Y-97815923D01*
X187313316Y-97717433D01*
X187313307Y-97717428D01*
X187149520Y-97649586D01*
X187149512Y-97649584D01*
X186975646Y-97615000D01*
X186887000Y-97615000D01*
X186887000Y-98265000D01*
X186686728Y-98265000D01*
X186587272Y-98265000D01*
X186495386Y-98303060D01*
X186425060Y-98373386D01*
X186387000Y-98465272D01*
X186387000Y-98564728D01*
X186425060Y-98656614D01*
X186495386Y-98726940D01*
X186587272Y-98765000D01*
X185519096Y-98765000D01*
X185521584Y-98777516D01*
X185521587Y-98777523D01*
X185589428Y-98941306D01*
X185589433Y-98941316D01*
X185675858Y-99070659D01*
X185696736Y-99137336D01*
X185678252Y-99204717D01*
X185675858Y-99208441D01*
X185588990Y-99338446D01*
X185588983Y-99338459D01*
X185521106Y-99502332D01*
X185521103Y-99502341D01*
X185486500Y-99676304D01*
X180206351Y-99676304D01*
X180828113Y-99054543D01*
X180831898Y-99048878D01*
X180835602Y-99043337D01*
X180904774Y-98939813D01*
X180904776Y-98939809D01*
X180957578Y-98812332D01*
X180957580Y-98812328D01*
X180966994Y-98765000D01*
X180984500Y-98676995D01*
X180984500Y-98265000D01*
X185519096Y-98265000D01*
X186387000Y-98265000D01*
X186387000Y-97615000D01*
X186298353Y-97615000D01*
X186124487Y-97649584D01*
X186124479Y-97649586D01*
X185960692Y-97717428D01*
X185960683Y-97717433D01*
X185813283Y-97815923D01*
X185813279Y-97815926D01*
X185687926Y-97941279D01*
X185687923Y-97941283D01*
X185589433Y-98088683D01*
X185589428Y-98088693D01*
X185521587Y-98252476D01*
X185521584Y-98252483D01*
X185519096Y-98265000D01*
X180984500Y-98265000D01*
X180984500Y-89667984D01*
X183833500Y-89667984D01*
X183833500Y-90768015D01*
X183844000Y-90870795D01*
X183844001Y-90870796D01*
X183899186Y-91037335D01*
X183899187Y-91037337D01*
X183991286Y-91186651D01*
X183991289Y-91186655D01*
X184115344Y-91310710D01*
X184115348Y-91310713D01*
X184264662Y-91402812D01*
X184264664Y-91402813D01*
X184264666Y-91402814D01*
X184431203Y-91457999D01*
X184533992Y-91468500D01*
X184533997Y-91468500D01*
X187534003Y-91468500D01*
X187534008Y-91468500D01*
X187636797Y-91457999D01*
X187803334Y-91402814D01*
X187952655Y-91310711D01*
X188076711Y-91186655D01*
X188168814Y-91037334D01*
X188223999Y-90870797D01*
X188234500Y-90768008D01*
X188234500Y-89667992D01*
X188223999Y-89565203D01*
X188168814Y-89398666D01*
X188076711Y-89249345D01*
X187952655Y-89125289D01*
X187952651Y-89125286D01*
X187803337Y-89033187D01*
X187803335Y-89033186D01*
X187680549Y-88992499D01*
X187636797Y-88978001D01*
X187636795Y-88978000D01*
X187534015Y-88967500D01*
X187534008Y-88967500D01*
X184533992Y-88967500D01*
X184533984Y-88967500D01*
X184431204Y-88978000D01*
X184431203Y-88978001D01*
X184264664Y-89033186D01*
X184264662Y-89033187D01*
X184115348Y-89125286D01*
X184115344Y-89125289D01*
X183991289Y-89249344D01*
X183991286Y-89249348D01*
X183899187Y-89398662D01*
X183899186Y-89398664D01*
X183844001Y-89565203D01*
X183844000Y-89565204D01*
X183833500Y-89667984D01*
X180984500Y-89667984D01*
X180984500Y-88992499D01*
X181004185Y-88925460D01*
X181056989Y-88879705D01*
X181108500Y-88868499D01*
X181834002Y-88868499D01*
X181834008Y-88868499D01*
X181936797Y-88857999D01*
X182103334Y-88802814D01*
X182252656Y-88710712D01*
X182376712Y-88586656D01*
X182468814Y-88437334D01*
X182523999Y-88270797D01*
X182534500Y-88168009D01*
X182534499Y-87567992D01*
X182523999Y-87465203D01*
X182468814Y-87298666D01*
X182376712Y-87149344D01*
X182252656Y-87025288D01*
X182168279Y-86973244D01*
X182121556Y-86921297D01*
X182110333Y-86852334D01*
X182138177Y-86788252D01*
X182168281Y-86762167D01*
X182252343Y-86710317D01*
X182376315Y-86586345D01*
X182468356Y-86437124D01*
X182468358Y-86437119D01*
X182523505Y-86270697D01*
X182523506Y-86270690D01*
X182533999Y-86167986D01*
X182534000Y-86167973D01*
X182534000Y-86118000D01*
X178034001Y-86118000D01*
X178034001Y-86167986D01*
X178044494Y-86270697D01*
X178099641Y-86437119D01*
X178099643Y-86437124D01*
X178191684Y-86586345D01*
X178315654Y-86710315D01*
X178399719Y-86762167D01*
X178446443Y-86814115D01*
X178457666Y-86883078D01*
X178429822Y-86947160D01*
X178399719Y-86973244D01*
X178315347Y-87025285D01*
X178315343Y-87025288D01*
X178191289Y-87149342D01*
X178099187Y-87298663D01*
X178099186Y-87298666D01*
X178044001Y-87465203D01*
X178044001Y-87465204D01*
X178044000Y-87465204D01*
X178033500Y-87567983D01*
X178033500Y-88168001D01*
X178033501Y-88168019D01*
X178044000Y-88270796D01*
X178044001Y-88270799D01*
X178099185Y-88437331D01*
X178099186Y-88437334D01*
X178191288Y-88586656D01*
X178315344Y-88710712D01*
X178464666Y-88802814D01*
X178631203Y-88857999D01*
X178733991Y-88868500D01*
X179459500Y-88868499D01*
X179526539Y-88888183D01*
X179572294Y-88940987D01*
X179583500Y-88992499D01*
X179583500Y-98266481D01*
X179563815Y-98333520D01*
X179547181Y-98354162D01*
X177605414Y-100295928D01*
X177565186Y-100322808D01*
X177420823Y-100382604D01*
X177420814Y-100382609D01*
X177289711Y-100470210D01*
X177289707Y-100470213D01*
X177178213Y-100581707D01*
X177178210Y-100581711D01*
X177090609Y-100712814D01*
X177090602Y-100712827D01*
X177030264Y-100858498D01*
X177030261Y-100858510D01*
X176999500Y-101013153D01*
X171853811Y-101013153D01*
X170626545Y-99785887D01*
X170511807Y-99709222D01*
X170384332Y-99656421D01*
X170384322Y-99656418D01*
X170248996Y-99629500D01*
X170248994Y-99629500D01*
X170248993Y-99629500D01*
X165525316Y-99629500D01*
X165477864Y-99620061D01*
X165333501Y-99560264D01*
X165333489Y-99560261D01*
X165178845Y-99529500D01*
X165178842Y-99529500D01*
X165021158Y-99529500D01*
X165021155Y-99529500D01*
X164866510Y-99560261D01*
X164866498Y-99560264D01*
X164720827Y-99620602D01*
X164720814Y-99620609D01*
X164589711Y-99708210D01*
X164589707Y-99708213D01*
X164478213Y-99819707D01*
X164478210Y-99819711D01*
X164390609Y-99950814D01*
X164390602Y-99950827D01*
X164330264Y-100096498D01*
X164330261Y-100096510D01*
X164299500Y-100251153D01*
X162000500Y-100251153D01*
X162000500Y-99354577D01*
X161969709Y-99160173D01*
X161908882Y-98972970D01*
X161857346Y-98871826D01*
X161819524Y-98797595D01*
X161703828Y-98638354D01*
X161564646Y-98499172D01*
X161405405Y-98383476D01*
X161347873Y-98354162D01*
X161230029Y-98294117D01*
X161042826Y-98233290D01*
X160848422Y-98202500D01*
X160848417Y-98202500D01*
X160651583Y-98202500D01*
X160651578Y-98202500D01*
X160457173Y-98233290D01*
X160269970Y-98294117D01*
X160094594Y-98383476D01*
X160003741Y-98449485D01*
X159935354Y-98499172D01*
X159935352Y-98499174D01*
X159935351Y-98499174D01*
X159796174Y-98638351D01*
X159796174Y-98638352D01*
X159796172Y-98638354D01*
X159768099Y-98676993D01*
X159680476Y-98797594D01*
X159590485Y-98974213D01*
X159542511Y-99025009D01*
X159474690Y-99041804D01*
X159408555Y-99019267D01*
X159369515Y-98974213D01*
X159317346Y-98871826D01*
X159279524Y-98797595D01*
X159163828Y-98638354D01*
X159024646Y-98499172D01*
X158865405Y-98383476D01*
X158807873Y-98354162D01*
X158690029Y-98294117D01*
X158502826Y-98233290D01*
X158308422Y-98202500D01*
X158308417Y-98202500D01*
X158111583Y-98202500D01*
X158111578Y-98202500D01*
X157917173Y-98233290D01*
X157729970Y-98294117D01*
X157554594Y-98383476D01*
X157463741Y-98449485D01*
X157395354Y-98499172D01*
X157395352Y-98499174D01*
X157395351Y-98499174D01*
X157256174Y-98638351D01*
X157256174Y-98638352D01*
X157256172Y-98638354D01*
X157228099Y-98676993D01*
X157140476Y-98797594D01*
X157050485Y-98974213D01*
X157002511Y-99025009D01*
X156934690Y-99041804D01*
X156868555Y-99019267D01*
X156829515Y-98974213D01*
X156777346Y-98871826D01*
X156739524Y-98797595D01*
X156623828Y-98638354D01*
X156484646Y-98499172D01*
X156325405Y-98383476D01*
X156267873Y-98354162D01*
X156150029Y-98294117D01*
X155962826Y-98233290D01*
X155768422Y-98202500D01*
X155768417Y-98202500D01*
X155571583Y-98202500D01*
X155571578Y-98202500D01*
X155377173Y-98233290D01*
X155189970Y-98294117D01*
X155014594Y-98383476D01*
X154923741Y-98449485D01*
X154855354Y-98499172D01*
X154855352Y-98499174D01*
X154855351Y-98499174D01*
X154716174Y-98638351D01*
X154716174Y-98638352D01*
X154716172Y-98638354D01*
X154688099Y-98676993D01*
X154600476Y-98797594D01*
X154510485Y-98974213D01*
X154462511Y-99025009D01*
X154394690Y-99041804D01*
X154328555Y-99019267D01*
X154289515Y-98974213D01*
X154237346Y-98871826D01*
X154199524Y-98797595D01*
X154083828Y-98638354D01*
X153944646Y-98499172D01*
X153785405Y-98383476D01*
X153727873Y-98354162D01*
X153610029Y-98294117D01*
X153422826Y-98233290D01*
X153228422Y-98202500D01*
X153228417Y-98202500D01*
X153031583Y-98202500D01*
X153031578Y-98202500D01*
X152837173Y-98233290D01*
X152649970Y-98294117D01*
X152474594Y-98383476D01*
X152383741Y-98449485D01*
X152315354Y-98499172D01*
X152315352Y-98499174D01*
X152315351Y-98499174D01*
X152176174Y-98638351D01*
X152176174Y-98638352D01*
X152176172Y-98638354D01*
X152148099Y-98676993D01*
X152060476Y-98797594D01*
X151970485Y-98974213D01*
X151922511Y-99025009D01*
X151854690Y-99041804D01*
X151788555Y-99019267D01*
X151749515Y-98974213D01*
X151697346Y-98871826D01*
X151659524Y-98797595D01*
X151543828Y-98638354D01*
X151404646Y-98499172D01*
X151245405Y-98383476D01*
X151187873Y-98354162D01*
X151070029Y-98294117D01*
X150882826Y-98233290D01*
X150688422Y-98202500D01*
X150688417Y-98202500D01*
X150491583Y-98202500D01*
X150491578Y-98202500D01*
X150297173Y-98233290D01*
X150109970Y-98294117D01*
X149934594Y-98383476D01*
X149843741Y-98449485D01*
X149775354Y-98499172D01*
X149775352Y-98499174D01*
X149775351Y-98499174D01*
X149636174Y-98638351D01*
X149636174Y-98638352D01*
X149636172Y-98638354D01*
X149608099Y-98676993D01*
X149520476Y-98797594D01*
X149430485Y-98974213D01*
X149382511Y-99025009D01*
X149314690Y-99041804D01*
X149248555Y-99019267D01*
X149209515Y-98974213D01*
X149157346Y-98871826D01*
X149119524Y-98797595D01*
X149003828Y-98638354D01*
X148864646Y-98499172D01*
X148705405Y-98383476D01*
X148647873Y-98354162D01*
X148530029Y-98294117D01*
X148342826Y-98233290D01*
X148148422Y-98202500D01*
X148148417Y-98202500D01*
X147951583Y-98202500D01*
X147951578Y-98202500D01*
X147757173Y-98233290D01*
X147569970Y-98294117D01*
X147394594Y-98383476D01*
X147303741Y-98449485D01*
X147235354Y-98499172D01*
X147235352Y-98499174D01*
X147235351Y-98499174D01*
X147096174Y-98638351D01*
X147096174Y-98638352D01*
X147096172Y-98638354D01*
X147068099Y-98676993D01*
X146980476Y-98797594D01*
X146890204Y-98974764D01*
X146842229Y-99025560D01*
X146774408Y-99042355D01*
X146708274Y-99019818D01*
X146669234Y-98974764D01*
X146579095Y-98797856D01*
X146463444Y-98638678D01*
X146324321Y-98499555D01*
X146165143Y-98383904D01*
X145989835Y-98294581D01*
X145802705Y-98233778D01*
X145760000Y-98227014D01*
X145760000Y-99769988D01*
X145702993Y-99737075D01*
X145575826Y-99703000D01*
X145444174Y-99703000D01*
X145317007Y-99737075D01*
X145260000Y-99769988D01*
X145260000Y-98227014D01*
X145259999Y-98227014D01*
X145217294Y-98233778D01*
X145030164Y-98294581D01*
X144854856Y-98383904D01*
X144695678Y-98499555D01*
X144556555Y-98638678D01*
X144440904Y-98797856D01*
X144350765Y-98974764D01*
X144302790Y-99025560D01*
X144234969Y-99042355D01*
X144168834Y-99019817D01*
X144129795Y-98974763D01*
X144039525Y-98797596D01*
X143997805Y-98740174D01*
X143923828Y-98638354D01*
X143784646Y-98499172D01*
X143625405Y-98383476D01*
X143567873Y-98354162D01*
X143450029Y-98294117D01*
X143262826Y-98233290D01*
X143068422Y-98202500D01*
X143068417Y-98202500D01*
X142871583Y-98202500D01*
X142871578Y-98202500D01*
X142677173Y-98233290D01*
X142489970Y-98294117D01*
X142314594Y-98383476D01*
X142223741Y-98449485D01*
X142155354Y-98499172D01*
X142155352Y-98499174D01*
X142155351Y-98499174D01*
X142016174Y-98638351D01*
X142016174Y-98638352D01*
X142016172Y-98638354D01*
X141988099Y-98676993D01*
X141900476Y-98797594D01*
X141811117Y-98972970D01*
X141750290Y-99160173D01*
X141719500Y-99354577D01*
X138876500Y-99354577D01*
X138876500Y-96705004D01*
X138849581Y-96569677D01*
X138849580Y-96569676D01*
X138849580Y-96569672D01*
X138823731Y-96507267D01*
X138796778Y-96442195D01*
X138796771Y-96442182D01*
X138720115Y-96327459D01*
X138709190Y-96316534D01*
X138622542Y-96229886D01*
X138302304Y-95909648D01*
X167863500Y-95909648D01*
X167863500Y-96114351D01*
X167895522Y-96316534D01*
X167958781Y-96511223D01*
X168051715Y-96693613D01*
X168172028Y-96859213D01*
X168316786Y-97003971D01*
X168470320Y-97115518D01*
X168482390Y-97124287D01*
X168598607Y-97183503D01*
X168664776Y-97217218D01*
X168664778Y-97217218D01*
X168664781Y-97217220D01*
X168769137Y-97251127D01*
X168859465Y-97280477D01*
X168960557Y-97296488D01*
X169061648Y-97312500D01*
X169061649Y-97312500D01*
X169266351Y-97312500D01*
X169266352Y-97312500D01*
X169468534Y-97280477D01*
X169663219Y-97217220D01*
X169845610Y-97124287D01*
X169938590Y-97056732D01*
X170011213Y-97003971D01*
X170011215Y-97003968D01*
X170011219Y-97003966D01*
X170155966Y-96859219D01*
X170155968Y-96859215D01*
X170155971Y-96859213D01*
X170208732Y-96786590D01*
X170276287Y-96693610D01*
X170369220Y-96511219D01*
X170432477Y-96316534D01*
X170464500Y-96114352D01*
X170464500Y-95909648D01*
X172943500Y-95909648D01*
X172943500Y-96114351D01*
X172975522Y-96316534D01*
X173038781Y-96511223D01*
X173131715Y-96693613D01*
X173252028Y-96859213D01*
X173396786Y-97003971D01*
X173550320Y-97115518D01*
X173562390Y-97124287D01*
X173678607Y-97183503D01*
X173744776Y-97217218D01*
X173744778Y-97217218D01*
X173744781Y-97217220D01*
X173849137Y-97251127D01*
X173939465Y-97280477D01*
X174040557Y-97296488D01*
X174141648Y-97312500D01*
X174141649Y-97312500D01*
X174346351Y-97312500D01*
X174346352Y-97312500D01*
X174548534Y-97280477D01*
X174743219Y-97217220D01*
X174925610Y-97124287D01*
X175018590Y-97056732D01*
X175091213Y-97003971D01*
X175091215Y-97003968D01*
X175091219Y-97003966D01*
X175235966Y-96859219D01*
X175235968Y-96859215D01*
X175235971Y-96859213D01*
X175288732Y-96786590D01*
X175356287Y-96693610D01*
X175449220Y-96511219D01*
X175512477Y-96316534D01*
X175544500Y-96114352D01*
X175544500Y-95909648D01*
X175512477Y-95707466D01*
X175449220Y-95512781D01*
X175449218Y-95512778D01*
X175449218Y-95512776D01*
X175415503Y-95446607D01*
X175356287Y-95330390D01*
X175340830Y-95309115D01*
X175235971Y-95164786D01*
X175091213Y-95020028D01*
X174925613Y-94899715D01*
X174925612Y-94899714D01*
X174925610Y-94899713D01*
X174868653Y-94870691D01*
X174743223Y-94806781D01*
X174548534Y-94743522D01*
X174373995Y-94715878D01*
X174346352Y-94711500D01*
X174141648Y-94711500D01*
X174117329Y-94715351D01*
X173939465Y-94743522D01*
X173744776Y-94806781D01*
X173562386Y-94899715D01*
X173396786Y-95020028D01*
X173252028Y-95164786D01*
X173131715Y-95330386D01*
X173038781Y-95512776D01*
X172975522Y-95707465D01*
X172943500Y-95909648D01*
X170464500Y-95909648D01*
X170432477Y-95707466D01*
X170369220Y-95512781D01*
X170369218Y-95512778D01*
X170369218Y-95512776D01*
X170335503Y-95446607D01*
X170276287Y-95330390D01*
X170260830Y-95309115D01*
X170155971Y-95164786D01*
X170011213Y-95020028D01*
X169845613Y-94899715D01*
X169845612Y-94899714D01*
X169845610Y-94899713D01*
X169788653Y-94870691D01*
X169663223Y-94806781D01*
X169468534Y-94743522D01*
X169293995Y-94715878D01*
X169266352Y-94711500D01*
X169061648Y-94711500D01*
X169037329Y-94715351D01*
X168859465Y-94743522D01*
X168664776Y-94806781D01*
X168482386Y-94899715D01*
X168316786Y-95020028D01*
X168172028Y-95164786D01*
X168051715Y-95330386D01*
X167958781Y-95512776D01*
X167895522Y-95707465D01*
X167863500Y-95909648D01*
X138302304Y-95909648D01*
X133864599Y-91471942D01*
X133831114Y-91410619D01*
X133829807Y-91364868D01*
X133842500Y-91284731D01*
X133842500Y-91087269D01*
X133842500Y-91087263D01*
X133811610Y-90892236D01*
X133771248Y-90768015D01*
X133750591Y-90704439D01*
X133660944Y-90528499D01*
X133653486Y-90518234D01*
X133544884Y-90368753D01*
X133405246Y-90229115D01*
X133245505Y-90113058D01*
X133239119Y-90109804D01*
X133075593Y-90026482D01*
X133024800Y-89978510D01*
X133008005Y-89910689D01*
X133030542Y-89844554D01*
X133075593Y-89805517D01*
X133245501Y-89718944D01*
X133315642Y-89667984D01*
X133405246Y-89602884D01*
X133405248Y-89602881D01*
X133405252Y-89602879D01*
X133544879Y-89463252D01*
X133544881Y-89463248D01*
X133544884Y-89463246D01*
X133595779Y-89393192D01*
X133660944Y-89303501D01*
X133750591Y-89127561D01*
X133811610Y-88939763D01*
X133818833Y-88894158D01*
X133842500Y-88744736D01*
X133842500Y-88547263D01*
X133811610Y-88352236D01*
X133751753Y-88168016D01*
X133750591Y-88164439D01*
X133660944Y-87988499D01*
X133653486Y-87978234D01*
X133544884Y-87828753D01*
X133405246Y-87689115D01*
X133245505Y-87573058D01*
X133235539Y-87567980D01*
X133075593Y-87486482D01*
X133024800Y-87438510D01*
X133008005Y-87370689D01*
X133030542Y-87304554D01*
X133075593Y-87265517D01*
X133245501Y-87178944D01*
X133286245Y-87149342D01*
X133405246Y-87062884D01*
X133405248Y-87062881D01*
X133405252Y-87062879D01*
X133544879Y-86923252D01*
X133544881Y-86923248D01*
X133544884Y-86923246D01*
X133642961Y-86788252D01*
X133660944Y-86763501D01*
X133750591Y-86587561D01*
X133811610Y-86399763D01*
X133842500Y-86204736D01*
X133842500Y-86007263D01*
X133811610Y-85812236D01*
X133796645Y-85766181D01*
X133750591Y-85624439D01*
X133721840Y-85568013D01*
X178034000Y-85568013D01*
X178034000Y-85618000D01*
X180034000Y-85618000D01*
X180534000Y-85618000D01*
X182533999Y-85618000D01*
X182533999Y-85568028D01*
X182533998Y-85568013D01*
X182523505Y-85465302D01*
X182468358Y-85298880D01*
X182468356Y-85298875D01*
X182376315Y-85149654D01*
X182252345Y-85025684D01*
X182103124Y-84933643D01*
X182103119Y-84933641D01*
X181936697Y-84878494D01*
X181936690Y-84878493D01*
X181833986Y-84868000D01*
X180534000Y-84868000D01*
X180534000Y-85618000D01*
X180034000Y-85618000D01*
X180034000Y-84868000D01*
X178734028Y-84868000D01*
X178734012Y-84868001D01*
X178631302Y-84878494D01*
X178464880Y-84933641D01*
X178464875Y-84933643D01*
X178315654Y-85025684D01*
X178191684Y-85149654D01*
X178099643Y-85298875D01*
X178099641Y-85298880D01*
X178044494Y-85465302D01*
X178044493Y-85465309D01*
X178034000Y-85568013D01*
X133721840Y-85568013D01*
X133660944Y-85448499D01*
X133653486Y-85438234D01*
X133544884Y-85288753D01*
X133405246Y-85149115D01*
X133245505Y-85033058D01*
X133231033Y-85025684D01*
X133075593Y-84946482D01*
X133024800Y-84898510D01*
X133008005Y-84830689D01*
X133030542Y-84764554D01*
X133075593Y-84725517D01*
X133245501Y-84638944D01*
X133284362Y-84610710D01*
X133405246Y-84522884D01*
X133405248Y-84522881D01*
X133405252Y-84522879D01*
X133544879Y-84383252D01*
X133544881Y-84383248D01*
X133544884Y-84383246D01*
X133595779Y-84313192D01*
X133660944Y-84223501D01*
X133750591Y-84047561D01*
X133811610Y-83859763D01*
X133842500Y-83664736D01*
X133842500Y-83467263D01*
X133811610Y-83272236D01*
X133796645Y-83226181D01*
X133750591Y-83084439D01*
X133691253Y-82967984D01*
X183833500Y-82967984D01*
X183833500Y-84068015D01*
X183844000Y-84170795D01*
X183844001Y-84170797D01*
X183871593Y-84254065D01*
X183899186Y-84337335D01*
X183899187Y-84337337D01*
X183991286Y-84486651D01*
X183991289Y-84486655D01*
X184115344Y-84610710D01*
X184115348Y-84610713D01*
X184264662Y-84702812D01*
X184264664Y-84702813D01*
X184264666Y-84702814D01*
X184431203Y-84757999D01*
X184533992Y-84768500D01*
X184533997Y-84768500D01*
X187534003Y-84768500D01*
X187534008Y-84768500D01*
X187636797Y-84757999D01*
X187803334Y-84702814D01*
X187952655Y-84610711D01*
X188076711Y-84486655D01*
X188168814Y-84337334D01*
X188223999Y-84170797D01*
X188234500Y-84068008D01*
X188234500Y-82967992D01*
X188223999Y-82865203D01*
X188168814Y-82698666D01*
X188076711Y-82549345D01*
X187952655Y-82425289D01*
X187952651Y-82425286D01*
X187803337Y-82333187D01*
X187803335Y-82333186D01*
X187707142Y-82301311D01*
X187636797Y-82278001D01*
X187636795Y-82278000D01*
X187534015Y-82267500D01*
X187534008Y-82267500D01*
X184533992Y-82267500D01*
X184533984Y-82267500D01*
X184431204Y-82278000D01*
X184431203Y-82278001D01*
X184264664Y-82333186D01*
X184264662Y-82333187D01*
X184115348Y-82425286D01*
X184115344Y-82425289D01*
X183991289Y-82549344D01*
X183991286Y-82549348D01*
X183899187Y-82698662D01*
X183899186Y-82698664D01*
X183844001Y-82865203D01*
X183844000Y-82865204D01*
X183833500Y-82967984D01*
X133691253Y-82967984D01*
X133660944Y-82908499D01*
X133660942Y-82908496D01*
X133660941Y-82908494D01*
X133544884Y-82748753D01*
X133405246Y-82609115D01*
X133245505Y-82493058D01*
X133239119Y-82489804D01*
X133075593Y-82406482D01*
X133024800Y-82358510D01*
X133008005Y-82290689D01*
X133030542Y-82224554D01*
X133075593Y-82185517D01*
X133245501Y-82098944D01*
X133344453Y-82027052D01*
X133405246Y-81982884D01*
X133405248Y-81982881D01*
X133405252Y-81982879D01*
X133544879Y-81843252D01*
X133544881Y-81843248D01*
X133544884Y-81843246D01*
X133610071Y-81753522D01*
X133660944Y-81683501D01*
X133750591Y-81507561D01*
X133811610Y-81319763D01*
X133834692Y-81174030D01*
X133842500Y-81124736D01*
X133842500Y-80927263D01*
X133811610Y-80732236D01*
X133791270Y-80669637D01*
X133750591Y-80544439D01*
X133660944Y-80368499D01*
X133653486Y-80358234D01*
X133544884Y-80208753D01*
X133405246Y-80069115D01*
X133245504Y-79953058D01*
X133245503Y-79953057D01*
X133245501Y-79953056D01*
X133069561Y-79863409D01*
X133069558Y-79863408D01*
X132881763Y-79802389D01*
X132686736Y-79771500D01*
X132686731Y-79771500D01*
X132489269Y-79771500D01*
X132489264Y-79771500D01*
X132294236Y-79802389D01*
X132106441Y-79863408D01*
X131930495Y-79953058D01*
X131770753Y-80069115D01*
X131631115Y-80208753D01*
X131515058Y-80368495D01*
X131425408Y-80544441D01*
X131364389Y-80732236D01*
X131333500Y-80927263D01*
X131333500Y-81124736D01*
X131364389Y-81319763D01*
X131425408Y-81507558D01*
X131425409Y-81507561D01*
X131515056Y-81683501D01*
X131515058Y-81683504D01*
X131631115Y-81843246D01*
X131770753Y-81982884D01*
X131920234Y-82091486D01*
X131930499Y-82098944D01*
X132100404Y-82185516D01*
X132151199Y-82233490D01*
X132167994Y-82301311D01*
X132145456Y-82367446D01*
X132100404Y-82406483D01*
X132063498Y-82425289D01*
X131930495Y-82493058D01*
X131770753Y-82609115D01*
X131631115Y-82748753D01*
X131515058Y-82908495D01*
X131425408Y-83084441D01*
X131364389Y-83272236D01*
X131333500Y-83467263D01*
X131333500Y-83664736D01*
X131364389Y-83859763D01*
X131425408Y-84047558D01*
X131425409Y-84047561D01*
X131488202Y-84170797D01*
X131515058Y-84223504D01*
X131631115Y-84383246D01*
X131770753Y-84522884D01*
X131891638Y-84610710D01*
X131930499Y-84638944D01*
X132100404Y-84725516D01*
X132151199Y-84773490D01*
X132167994Y-84841311D01*
X132145456Y-84907446D01*
X132100404Y-84946483D01*
X131944967Y-85025684D01*
X131930495Y-85033058D01*
X131770753Y-85149115D01*
X131631115Y-85288753D01*
X131515058Y-85448495D01*
X131425408Y-85624441D01*
X131364389Y-85812236D01*
X131333500Y-86007263D01*
X131333500Y-86204736D01*
X131364389Y-86399763D01*
X131425014Y-86586345D01*
X131425409Y-86587561D01*
X131515056Y-86763501D01*
X131515058Y-86763504D01*
X131631115Y-86923246D01*
X131770753Y-87062884D01*
X131920234Y-87171486D01*
X131930499Y-87178944D01*
X132100404Y-87265516D01*
X132151199Y-87313490D01*
X132167994Y-87381311D01*
X132145456Y-87447446D01*
X132100404Y-87486483D01*
X131943321Y-87566522D01*
X131930495Y-87573058D01*
X131770753Y-87689115D01*
X131631115Y-87828753D01*
X131515058Y-87988495D01*
X131425408Y-88164441D01*
X131364389Y-88352236D01*
X131333500Y-88547263D01*
X131333500Y-88744735D01*
X131346191Y-88824864D01*
X131337236Y-88894158D01*
X131311399Y-88931943D01*
X129503888Y-90739453D01*
X129503887Y-90739454D01*
X129427222Y-90854192D01*
X129374421Y-90981667D01*
X129374418Y-90981679D01*
X129353676Y-91085956D01*
X129353669Y-91085993D01*
X129353378Y-91087459D01*
X129347500Y-91117007D01*
X129347500Y-115501006D01*
X129347500Y-115638994D01*
X129347500Y-115638996D01*
X129347499Y-115638996D01*
X122831710Y-115638996D01*
X122807185Y-115622609D01*
X122807172Y-115622602D01*
X122661501Y-115562264D01*
X122661489Y-115562261D01*
X122506845Y-115531500D01*
X122506842Y-115531500D01*
X122349158Y-115531500D01*
X122349153Y-115531500D01*
X122200394Y-115561090D01*
X122199834Y-115561039D01*
X122199334Y-115561296D01*
X122165101Y-115557932D01*
X122130802Y-115554863D01*
X122130169Y-115554499D01*
X122129799Y-115554463D01*
X122127750Y-115553107D01*
X122099282Y-115536732D01*
X122093629Y-115532261D01*
X122018656Y-115457288D01*
X121928597Y-115401739D01*
X121922932Y-115397259D01*
X121906750Y-115374402D01*
X121888032Y-115353591D01*
X121886842Y-115346280D01*
X121882561Y-115340233D01*
X121881306Y-115312264D01*
X121876809Y-115284629D01*
X121879761Y-115277832D01*
X121879430Y-115270433D01*
X121893495Y-115246225D01*
X121904653Y-115220546D01*
X121912230Y-115213979D01*
X121914531Y-115210021D01*
X121920076Y-115207181D01*
X121934757Y-115194461D01*
X122018656Y-115142712D01*
X122063174Y-115098194D01*
X122124497Y-115064708D01*
X122188281Y-115069269D01*
X122188676Y-115067969D01*
X122194492Y-115069732D01*
X122194503Y-115069737D01*
X122337565Y-115098194D01*
X122349153Y-115100499D01*
X122349156Y-115100500D01*
X122349158Y-115100500D01*
X122506844Y-115100500D01*
X122506845Y-115100499D01*
X122661497Y-115069737D01*
X122807179Y-115009394D01*
X122938289Y-114921789D01*
X123049789Y-114810289D01*
X123137394Y-114679179D01*
X123197737Y-114533497D01*
X123228500Y-114378842D01*
X123228500Y-114221158D01*
X123228500Y-114221155D01*
X123228499Y-114221153D01*
X123223102Y-114194023D01*
X123197737Y-114066503D01*
X123170184Y-113999983D01*
X123137397Y-113920827D01*
X123137390Y-113920814D01*
X123049789Y-113789711D01*
X123049786Y-113789707D01*
X122938292Y-113678213D01*
X122938288Y-113678210D01*
X122807185Y-113590609D01*
X122807172Y-113590602D01*
X122661501Y-113530264D01*
X122661489Y-113530261D01*
X122506845Y-113499500D01*
X122506842Y-113499500D01*
X122349158Y-113499500D01*
X122349155Y-113499500D01*
X122194505Y-113530261D01*
X122188670Y-113532032D01*
X122187993Y-113529801D01*
X122186824Y-113529926D01*
X122176690Y-113535404D01*
X122152712Y-113533585D01*
X122128808Y-113536149D01*
X122116721Y-113530854D01*
X122107020Y-113530119D01*
X122090107Y-113519197D01*
X122076117Y-113513070D01*
X122069254Y-113507886D01*
X122018656Y-113457288D01*
X121929310Y-113402179D01*
X121924639Y-113398651D01*
X121907169Y-113375103D01*
X121887556Y-113353297D01*
X121886590Y-113347364D01*
X121883009Y-113342537D01*
X121881043Y-113313279D01*
X121876333Y-113284334D01*
X121878728Y-113278820D01*
X121878326Y-113272825D01*
X121892489Y-113247150D01*
X121904177Y-113220252D01*
X121910213Y-113215021D01*
X121912075Y-113211647D01*
X121917477Y-113208727D01*
X121934281Y-113194167D01*
X122018343Y-113142317D01*
X122142315Y-113018345D01*
X122234356Y-112869124D01*
X122234358Y-112869119D01*
X122289505Y-112702697D01*
X122289506Y-112702690D01*
X122299999Y-112599986D01*
X122300000Y-112599973D01*
X122300000Y-112550000D01*
X117800001Y-112550000D01*
X117800001Y-112599986D01*
X117810494Y-112702697D01*
X117865641Y-112869119D01*
X117865643Y-112869124D01*
X117957684Y-113018345D01*
X118081654Y-113142315D01*
X118165719Y-113194167D01*
X118212443Y-113246115D01*
X118223666Y-113315078D01*
X118195822Y-113379160D01*
X118165719Y-113405244D01*
X118081347Y-113457285D01*
X118081343Y-113457288D01*
X117957289Y-113581342D01*
X117865187Y-113730663D01*
X117865186Y-113730666D01*
X117810001Y-113897203D01*
X117810001Y-113897204D01*
X117810000Y-113897204D01*
X117799500Y-113999983D01*
X109220000Y-113999983D01*
X109220000Y-112000013D01*
X117800000Y-112000013D01*
X117800000Y-112050000D01*
X119800000Y-112050000D01*
X120300000Y-112050000D01*
X122299999Y-112050000D01*
X122299999Y-112000028D01*
X122299998Y-112000013D01*
X122289505Y-111897302D01*
X122234358Y-111730880D01*
X122234356Y-111730875D01*
X122142315Y-111581654D01*
X122018345Y-111457684D01*
X121869124Y-111365643D01*
X121869119Y-111365641D01*
X121702697Y-111310494D01*
X121702690Y-111310493D01*
X121599986Y-111300000D01*
X120300000Y-111300000D01*
X120300000Y-112050000D01*
X119800000Y-112050000D01*
X119800000Y-111300000D01*
X118500028Y-111300000D01*
X118500012Y-111300001D01*
X118397302Y-111310494D01*
X118230880Y-111365641D01*
X118230875Y-111365643D01*
X118081654Y-111457684D01*
X117957684Y-111581654D01*
X117865643Y-111730875D01*
X117865641Y-111730880D01*
X117810494Y-111897302D01*
X117810493Y-111897309D01*
X117800000Y-112000013D01*
X109220000Y-112000013D01*
X109220000Y-109399984D01*
X112099500Y-109399984D01*
X112099500Y-110500015D01*
X112110000Y-110602795D01*
X112110001Y-110602796D01*
X112165186Y-110769335D01*
X112165187Y-110769337D01*
X112257286Y-110918651D01*
X112257289Y-110918655D01*
X112381344Y-111042710D01*
X112381348Y-111042713D01*
X112530662Y-111134812D01*
X112530664Y-111134813D01*
X112530666Y-111134814D01*
X112697203Y-111189999D01*
X112799992Y-111200500D01*
X112799997Y-111200500D01*
X115800003Y-111200500D01*
X115800008Y-111200500D01*
X115902797Y-111189999D01*
X116069334Y-111134814D01*
X116218655Y-111042711D01*
X116342711Y-110918655D01*
X116434814Y-110769334D01*
X116489999Y-110602797D01*
X116500500Y-110500008D01*
X116500500Y-109399992D01*
X116489999Y-109297203D01*
X116434814Y-109130666D01*
X116434289Y-109129815D01*
X116342713Y-108981348D01*
X116342710Y-108981344D01*
X116218655Y-108857289D01*
X116218651Y-108857286D01*
X116069337Y-108765187D01*
X116069335Y-108765186D01*
X115986065Y-108737593D01*
X115902797Y-108710001D01*
X115902795Y-108710000D01*
X115800015Y-108699500D01*
X115800008Y-108699500D01*
X112799992Y-108699500D01*
X112799984Y-108699500D01*
X112697204Y-108710000D01*
X112697203Y-108710001D01*
X112530664Y-108765186D01*
X112530662Y-108765187D01*
X112381348Y-108857286D01*
X112381344Y-108857289D01*
X112257289Y-108981344D01*
X112257286Y-108981348D01*
X112165187Y-109130662D01*
X112165186Y-109130664D01*
X112110001Y-109297203D01*
X112110000Y-109297204D01*
X112099500Y-109399984D01*
X109220000Y-109399984D01*
X109220000Y-101197962D01*
X112549500Y-101197962D01*
X112549500Y-101494037D01*
X112569009Y-101642214D01*
X112588144Y-101787557D01*
X112664769Y-102073529D01*
X112776113Y-102342335D01*
X112778070Y-102347059D01*
X112778071Y-102347060D01*
X112926096Y-102603447D01*
X113106324Y-102838326D01*
X113106330Y-102838333D01*
X113315666Y-103047669D01*
X113315673Y-103047675D01*
X113550552Y-103227903D01*
X113806939Y-103375928D01*
X113806940Y-103375929D01*
X113806943Y-103375930D01*
X113806948Y-103375933D01*
X114080471Y-103489231D01*
X114366443Y-103565856D01*
X114659970Y-103604500D01*
X114659977Y-103604500D01*
X114956023Y-103604500D01*
X114956030Y-103604500D01*
X115249557Y-103565856D01*
X115535529Y-103489231D01*
X115809052Y-103375933D01*
X116065448Y-103227903D01*
X116300328Y-103047674D01*
X116509674Y-102838328D01*
X116689903Y-102603448D01*
X116837933Y-102347052D01*
X116951231Y-102073529D01*
X117027856Y-101787557D01*
X117066500Y-101494030D01*
X117066500Y-101197970D01*
X117027856Y-100904443D01*
X116951231Y-100618471D01*
X116837933Y-100344948D01*
X116837930Y-100344943D01*
X116837929Y-100344940D01*
X116837928Y-100344939D01*
X116689903Y-100088552D01*
X116509675Y-99853673D01*
X116509669Y-99853666D01*
X116300333Y-99644330D01*
X116300326Y-99644324D01*
X116065447Y-99464096D01*
X115809060Y-99316071D01*
X115809059Y-99316070D01*
X115739779Y-99287373D01*
X115535529Y-99202769D01*
X115249557Y-99126144D01*
X115200503Y-99119685D01*
X114956037Y-99087500D01*
X114956030Y-99087500D01*
X114659970Y-99087500D01*
X114659962Y-99087500D01*
X114380571Y-99124283D01*
X114366443Y-99126144D01*
X114308148Y-99141764D01*
X114080477Y-99202767D01*
X114080473Y-99202768D01*
X114080471Y-99202769D01*
X114080464Y-99202772D01*
X113806940Y-99316070D01*
X113806939Y-99316071D01*
X113550552Y-99464096D01*
X113315673Y-99644324D01*
X113315666Y-99644330D01*
X113106330Y-99853666D01*
X113106324Y-99853673D01*
X112926096Y-100088552D01*
X112778071Y-100344939D01*
X112778070Y-100344940D01*
X112756923Y-100395993D01*
X112677201Y-100588459D01*
X112664772Y-100618464D01*
X112664767Y-100618477D01*
X112628901Y-100752334D01*
X112600454Y-100858503D01*
X112588145Y-100904440D01*
X112588143Y-100904451D01*
X112549500Y-101197962D01*
X109220000Y-101197962D01*
X109220000Y-80877962D01*
X112549500Y-80877962D01*
X112549500Y-81174037D01*
X112568686Y-81319763D01*
X112588144Y-81467557D01*
X112664769Y-81753529D01*
X112701934Y-81843252D01*
X112778070Y-82027059D01*
X112778071Y-82027060D01*
X112926096Y-82283447D01*
X113106324Y-82518326D01*
X113106330Y-82518333D01*
X113315666Y-82727669D01*
X113315673Y-82727675D01*
X113550552Y-82907903D01*
X113806939Y-83055928D01*
X113806940Y-83055929D01*
X113806943Y-83055930D01*
X113806948Y-83055933D01*
X114080471Y-83169231D01*
X114366443Y-83245856D01*
X114659970Y-83284500D01*
X114659977Y-83284500D01*
X114956023Y-83284500D01*
X114956030Y-83284500D01*
X115249557Y-83245856D01*
X115535529Y-83169231D01*
X115809052Y-83055933D01*
X116065448Y-82907903D01*
X116300328Y-82727674D01*
X116509674Y-82518328D01*
X116689903Y-82283448D01*
X116837933Y-82027052D01*
X116951231Y-81753529D01*
X117027856Y-81467557D01*
X117066500Y-81174030D01*
X117066500Y-80877970D01*
X117027856Y-80584443D01*
X116951231Y-80298471D01*
X116837933Y-80024948D01*
X116837930Y-80024943D01*
X116837929Y-80024940D01*
X116837928Y-80024939D01*
X116689903Y-79768552D01*
X116509675Y-79533673D01*
X116509669Y-79533666D01*
X116300333Y-79324330D01*
X116300326Y-79324324D01*
X116065447Y-79144096D01*
X115809060Y-78996071D01*
X115809059Y-78996070D01*
X115809052Y-78996067D01*
X115535529Y-78882769D01*
X115249557Y-78806144D01*
X115200503Y-78799685D01*
X114956037Y-78767500D01*
X114956030Y-78767500D01*
X114659970Y-78767500D01*
X114659962Y-78767500D01*
X114380571Y-78804283D01*
X114366443Y-78806144D01*
X114271119Y-78831685D01*
X114080477Y-78882767D01*
X114080473Y-78882768D01*
X114080471Y-78882769D01*
X114080464Y-78882772D01*
X113806940Y-78996070D01*
X113806939Y-78996071D01*
X113550552Y-79144096D01*
X113315673Y-79324324D01*
X113315666Y-79324330D01*
X113106330Y-79533666D01*
X113106324Y-79533673D01*
X112926096Y-79768552D01*
X112778071Y-80024939D01*
X112778070Y-80024940D01*
X112664772Y-80298464D01*
X112664767Y-80298477D01*
X112588145Y-80584440D01*
X112588143Y-80584451D01*
X112549500Y-80877962D01*
X109220000Y-80877962D01*
X109220000Y-73751860D01*
X111253500Y-73751860D01*
X111253500Y-74076139D01*
X111285284Y-74398857D01*
X111285287Y-74398874D01*
X111348545Y-74716902D01*
X111348548Y-74716913D01*
X111442686Y-75027247D01*
X111566786Y-75326849D01*
X111566788Y-75326854D01*
X111719646Y-75612830D01*
X111719657Y-75612848D01*
X111899811Y-75882467D01*
X111899821Y-75882481D01*
X112105546Y-76133158D01*
X112334841Y-76362453D01*
X112334846Y-76362457D01*
X112334847Y-76362458D01*
X112585524Y-76568183D01*
X112855158Y-76748347D01*
X112855167Y-76748352D01*
X112855169Y-76748353D01*
X113141145Y-76901211D01*
X113141147Y-76901211D01*
X113141153Y-76901215D01*
X113440754Y-77025314D01*
X113751077Y-77119449D01*
X113751083Y-77119450D01*
X113751086Y-77119451D01*
X113751097Y-77119454D01*
X113950528Y-77159122D01*
X114069132Y-77182714D01*
X114391857Y-77214500D01*
X114391860Y-77214500D01*
X114716140Y-77214500D01*
X114716143Y-77214500D01*
X115038868Y-77182714D01*
X115196295Y-77151399D01*
X115356902Y-77119454D01*
X115356913Y-77119451D01*
X115356913Y-77119450D01*
X115356923Y-77119449D01*
X115667246Y-77025314D01*
X115966847Y-76901215D01*
X116252842Y-76748347D01*
X116522476Y-76568183D01*
X116773153Y-76362458D01*
X117002458Y-76133153D01*
X117208183Y-75882476D01*
X117388347Y-75612842D01*
X117541215Y-75326847D01*
X117665314Y-75027246D01*
X117759449Y-74716923D01*
X117759451Y-74716913D01*
X117759454Y-74716902D01*
X117791399Y-74556295D01*
X117822714Y-74398868D01*
X117854500Y-74076143D01*
X117854500Y-73751860D01*
X187453500Y-73751860D01*
X187453500Y-74076139D01*
X187485284Y-74398857D01*
X187485287Y-74398874D01*
X187548545Y-74716902D01*
X187548548Y-74716913D01*
X187642686Y-75027247D01*
X187766786Y-75326849D01*
X187766788Y-75326854D01*
X187919646Y-75612830D01*
X187919657Y-75612848D01*
X188099811Y-75882467D01*
X188099821Y-75882481D01*
X188305546Y-76133158D01*
X188534841Y-76362453D01*
X188534846Y-76362457D01*
X188534847Y-76362458D01*
X188785524Y-76568183D01*
X189055158Y-76748347D01*
X189055167Y-76748352D01*
X189055169Y-76748353D01*
X189341145Y-76901211D01*
X189341147Y-76901211D01*
X189341153Y-76901215D01*
X189640754Y-77025314D01*
X189951077Y-77119449D01*
X189951083Y-77119450D01*
X189951086Y-77119451D01*
X189951097Y-77119454D01*
X190150528Y-77159122D01*
X190269132Y-77182714D01*
X190591857Y-77214500D01*
X190591860Y-77214500D01*
X190916140Y-77214500D01*
X190916143Y-77214500D01*
X191238868Y-77182714D01*
X191396295Y-77151399D01*
X191556902Y-77119454D01*
X191556913Y-77119451D01*
X191556913Y-77119450D01*
X191556923Y-77119449D01*
X191867246Y-77025314D01*
X192166847Y-76901215D01*
X192452842Y-76748347D01*
X192722476Y-76568183D01*
X192973153Y-76362458D01*
X193202458Y-76133153D01*
X193408183Y-75882476D01*
X193588347Y-75612842D01*
X193741215Y-75326847D01*
X193865314Y-75027246D01*
X193959449Y-74716923D01*
X193959451Y-74716913D01*
X193959454Y-74716902D01*
X193991399Y-74556295D01*
X194022714Y-74398868D01*
X194054500Y-74076143D01*
X194054500Y-73751857D01*
X194022714Y-73429132D01*
X193999122Y-73310528D01*
X193959454Y-73111097D01*
X193959451Y-73111086D01*
X193959450Y-73111083D01*
X193959449Y-73111077D01*
X193865314Y-72800754D01*
X193741215Y-72501153D01*
X193588347Y-72215158D01*
X193408183Y-71945524D01*
X193202458Y-71694847D01*
X193202457Y-71694846D01*
X193202453Y-71694841D01*
X192973158Y-71465546D01*
X192722481Y-71259821D01*
X192722480Y-71259820D01*
X192722476Y-71259817D01*
X192452842Y-71079653D01*
X192452837Y-71079650D01*
X192452830Y-71079646D01*
X192166854Y-70926788D01*
X192166849Y-70926786D01*
X191867247Y-70802686D01*
X191556913Y-70708548D01*
X191556902Y-70708545D01*
X191238874Y-70645287D01*
X191238857Y-70645284D01*
X190994812Y-70621248D01*
X190916143Y-70613500D01*
X190591857Y-70613500D01*
X190519099Y-70620666D01*
X190269142Y-70645284D01*
X190269125Y-70645287D01*
X189951097Y-70708545D01*
X189951086Y-70708548D01*
X189640752Y-70802686D01*
X189341150Y-70926786D01*
X189341145Y-70926788D01*
X189055169Y-71079646D01*
X189055151Y-71079657D01*
X188785532Y-71259811D01*
X188785518Y-71259821D01*
X188534841Y-71465546D01*
X188305546Y-71694841D01*
X188099821Y-71945518D01*
X188099811Y-71945532D01*
X187919657Y-72215151D01*
X187919646Y-72215169D01*
X187766788Y-72501145D01*
X187766786Y-72501150D01*
X187642686Y-72800752D01*
X187548548Y-73111086D01*
X187548545Y-73111097D01*
X187485287Y-73429125D01*
X187485284Y-73429142D01*
X187453500Y-73751860D01*
X117854500Y-73751860D01*
X117854500Y-73751857D01*
X117822714Y-73429132D01*
X117799122Y-73310528D01*
X117759454Y-73111097D01*
X117759451Y-73111086D01*
X117759450Y-73111083D01*
X117759449Y-73111077D01*
X117665314Y-72800754D01*
X117541215Y-72501153D01*
X117388347Y-72215158D01*
X117208183Y-71945524D01*
X117002458Y-71694847D01*
X117002457Y-71694846D01*
X117002453Y-71694841D01*
X116773158Y-71465546D01*
X116522481Y-71259821D01*
X116522480Y-71259820D01*
X116522476Y-71259817D01*
X116252842Y-71079653D01*
X116252837Y-71079650D01*
X116252830Y-71079646D01*
X115966854Y-70926788D01*
X115966849Y-70926786D01*
X115667247Y-70802686D01*
X115356913Y-70708548D01*
X115356902Y-70708545D01*
X115038874Y-70645287D01*
X115038857Y-70645284D01*
X114794812Y-70621248D01*
X114716143Y-70613500D01*
X114391857Y-70613500D01*
X114319099Y-70620666D01*
X114069142Y-70645284D01*
X114069125Y-70645287D01*
X113751097Y-70708545D01*
X113751086Y-70708548D01*
X113440752Y-70802686D01*
X113141150Y-70926786D01*
X113141145Y-70926788D01*
X112855169Y-71079646D01*
X112855151Y-71079657D01*
X112585532Y-71259811D01*
X112585518Y-71259821D01*
X112334841Y-71465546D01*
X112105546Y-71694841D01*
X111899821Y-71945518D01*
X111899811Y-71945532D01*
X111719657Y-72215151D01*
X111719646Y-72215169D01*
X111566788Y-72501145D01*
X111566786Y-72501150D01*
X111442686Y-72800752D01*
X111348548Y-73111086D01*
X111348545Y-73111097D01*
X111285287Y-73429125D01*
X111285284Y-73429142D01*
X111253500Y-73751860D01*
X109220000Y-73751860D01*
X109220000Y-68704000D01*
X109239685Y-68636961D01*
X109292489Y-68591206D01*
X109344000Y-68580000D01*
X195456000Y-68580000D01*
X195523039Y-68599685D01*
G37*
%TD.AperFunction*%
%TD*%
M02*
