%TF.GenerationSoftware,KiCad,Pcbnew,9.0.4*%
%TF.CreationDate,2025-11-11T21:51:20-08:00*%
%TF.ProjectId,latex-launch-2-pcb,6c617465-782d-46c6-9175-6e63682d322d,rev?*%
%TF.SameCoordinates,Original*%
%TF.FileFunction,Legend,Top*%
%TF.FilePolarity,Positive*%
%FSLAX46Y46*%
G04 Gerber Fmt 4.6, Leading zero omitted, Abs format (unit mm)*
G04 Created by KiCad (PCBNEW 9.0.4) date 2025-11-11 21:51:20*
%MOMM*%
%LPD*%
G01*
G04 APERTURE LIST*
%ADD10C,0.150000*%
%ADD11C,0.100000*%
%ADD12C,0.120000*%
%ADD13C,0.127000*%
%ADD14C,0.304800*%
%ADD15C,0.406400*%
%ADD16C,0.200000*%
G04 APERTURE END LIST*
D10*
X176788819Y-87201333D02*
X177503104Y-87201333D01*
X177503104Y-87201333D02*
X177645961Y-87248952D01*
X177645961Y-87248952D02*
X177741200Y-87344190D01*
X177741200Y-87344190D02*
X177788819Y-87487047D01*
X177788819Y-87487047D02*
X177788819Y-87582285D01*
X176788819Y-86820380D02*
X176788819Y-86201333D01*
X176788819Y-86201333D02*
X177169771Y-86534666D01*
X177169771Y-86534666D02*
X177169771Y-86391809D01*
X177169771Y-86391809D02*
X177217390Y-86296571D01*
X177217390Y-86296571D02*
X177265009Y-86248952D01*
X177265009Y-86248952D02*
X177360247Y-86201333D01*
X177360247Y-86201333D02*
X177598342Y-86201333D01*
X177598342Y-86201333D02*
X177693580Y-86248952D01*
X177693580Y-86248952D02*
X177741200Y-86296571D01*
X177741200Y-86296571D02*
X177788819Y-86391809D01*
X177788819Y-86391809D02*
X177788819Y-86677523D01*
X177788819Y-86677523D02*
X177741200Y-86772761D01*
X177741200Y-86772761D02*
X177693580Y-86820380D01*
X113792095Y-70618819D02*
X113792095Y-69618819D01*
X113792095Y-70095009D02*
X114363523Y-70095009D01*
X114363523Y-70618819D02*
X114363523Y-69618819D01*
X115363523Y-70618819D02*
X114792095Y-70618819D01*
X115077809Y-70618819D02*
X115077809Y-69618819D01*
X115077809Y-69618819D02*
X114982571Y-69761676D01*
X114982571Y-69761676D02*
X114887333Y-69856914D01*
X114887333Y-69856914D02*
X114792095Y-69904533D01*
X189992095Y-70618819D02*
X189992095Y-69618819D01*
X189992095Y-70095009D02*
X190563523Y-70095009D01*
X190563523Y-70618819D02*
X190563523Y-69618819D01*
X191468285Y-69952152D02*
X191468285Y-70618819D01*
X191230190Y-69571200D02*
X190992095Y-70285485D01*
X190992095Y-70285485D02*
X191611142Y-70285485D01*
X189992095Y-126244819D02*
X189992095Y-125244819D01*
X189992095Y-125721009D02*
X190563523Y-125721009D01*
X190563523Y-126244819D02*
X190563523Y-125244819D01*
X190944476Y-125244819D02*
X191563523Y-125244819D01*
X191563523Y-125244819D02*
X191230190Y-125625771D01*
X191230190Y-125625771D02*
X191373047Y-125625771D01*
X191373047Y-125625771D02*
X191468285Y-125673390D01*
X191468285Y-125673390D02*
X191515904Y-125721009D01*
X191515904Y-125721009D02*
X191563523Y-125816247D01*
X191563523Y-125816247D02*
X191563523Y-126054342D01*
X191563523Y-126054342D02*
X191515904Y-126149580D01*
X191515904Y-126149580D02*
X191468285Y-126197200D01*
X191468285Y-126197200D02*
X191373047Y-126244819D01*
X191373047Y-126244819D02*
X191087333Y-126244819D01*
X191087333Y-126244819D02*
X190992095Y-126197200D01*
X190992095Y-126197200D02*
X190944476Y-126149580D01*
X113792095Y-126244819D02*
X113792095Y-125244819D01*
X113792095Y-125721009D02*
X114363523Y-125721009D01*
X114363523Y-126244819D02*
X114363523Y-125244819D01*
X114792095Y-125340057D02*
X114839714Y-125292438D01*
X114839714Y-125292438D02*
X114934952Y-125244819D01*
X114934952Y-125244819D02*
X115173047Y-125244819D01*
X115173047Y-125244819D02*
X115268285Y-125292438D01*
X115268285Y-125292438D02*
X115315904Y-125340057D01*
X115315904Y-125340057D02*
X115363523Y-125435295D01*
X115363523Y-125435295D02*
X115363523Y-125530533D01*
X115363523Y-125530533D02*
X115315904Y-125673390D01*
X115315904Y-125673390D02*
X114744476Y-126244819D01*
X114744476Y-126244819D02*
X115363523Y-126244819D01*
X139383419Y-99139333D02*
X140097704Y-99139333D01*
X140097704Y-99139333D02*
X140240561Y-99186952D01*
X140240561Y-99186952D02*
X140335800Y-99282190D01*
X140335800Y-99282190D02*
X140383419Y-99425047D01*
X140383419Y-99425047D02*
X140383419Y-99520285D01*
X139383419Y-98234571D02*
X139383419Y-98425047D01*
X139383419Y-98425047D02*
X139431038Y-98520285D01*
X139431038Y-98520285D02*
X139478657Y-98567904D01*
X139478657Y-98567904D02*
X139621514Y-98663142D01*
X139621514Y-98663142D02*
X139811990Y-98710761D01*
X139811990Y-98710761D02*
X140192942Y-98710761D01*
X140192942Y-98710761D02*
X140288180Y-98663142D01*
X140288180Y-98663142D02*
X140335800Y-98615523D01*
X140335800Y-98615523D02*
X140383419Y-98520285D01*
X140383419Y-98520285D02*
X140383419Y-98329809D01*
X140383419Y-98329809D02*
X140335800Y-98234571D01*
X140335800Y-98234571D02*
X140288180Y-98186952D01*
X140288180Y-98186952D02*
X140192942Y-98139333D01*
X140192942Y-98139333D02*
X139954847Y-98139333D01*
X139954847Y-98139333D02*
X139859609Y-98186952D01*
X139859609Y-98186952D02*
X139811990Y-98234571D01*
X139811990Y-98234571D02*
X139764371Y-98329809D01*
X139764371Y-98329809D02*
X139764371Y-98520285D01*
X139764371Y-98520285D02*
X139811990Y-98615523D01*
X139811990Y-98615523D02*
X139859609Y-98663142D01*
X139859609Y-98663142D02*
X139954847Y-98710761D01*
D11*
X151138800Y-98216734D02*
X151186419Y-98073877D01*
X151186419Y-98073877D02*
X151186419Y-97835782D01*
X151186419Y-97835782D02*
X151138800Y-97740544D01*
X151138800Y-97740544D02*
X151091180Y-97692925D01*
X151091180Y-97692925D02*
X150995942Y-97645306D01*
X150995942Y-97645306D02*
X150900704Y-97645306D01*
X150900704Y-97645306D02*
X150805466Y-97692925D01*
X150805466Y-97692925D02*
X150757847Y-97740544D01*
X150757847Y-97740544D02*
X150710228Y-97835782D01*
X150710228Y-97835782D02*
X150662609Y-98026258D01*
X150662609Y-98026258D02*
X150614990Y-98121496D01*
X150614990Y-98121496D02*
X150567371Y-98169115D01*
X150567371Y-98169115D02*
X150472133Y-98216734D01*
X150472133Y-98216734D02*
X150376895Y-98216734D01*
X150376895Y-98216734D02*
X150281657Y-98169115D01*
X150281657Y-98169115D02*
X150234038Y-98121496D01*
X150234038Y-98121496D02*
X150186419Y-98026258D01*
X150186419Y-98026258D02*
X150186419Y-97788163D01*
X150186419Y-97788163D02*
X150234038Y-97645306D01*
X151186419Y-97216734D02*
X150186419Y-97216734D01*
X150186419Y-97216734D02*
X150186419Y-96978639D01*
X150186419Y-96978639D02*
X150234038Y-96835782D01*
X150234038Y-96835782D02*
X150329276Y-96740544D01*
X150329276Y-96740544D02*
X150424514Y-96692925D01*
X150424514Y-96692925D02*
X150614990Y-96645306D01*
X150614990Y-96645306D02*
X150757847Y-96645306D01*
X150757847Y-96645306D02*
X150948323Y-96692925D01*
X150948323Y-96692925D02*
X151043561Y-96740544D01*
X151043561Y-96740544D02*
X151138800Y-96835782D01*
X151138800Y-96835782D02*
X151186419Y-96978639D01*
X151186419Y-96978639D02*
X151186419Y-97216734D01*
X150900704Y-96264353D02*
X150900704Y-95788163D01*
X151186419Y-96359591D02*
X150186419Y-96026258D01*
X150186419Y-96026258D02*
X151186419Y-95692925D01*
X158400704Y-98216734D02*
X158400704Y-97740544D01*
X158686419Y-98311972D02*
X157686419Y-97978639D01*
X157686419Y-97978639D02*
X158686419Y-97645306D01*
X157686419Y-97121496D02*
X157686419Y-97026258D01*
X157686419Y-97026258D02*
X157734038Y-96931020D01*
X157734038Y-96931020D02*
X157781657Y-96883401D01*
X157781657Y-96883401D02*
X157876895Y-96835782D01*
X157876895Y-96835782D02*
X158067371Y-96788163D01*
X158067371Y-96788163D02*
X158305466Y-96788163D01*
X158305466Y-96788163D02*
X158495942Y-96835782D01*
X158495942Y-96835782D02*
X158591180Y-96883401D01*
X158591180Y-96883401D02*
X158638800Y-96931020D01*
X158638800Y-96931020D02*
X158686419Y-97026258D01*
X158686419Y-97026258D02*
X158686419Y-97121496D01*
X158686419Y-97121496D02*
X158638800Y-97216734D01*
X158638800Y-97216734D02*
X158591180Y-97264353D01*
X158591180Y-97264353D02*
X158495942Y-97311972D01*
X158495942Y-97311972D02*
X158305466Y-97359591D01*
X158305466Y-97359591D02*
X158067371Y-97359591D01*
X158067371Y-97359591D02*
X157876895Y-97311972D01*
X157876895Y-97311972D02*
X157781657Y-97264353D01*
X157781657Y-97264353D02*
X157734038Y-97216734D01*
X157734038Y-97216734D02*
X157686419Y-97121496D01*
X161186419Y-98169115D02*
X160186419Y-98169115D01*
X161186419Y-97692925D02*
X160186419Y-97692925D01*
X160186419Y-97692925D02*
X161186419Y-97121497D01*
X161186419Y-97121497D02*
X160186419Y-97121497D01*
X160186419Y-96788163D02*
X160186419Y-96216735D01*
X161186419Y-96502449D02*
X160186419Y-96502449D01*
X155186419Y-98264353D02*
X156186419Y-97597687D01*
X155186419Y-97597687D02*
X156186419Y-98264353D01*
X156186419Y-97216734D02*
X155186419Y-97216734D01*
X155186419Y-97216734D02*
X155186419Y-96978639D01*
X155186419Y-96978639D02*
X155234038Y-96835782D01*
X155234038Y-96835782D02*
X155329276Y-96740544D01*
X155329276Y-96740544D02*
X155424514Y-96692925D01*
X155424514Y-96692925D02*
X155614990Y-96645306D01*
X155614990Y-96645306D02*
X155757847Y-96645306D01*
X155757847Y-96645306D02*
X155948323Y-96692925D01*
X155948323Y-96692925D02*
X156043561Y-96740544D01*
X156043561Y-96740544D02*
X156138800Y-96835782D01*
X156138800Y-96835782D02*
X156186419Y-96978639D01*
X156186419Y-96978639D02*
X156186419Y-97216734D01*
X155900704Y-96264353D02*
X155900704Y-95788163D01*
X156186419Y-96359591D02*
X155186419Y-96026258D01*
X155186419Y-96026258D02*
X156186419Y-95692925D01*
X152686419Y-98264353D02*
X153686419Y-97597687D01*
X152686419Y-97597687D02*
X153686419Y-98264353D01*
X153591180Y-96645306D02*
X153638800Y-96692925D01*
X153638800Y-96692925D02*
X153686419Y-96835782D01*
X153686419Y-96835782D02*
X153686419Y-96931020D01*
X153686419Y-96931020D02*
X153638800Y-97073877D01*
X153638800Y-97073877D02*
X153543561Y-97169115D01*
X153543561Y-97169115D02*
X153448323Y-97216734D01*
X153448323Y-97216734D02*
X153257847Y-97264353D01*
X153257847Y-97264353D02*
X153114990Y-97264353D01*
X153114990Y-97264353D02*
X152924514Y-97216734D01*
X152924514Y-97216734D02*
X152829276Y-97169115D01*
X152829276Y-97169115D02*
X152734038Y-97073877D01*
X152734038Y-97073877D02*
X152686419Y-96931020D01*
X152686419Y-96931020D02*
X152686419Y-96835782D01*
X152686419Y-96835782D02*
X152734038Y-96692925D01*
X152734038Y-96692925D02*
X152781657Y-96645306D01*
X153686419Y-95740544D02*
X153686419Y-96216734D01*
X153686419Y-96216734D02*
X152686419Y-96216734D01*
X142686419Y-98311972D02*
X143686419Y-97978639D01*
X143686419Y-97978639D02*
X142686419Y-97645306D01*
X143591180Y-96740544D02*
X143638800Y-96788163D01*
X143638800Y-96788163D02*
X143686419Y-96931020D01*
X143686419Y-96931020D02*
X143686419Y-97026258D01*
X143686419Y-97026258D02*
X143638800Y-97169115D01*
X143638800Y-97169115D02*
X143543561Y-97264353D01*
X143543561Y-97264353D02*
X143448323Y-97311972D01*
X143448323Y-97311972D02*
X143257847Y-97359591D01*
X143257847Y-97359591D02*
X143114990Y-97359591D01*
X143114990Y-97359591D02*
X142924514Y-97311972D01*
X142924514Y-97311972D02*
X142829276Y-97264353D01*
X142829276Y-97264353D02*
X142734038Y-97169115D01*
X142734038Y-97169115D02*
X142686419Y-97026258D01*
X142686419Y-97026258D02*
X142686419Y-96931020D01*
X142686419Y-96931020D02*
X142734038Y-96788163D01*
X142734038Y-96788163D02*
X142781657Y-96740544D01*
X143591180Y-95740544D02*
X143638800Y-95788163D01*
X143638800Y-95788163D02*
X143686419Y-95931020D01*
X143686419Y-95931020D02*
X143686419Y-96026258D01*
X143686419Y-96026258D02*
X143638800Y-96169115D01*
X143638800Y-96169115D02*
X143543561Y-96264353D01*
X143543561Y-96264353D02*
X143448323Y-96311972D01*
X143448323Y-96311972D02*
X143257847Y-96359591D01*
X143257847Y-96359591D02*
X143114990Y-96359591D01*
X143114990Y-96359591D02*
X142924514Y-96311972D01*
X142924514Y-96311972D02*
X142829276Y-96264353D01*
X142829276Y-96264353D02*
X142734038Y-96169115D01*
X142734038Y-96169115D02*
X142686419Y-96026258D01*
X142686419Y-96026258D02*
X142686419Y-95931020D01*
X142686419Y-95931020D02*
X142734038Y-95788163D01*
X142734038Y-95788163D02*
X142781657Y-95740544D01*
X148638800Y-98216734D02*
X148686419Y-98073877D01*
X148686419Y-98073877D02*
X148686419Y-97835782D01*
X148686419Y-97835782D02*
X148638800Y-97740544D01*
X148638800Y-97740544D02*
X148591180Y-97692925D01*
X148591180Y-97692925D02*
X148495942Y-97645306D01*
X148495942Y-97645306D02*
X148400704Y-97645306D01*
X148400704Y-97645306D02*
X148305466Y-97692925D01*
X148305466Y-97692925D02*
X148257847Y-97740544D01*
X148257847Y-97740544D02*
X148210228Y-97835782D01*
X148210228Y-97835782D02*
X148162609Y-98026258D01*
X148162609Y-98026258D02*
X148114990Y-98121496D01*
X148114990Y-98121496D02*
X148067371Y-98169115D01*
X148067371Y-98169115D02*
X147972133Y-98216734D01*
X147972133Y-98216734D02*
X147876895Y-98216734D01*
X147876895Y-98216734D02*
X147781657Y-98169115D01*
X147781657Y-98169115D02*
X147734038Y-98121496D01*
X147734038Y-98121496D02*
X147686419Y-98026258D01*
X147686419Y-98026258D02*
X147686419Y-97788163D01*
X147686419Y-97788163D02*
X147734038Y-97645306D01*
X148591180Y-96645306D02*
X148638800Y-96692925D01*
X148638800Y-96692925D02*
X148686419Y-96835782D01*
X148686419Y-96835782D02*
X148686419Y-96931020D01*
X148686419Y-96931020D02*
X148638800Y-97073877D01*
X148638800Y-97073877D02*
X148543561Y-97169115D01*
X148543561Y-97169115D02*
X148448323Y-97216734D01*
X148448323Y-97216734D02*
X148257847Y-97264353D01*
X148257847Y-97264353D02*
X148114990Y-97264353D01*
X148114990Y-97264353D02*
X147924514Y-97216734D01*
X147924514Y-97216734D02*
X147829276Y-97169115D01*
X147829276Y-97169115D02*
X147734038Y-97073877D01*
X147734038Y-97073877D02*
X147686419Y-96931020D01*
X147686419Y-96931020D02*
X147686419Y-96835782D01*
X147686419Y-96835782D02*
X147734038Y-96692925D01*
X147734038Y-96692925D02*
X147781657Y-96645306D01*
X148686419Y-95740544D02*
X148686419Y-96216734D01*
X148686419Y-96216734D02*
X147686419Y-96216734D01*
X145234038Y-97645306D02*
X145186419Y-97740544D01*
X145186419Y-97740544D02*
X145186419Y-97883401D01*
X145186419Y-97883401D02*
X145234038Y-98026258D01*
X145234038Y-98026258D02*
X145329276Y-98121496D01*
X145329276Y-98121496D02*
X145424514Y-98169115D01*
X145424514Y-98169115D02*
X145614990Y-98216734D01*
X145614990Y-98216734D02*
X145757847Y-98216734D01*
X145757847Y-98216734D02*
X145948323Y-98169115D01*
X145948323Y-98169115D02*
X146043561Y-98121496D01*
X146043561Y-98121496D02*
X146138800Y-98026258D01*
X146138800Y-98026258D02*
X146186419Y-97883401D01*
X146186419Y-97883401D02*
X146186419Y-97788163D01*
X146186419Y-97788163D02*
X146138800Y-97645306D01*
X146138800Y-97645306D02*
X146091180Y-97597687D01*
X146091180Y-97597687D02*
X145757847Y-97597687D01*
X145757847Y-97597687D02*
X145757847Y-97788163D01*
X146186419Y-97169115D02*
X145186419Y-97169115D01*
X145186419Y-97169115D02*
X146186419Y-96597687D01*
X146186419Y-96597687D02*
X145186419Y-96597687D01*
X146186419Y-96121496D02*
X145186419Y-96121496D01*
X145186419Y-96121496D02*
X145186419Y-95883401D01*
X145186419Y-95883401D02*
X145234038Y-95740544D01*
X145234038Y-95740544D02*
X145329276Y-95645306D01*
X145329276Y-95645306D02*
X145424514Y-95597687D01*
X145424514Y-95597687D02*
X145614990Y-95550068D01*
X145614990Y-95550068D02*
X145757847Y-95550068D01*
X145757847Y-95550068D02*
X145948323Y-95597687D01*
X145948323Y-95597687D02*
X146043561Y-95645306D01*
X146043561Y-95645306D02*
X146138800Y-95740544D01*
X146138800Y-95740544D02*
X146186419Y-95883401D01*
X146186419Y-95883401D02*
X146186419Y-96121496D01*
D10*
X174077333Y-94688819D02*
X173744000Y-94212628D01*
X173505905Y-94688819D02*
X173505905Y-93688819D01*
X173505905Y-93688819D02*
X173886857Y-93688819D01*
X173886857Y-93688819D02*
X173982095Y-93736438D01*
X173982095Y-93736438D02*
X174029714Y-93784057D01*
X174029714Y-93784057D02*
X174077333Y-93879295D01*
X174077333Y-93879295D02*
X174077333Y-94022152D01*
X174077333Y-94022152D02*
X174029714Y-94117390D01*
X174029714Y-94117390D02*
X173982095Y-94165009D01*
X173982095Y-94165009D02*
X173886857Y-94212628D01*
X173886857Y-94212628D02*
X173505905Y-94212628D01*
X175029714Y-94688819D02*
X174458286Y-94688819D01*
X174744000Y-94688819D02*
X174744000Y-93688819D01*
X174744000Y-93688819D02*
X174648762Y-93831676D01*
X174648762Y-93831676D02*
X174553524Y-93926914D01*
X174553524Y-93926914D02*
X174458286Y-93974533D01*
X185795666Y-95289819D02*
X185795666Y-96004104D01*
X185795666Y-96004104D02*
X185748047Y-96146961D01*
X185748047Y-96146961D02*
X185652809Y-96242200D01*
X185652809Y-96242200D02*
X185509952Y-96289819D01*
X185509952Y-96289819D02*
X185414714Y-96289819D01*
X186795666Y-96289819D02*
X186224238Y-96289819D01*
X186509952Y-96289819D02*
X186509952Y-95289819D01*
X186509952Y-95289819D02*
X186414714Y-95432676D01*
X186414714Y-95432676D02*
X186319476Y-95527914D01*
X186319476Y-95527914D02*
X186224238Y-95575533D01*
X168997333Y-94688819D02*
X168664000Y-94212628D01*
X168425905Y-94688819D02*
X168425905Y-93688819D01*
X168425905Y-93688819D02*
X168806857Y-93688819D01*
X168806857Y-93688819D02*
X168902095Y-93736438D01*
X168902095Y-93736438D02*
X168949714Y-93784057D01*
X168949714Y-93784057D02*
X168997333Y-93879295D01*
X168997333Y-93879295D02*
X168997333Y-94022152D01*
X168997333Y-94022152D02*
X168949714Y-94117390D01*
X168949714Y-94117390D02*
X168902095Y-94165009D01*
X168902095Y-94165009D02*
X168806857Y-94212628D01*
X168806857Y-94212628D02*
X168425905Y-94212628D01*
X169378286Y-93784057D02*
X169425905Y-93736438D01*
X169425905Y-93736438D02*
X169521143Y-93688819D01*
X169521143Y-93688819D02*
X169759238Y-93688819D01*
X169759238Y-93688819D02*
X169854476Y-93736438D01*
X169854476Y-93736438D02*
X169902095Y-93784057D01*
X169902095Y-93784057D02*
X169949714Y-93879295D01*
X169949714Y-93879295D02*
X169949714Y-93974533D01*
X169949714Y-93974533D02*
X169902095Y-94117390D01*
X169902095Y-94117390D02*
X169330667Y-94688819D01*
X169330667Y-94688819D02*
X169949714Y-94688819D01*
X122454819Y-115633333D02*
X123169104Y-115633333D01*
X123169104Y-115633333D02*
X123311961Y-115680952D01*
X123311961Y-115680952D02*
X123407200Y-115776190D01*
X123407200Y-115776190D02*
X123454819Y-115919047D01*
X123454819Y-115919047D02*
X123454819Y-116014285D01*
X122788152Y-114728571D02*
X123454819Y-114728571D01*
X122407200Y-114966666D02*
X123121485Y-115204761D01*
X123121485Y-115204761D02*
X123121485Y-114585714D01*
X141057333Y-106023580D02*
X141009714Y-106071200D01*
X141009714Y-106071200D02*
X140866857Y-106118819D01*
X140866857Y-106118819D02*
X140771619Y-106118819D01*
X140771619Y-106118819D02*
X140628762Y-106071200D01*
X140628762Y-106071200D02*
X140533524Y-105975961D01*
X140533524Y-105975961D02*
X140485905Y-105880723D01*
X140485905Y-105880723D02*
X140438286Y-105690247D01*
X140438286Y-105690247D02*
X140438286Y-105547390D01*
X140438286Y-105547390D02*
X140485905Y-105356914D01*
X140485905Y-105356914D02*
X140533524Y-105261676D01*
X140533524Y-105261676D02*
X140628762Y-105166438D01*
X140628762Y-105166438D02*
X140771619Y-105118819D01*
X140771619Y-105118819D02*
X140866857Y-105118819D01*
X140866857Y-105118819D02*
X141009714Y-105166438D01*
X141009714Y-105166438D02*
X141057333Y-105214057D01*
X142009714Y-106118819D02*
X141438286Y-106118819D01*
X141724000Y-106118819D02*
X141724000Y-105118819D01*
X141724000Y-105118819D02*
X141628762Y-105261676D01*
X141628762Y-105261676D02*
X141533524Y-105356914D01*
X141533524Y-105356914D02*
X141438286Y-105404533D01*
X126153104Y-119986785D02*
X126153104Y-119510595D01*
X126438819Y-120082023D02*
X125438819Y-119748690D01*
X125438819Y-119748690D02*
X126438819Y-119415357D01*
X126438819Y-118558214D02*
X126438819Y-119129642D01*
X126438819Y-118843928D02*
X125438819Y-118843928D01*
X125438819Y-118843928D02*
X125581676Y-118939166D01*
X125581676Y-118939166D02*
X125676914Y-119034404D01*
X125676914Y-119034404D02*
X125724533Y-119129642D01*
X184832666Y-114277819D02*
X184832666Y-114992104D01*
X184832666Y-114992104D02*
X184785047Y-115134961D01*
X184785047Y-115134961D02*
X184689809Y-115230200D01*
X184689809Y-115230200D02*
X184546952Y-115277819D01*
X184546952Y-115277819D02*
X184451714Y-115277819D01*
X185261238Y-114373057D02*
X185308857Y-114325438D01*
X185308857Y-114325438D02*
X185404095Y-114277819D01*
X185404095Y-114277819D02*
X185642190Y-114277819D01*
X185642190Y-114277819D02*
X185737428Y-114325438D01*
X185737428Y-114325438D02*
X185785047Y-114373057D01*
X185785047Y-114373057D02*
X185832666Y-114468295D01*
X185832666Y-114468295D02*
X185832666Y-114563533D01*
X185832666Y-114563533D02*
X185785047Y-114706390D01*
X185785047Y-114706390D02*
X185213619Y-115277819D01*
X185213619Y-115277819D02*
X185832666Y-115277819D01*
X135598819Y-91519333D02*
X136313104Y-91519333D01*
X136313104Y-91519333D02*
X136455961Y-91566952D01*
X136455961Y-91566952D02*
X136551200Y-91662190D01*
X136551200Y-91662190D02*
X136598819Y-91805047D01*
X136598819Y-91805047D02*
X136598819Y-91900285D01*
X135598819Y-90566952D02*
X135598819Y-91043142D01*
X135598819Y-91043142D02*
X136075009Y-91090761D01*
X136075009Y-91090761D02*
X136027390Y-91043142D01*
X136027390Y-91043142D02*
X135979771Y-90947904D01*
X135979771Y-90947904D02*
X135979771Y-90709809D01*
X135979771Y-90709809D02*
X136027390Y-90614571D01*
X136027390Y-90614571D02*
X136075009Y-90566952D01*
X136075009Y-90566952D02*
X136170247Y-90519333D01*
X136170247Y-90519333D02*
X136408342Y-90519333D01*
X136408342Y-90519333D02*
X136503580Y-90566952D01*
X136503580Y-90566952D02*
X136551200Y-90614571D01*
X136551200Y-90614571D02*
X136598819Y-90709809D01*
X136598819Y-90709809D02*
X136598819Y-90947904D01*
X136598819Y-90947904D02*
X136551200Y-91043142D01*
X136551200Y-91043142D02*
X136503580Y-91090761D01*
D11*
X130989353Y-101813580D02*
X130370306Y-101813580D01*
X130370306Y-101813580D02*
X130703639Y-101432628D01*
X130703639Y-101432628D02*
X130560782Y-101432628D01*
X130560782Y-101432628D02*
X130465544Y-101385009D01*
X130465544Y-101385009D02*
X130417925Y-101337390D01*
X130417925Y-101337390D02*
X130370306Y-101242152D01*
X130370306Y-101242152D02*
X130370306Y-101004057D01*
X130370306Y-101004057D02*
X130417925Y-100908819D01*
X130417925Y-100908819D02*
X130465544Y-100861200D01*
X130465544Y-100861200D02*
X130560782Y-100813580D01*
X130560782Y-100813580D02*
X130846496Y-100813580D01*
X130846496Y-100813580D02*
X130941734Y-100861200D01*
X130941734Y-100861200D02*
X130989353Y-100908819D01*
X130084591Y-101813580D02*
X129751258Y-100813580D01*
X129751258Y-100813580D02*
X129417925Y-101813580D01*
X129179829Y-101813580D02*
X128560782Y-101813580D01*
X128560782Y-101813580D02*
X128894115Y-101432628D01*
X128894115Y-101432628D02*
X128751258Y-101432628D01*
X128751258Y-101432628D02*
X128656020Y-101385009D01*
X128656020Y-101385009D02*
X128608401Y-101337390D01*
X128608401Y-101337390D02*
X128560782Y-101242152D01*
X128560782Y-101242152D02*
X128560782Y-101004057D01*
X128560782Y-101004057D02*
X128608401Y-100908819D01*
X128608401Y-100908819D02*
X128656020Y-100861200D01*
X128656020Y-100861200D02*
X128751258Y-100813580D01*
X128751258Y-100813580D02*
X129036972Y-100813580D01*
X129036972Y-100813580D02*
X129132210Y-100861200D01*
X129132210Y-100861200D02*
X129179829Y-100908819D01*
X130941734Y-90861200D02*
X130798877Y-90813580D01*
X130798877Y-90813580D02*
X130560782Y-90813580D01*
X130560782Y-90813580D02*
X130465544Y-90861200D01*
X130465544Y-90861200D02*
X130417925Y-90908819D01*
X130417925Y-90908819D02*
X130370306Y-91004057D01*
X130370306Y-91004057D02*
X130370306Y-91099295D01*
X130370306Y-91099295D02*
X130417925Y-91194533D01*
X130417925Y-91194533D02*
X130465544Y-91242152D01*
X130465544Y-91242152D02*
X130560782Y-91289771D01*
X130560782Y-91289771D02*
X130751258Y-91337390D01*
X130751258Y-91337390D02*
X130846496Y-91385009D01*
X130846496Y-91385009D02*
X130894115Y-91432628D01*
X130894115Y-91432628D02*
X130941734Y-91527866D01*
X130941734Y-91527866D02*
X130941734Y-91623104D01*
X130941734Y-91623104D02*
X130894115Y-91718342D01*
X130894115Y-91718342D02*
X130846496Y-91765961D01*
X130846496Y-91765961D02*
X130751258Y-91813580D01*
X130751258Y-91813580D02*
X130513163Y-91813580D01*
X130513163Y-91813580D02*
X130370306Y-91765961D01*
X129941734Y-90813580D02*
X129941734Y-91813580D01*
X130322687Y-88408819D02*
X130370306Y-88361200D01*
X130370306Y-88361200D02*
X130513163Y-88313580D01*
X130513163Y-88313580D02*
X130608401Y-88313580D01*
X130608401Y-88313580D02*
X130751258Y-88361200D01*
X130751258Y-88361200D02*
X130846496Y-88456438D01*
X130846496Y-88456438D02*
X130894115Y-88551676D01*
X130894115Y-88551676D02*
X130941734Y-88742152D01*
X130941734Y-88742152D02*
X130941734Y-88885009D01*
X130941734Y-88885009D02*
X130894115Y-89075485D01*
X130894115Y-89075485D02*
X130846496Y-89170723D01*
X130846496Y-89170723D02*
X130751258Y-89265961D01*
X130751258Y-89265961D02*
X130608401Y-89313580D01*
X130608401Y-89313580D02*
X130513163Y-89313580D01*
X130513163Y-89313580D02*
X130370306Y-89265961D01*
X130370306Y-89265961D02*
X130322687Y-89218342D01*
X129941734Y-88361200D02*
X129798877Y-88313580D01*
X129798877Y-88313580D02*
X129560782Y-88313580D01*
X129560782Y-88313580D02*
X129465544Y-88361200D01*
X129465544Y-88361200D02*
X129417925Y-88408819D01*
X129417925Y-88408819D02*
X129370306Y-88504057D01*
X129370306Y-88504057D02*
X129370306Y-88599295D01*
X129370306Y-88599295D02*
X129417925Y-88694533D01*
X129417925Y-88694533D02*
X129465544Y-88742152D01*
X129465544Y-88742152D02*
X129560782Y-88789771D01*
X129560782Y-88789771D02*
X129751258Y-88837390D01*
X129751258Y-88837390D02*
X129846496Y-88885009D01*
X129846496Y-88885009D02*
X129894115Y-88932628D01*
X129894115Y-88932628D02*
X129941734Y-89027866D01*
X129941734Y-89027866D02*
X129941734Y-89123104D01*
X129941734Y-89123104D02*
X129894115Y-89218342D01*
X129894115Y-89218342D02*
X129846496Y-89265961D01*
X129846496Y-89265961D02*
X129751258Y-89313580D01*
X129751258Y-89313580D02*
X129513163Y-89313580D01*
X129513163Y-89313580D02*
X129370306Y-89265961D01*
X130941734Y-93361200D02*
X130798877Y-93313580D01*
X130798877Y-93313580D02*
X130560782Y-93313580D01*
X130560782Y-93313580D02*
X130465544Y-93361200D01*
X130465544Y-93361200D02*
X130417925Y-93408819D01*
X130417925Y-93408819D02*
X130370306Y-93504057D01*
X130370306Y-93504057D02*
X130370306Y-93599295D01*
X130370306Y-93599295D02*
X130417925Y-93694533D01*
X130417925Y-93694533D02*
X130465544Y-93742152D01*
X130465544Y-93742152D02*
X130560782Y-93789771D01*
X130560782Y-93789771D02*
X130751258Y-93837390D01*
X130751258Y-93837390D02*
X130846496Y-93885009D01*
X130846496Y-93885009D02*
X130894115Y-93932628D01*
X130894115Y-93932628D02*
X130941734Y-94027866D01*
X130941734Y-94027866D02*
X130941734Y-94123104D01*
X130941734Y-94123104D02*
X130894115Y-94218342D01*
X130894115Y-94218342D02*
X130846496Y-94265961D01*
X130846496Y-94265961D02*
X130751258Y-94313580D01*
X130751258Y-94313580D02*
X130513163Y-94313580D01*
X130513163Y-94313580D02*
X130370306Y-94265961D01*
X129751258Y-94313580D02*
X129560782Y-94313580D01*
X129560782Y-94313580D02*
X129465544Y-94265961D01*
X129465544Y-94265961D02*
X129370306Y-94170723D01*
X129370306Y-94170723D02*
X129322687Y-93980247D01*
X129322687Y-93980247D02*
X129322687Y-93646914D01*
X129322687Y-93646914D02*
X129370306Y-93456438D01*
X129370306Y-93456438D02*
X129465544Y-93361200D01*
X129465544Y-93361200D02*
X129560782Y-93313580D01*
X129560782Y-93313580D02*
X129751258Y-93313580D01*
X129751258Y-93313580D02*
X129846496Y-93361200D01*
X129846496Y-93361200D02*
X129941734Y-93456438D01*
X129941734Y-93456438D02*
X129989353Y-93646914D01*
X129989353Y-93646914D02*
X129989353Y-93980247D01*
X129989353Y-93980247D02*
X129941734Y-94170723D01*
X129941734Y-94170723D02*
X129846496Y-94265961D01*
X129846496Y-94265961D02*
X129751258Y-94313580D01*
X130322687Y-95908819D02*
X130370306Y-95861200D01*
X130370306Y-95861200D02*
X130513163Y-95813580D01*
X130513163Y-95813580D02*
X130608401Y-95813580D01*
X130608401Y-95813580D02*
X130751258Y-95861200D01*
X130751258Y-95861200D02*
X130846496Y-95956438D01*
X130846496Y-95956438D02*
X130894115Y-96051676D01*
X130894115Y-96051676D02*
X130941734Y-96242152D01*
X130941734Y-96242152D02*
X130941734Y-96385009D01*
X130941734Y-96385009D02*
X130894115Y-96575485D01*
X130894115Y-96575485D02*
X130846496Y-96670723D01*
X130846496Y-96670723D02*
X130751258Y-96765961D01*
X130751258Y-96765961D02*
X130608401Y-96813580D01*
X130608401Y-96813580D02*
X130513163Y-96813580D01*
X130513163Y-96813580D02*
X130370306Y-96765961D01*
X130370306Y-96765961D02*
X130322687Y-96718342D01*
X129417925Y-95813580D02*
X129894115Y-95813580D01*
X129894115Y-95813580D02*
X129894115Y-96813580D01*
X129084591Y-95813580D02*
X129084591Y-96813580D01*
X128513163Y-95813580D02*
X128941734Y-96385009D01*
X128513163Y-96813580D02*
X129084591Y-96242152D01*
X130370306Y-99265961D02*
X130465544Y-99313580D01*
X130465544Y-99313580D02*
X130608401Y-99313580D01*
X130608401Y-99313580D02*
X130751258Y-99265961D01*
X130751258Y-99265961D02*
X130846496Y-99170723D01*
X130846496Y-99170723D02*
X130894115Y-99075485D01*
X130894115Y-99075485D02*
X130941734Y-98885009D01*
X130941734Y-98885009D02*
X130941734Y-98742152D01*
X130941734Y-98742152D02*
X130894115Y-98551676D01*
X130894115Y-98551676D02*
X130846496Y-98456438D01*
X130846496Y-98456438D02*
X130751258Y-98361200D01*
X130751258Y-98361200D02*
X130608401Y-98313580D01*
X130608401Y-98313580D02*
X130513163Y-98313580D01*
X130513163Y-98313580D02*
X130370306Y-98361200D01*
X130370306Y-98361200D02*
X130322687Y-98408819D01*
X130322687Y-98408819D02*
X130322687Y-98742152D01*
X130322687Y-98742152D02*
X130513163Y-98742152D01*
X129894115Y-98313580D02*
X129894115Y-99313580D01*
X129894115Y-99313580D02*
X129322687Y-98313580D01*
X129322687Y-98313580D02*
X129322687Y-99313580D01*
X128846496Y-98313580D02*
X128846496Y-99313580D01*
X128846496Y-99313580D02*
X128608401Y-99313580D01*
X128608401Y-99313580D02*
X128465544Y-99265961D01*
X128465544Y-99265961D02*
X128370306Y-99170723D01*
X128370306Y-99170723D02*
X128322687Y-99075485D01*
X128322687Y-99075485D02*
X128275068Y-98885009D01*
X128275068Y-98885009D02*
X128275068Y-98742152D01*
X128275068Y-98742152D02*
X128322687Y-98551676D01*
X128322687Y-98551676D02*
X128370306Y-98456438D01*
X128370306Y-98456438D02*
X128465544Y-98361200D01*
X128465544Y-98361200D02*
X128608401Y-98313580D01*
X128608401Y-98313580D02*
X128846496Y-98313580D01*
D12*
%TO.C,J3*%
X179824000Y-82808000D02*
X179824000Y-83828000D01*
X179824000Y-83828000D02*
X181424000Y-83828000D01*
X179824000Y-89908000D02*
X181424000Y-89908000D01*
X179824000Y-90928000D02*
X179824000Y-89908000D01*
X181424000Y-83828000D02*
X181424000Y-85108000D01*
X181424000Y-88628000D02*
X178534000Y-88628000D01*
X181424000Y-89908000D02*
X181424000Y-88628000D01*
X184074000Y-82808000D02*
X179824000Y-82808000D01*
X184074000Y-90928000D02*
X179824000Y-90928000D01*
X187644000Y-89208000D02*
X187644000Y-84528000D01*
D13*
%TO.C,J6*%
X162388430Y-88265000D02*
G75*
G02*
X159175570Y-88265000I-1606430J0D01*
G01*
X159175570Y-88265000D02*
G75*
G02*
X162388430Y-88265000I1606430J0D01*
G01*
X145624430Y-88265000D02*
G75*
G02*
X142411570Y-88265000I-1606430J0D01*
G01*
X142411570Y-88265000D02*
G75*
G02*
X145624430Y-88265000I1606430J0D01*
G01*
D14*
X152833603Y-91440000D02*
G75*
G02*
X152474397Y-91440000I-179603J0D01*
G01*
X152474397Y-91440000D02*
G75*
G02*
X152833603Y-91440000I179603J0D01*
G01*
D15*
X162814000Y-85823000D02*
X140814000Y-85823000D01*
X140814000Y-85823000D02*
X140814000Y-101973000D01*
D13*
X154432000Y-89281000D02*
X150368000Y-89281000D01*
X150368000Y-89281000D02*
X150368000Y-93345000D01*
D14*
X152654000Y-89662000D02*
X153035000Y-90170000D01*
X152273000Y-90170000D02*
X152654000Y-89662000D01*
X151257000Y-91059000D02*
X150749000Y-91440000D01*
X152654000Y-91440000D02*
X152654000Y-89662000D01*
X152654000Y-91440000D02*
X150749000Y-91440000D01*
X152654000Y-91440000D02*
X153924000Y-92710000D01*
X150749000Y-91440000D02*
X151257000Y-91821000D01*
X153924000Y-92710000D02*
X153797000Y-92075000D01*
X153924000Y-92710000D02*
X153289000Y-92583000D01*
D13*
X154432000Y-93345000D02*
X154432000Y-89281000D01*
X150368000Y-93345000D02*
X154432000Y-93345000D01*
D15*
X162814000Y-101973000D02*
X162814000Y-85823000D01*
X140814000Y-101973000D02*
X162814000Y-101973000D01*
D12*
%TO.C,R1*%
X174244000Y-105132000D02*
X174244000Y-104362000D01*
X174244000Y-97052000D02*
X174244000Y-97822000D01*
X175614000Y-97822000D02*
X172874000Y-97822000D01*
X172874000Y-104362000D01*
X175614000Y-104362000D01*
X175614000Y-97822000D01*
%TO.C,J1*%
X188187000Y-111665000D02*
X187187000Y-111665000D01*
X188187000Y-111665000D02*
X188187000Y-110665000D01*
X184477000Y-111375000D02*
X187897000Y-111375000D01*
X187897000Y-111375000D02*
X187897000Y-96905000D01*
X185837000Y-111065000D02*
X185837000Y-110865000D01*
X186637000Y-111065000D02*
X185837000Y-111065000D01*
X184987000Y-110865000D02*
X184987000Y-104140000D01*
X185837000Y-110865000D02*
X184987000Y-110865000D01*
X186637000Y-110865000D02*
X186637000Y-111065000D01*
X187387000Y-110865000D02*
X186637000Y-110865000D01*
X187387000Y-104140000D02*
X187387000Y-110865000D01*
X187387000Y-104140000D02*
X187387000Y-97415000D01*
X184987000Y-97415000D02*
X184987000Y-104140000D01*
X185837000Y-97415000D02*
X184987000Y-97415000D01*
X186637000Y-97415000D02*
X186637000Y-97215000D01*
X187387000Y-97415000D02*
X186637000Y-97415000D01*
X185837000Y-97215000D02*
X185837000Y-97415000D01*
X186637000Y-97215000D02*
X185837000Y-97215000D01*
X184477000Y-96905000D02*
X184477000Y-111375000D01*
X187897000Y-96905000D02*
X184477000Y-96905000D01*
%TO.C,R2*%
X169164000Y-105132000D02*
X169164000Y-104362000D01*
X169164000Y-97052000D02*
X169164000Y-97822000D01*
X167794000Y-104362000D02*
X170534000Y-104362000D01*
X170534000Y-97822000D01*
X167794000Y-97822000D01*
X167794000Y-104362000D01*
%TO.C,J4*%
X112690000Y-110960000D02*
X112690000Y-119640000D01*
X116260000Y-109240000D02*
X120510000Y-109240000D01*
X116260000Y-121360000D02*
X120510000Y-121360000D01*
X118910000Y-110260000D02*
X118910000Y-111540000D01*
X118910000Y-111540000D02*
X121800000Y-111540000D01*
X118910000Y-120340000D02*
X118910000Y-119060000D01*
X120510000Y-109240000D02*
X120510000Y-110260000D01*
X120510000Y-110260000D02*
X118910000Y-110260000D01*
X120510000Y-120340000D02*
X118910000Y-120340000D01*
X120510000Y-121360000D02*
X120510000Y-120340000D01*
%TO.C,C1*%
X149924000Y-107034000D02*
X142684000Y-107034000D01*
X149924000Y-104294000D02*
X149924000Y-107034000D01*
X142684000Y-107034000D02*
X142684000Y-104294000D01*
X142684000Y-104294000D02*
X149924000Y-104294000D01*
%TO.C,A1*%
X134604000Y-131132500D02*
X132604000Y-131132500D01*
X129794000Y-130812500D02*
X175514000Y-130812500D01*
X127144000Y-110382500D02*
X127144000Y-128162500D01*
X178164000Y-110382500D02*
X178164000Y-128162500D01*
X129794000Y-107732500D02*
X175514000Y-107732500D01*
X129794000Y-130812500D02*
G75*
G02*
X127144000Y-128162500I0J2650000D01*
G01*
X178164000Y-128162500D02*
G75*
G02*
X175514000Y-130812500I-2650000J0D01*
G01*
X127144000Y-110382500D02*
G75*
G02*
X129794000Y-107732500I2650000J0D01*
G01*
X175514000Y-107732500D02*
G75*
G02*
X178164000Y-110382500I0J-2650000D01*
G01*
%TO.C,J2*%
X182566000Y-124012000D02*
X182566000Y-122682000D01*
X183896000Y-124012000D02*
X182566000Y-124012000D01*
X185166000Y-124012000D02*
X185166000Y-121412000D01*
X187766000Y-124012000D02*
X185166000Y-124012000D01*
X187766000Y-124012000D02*
X187766000Y-116272000D01*
X182566000Y-121412000D02*
X182566000Y-116272000D01*
X185166000Y-121412000D02*
X182566000Y-121412000D01*
X187766000Y-116272000D02*
X182566000Y-116272000D01*
D13*
%TO.C,J5*%
X114808000Y-78486000D02*
X132588000Y-78486000D01*
X135128000Y-81026000D02*
X135128000Y-101346000D01*
X112268000Y-101346000D02*
X112268000Y-81026000D01*
X132588000Y-103886000D02*
X114808000Y-103886000D01*
X132588000Y-78486000D02*
G75*
G02*
X135128000Y-81026000I0J-2540000D01*
G01*
X112268000Y-81026000D02*
G75*
G02*
X114808000Y-78486000I2540000J0D01*
G01*
X135128000Y-101346000D02*
G75*
G02*
X132588000Y-103886000I-2540001J1D01*
G01*
X114808000Y-103886000D02*
G75*
G02*
X112268000Y-101346000I1J2540001D01*
G01*
D16*
X132688000Y-104636000D02*
G75*
G02*
X132488000Y-104636000I-100000J0D01*
G01*
X132488000Y-104636000D02*
G75*
G02*
X132688000Y-104636000I100000J0D01*
G01*
%TD*%
M02*
